<?xml version="1.0" encoding="UTF-8"?>
<svg id="Layer_2" data-name="Layer 2" xmlns="http://www.w3.org/2000/svg" xmlns:xlink="http://www.w3.org/1999/xlink" viewBox="0 0 2000.01 273.44">
  <defs>
    <style>
      .cls-1 {
        fill: #fffad6;
      }

      .cls-1, .cls-2 {
        fill-rule: evenodd;
      }

      .cls-3 {
        clip-rule: evenodd;
        fill: none;
      }

      .cls-2 {
        fill: #f6dd57;
      }

      .cls-4 {
        clip-path: url(#clippath);
      }
    </style>
    <clipPath id="clippath">
      <path class="cls-3" d="M0,192.72c21.2-21.55,59.58-49.62,96.68-42.7,42.46,7.93,35.66,122.85,99.07,123.42,63.41.57,78.69-126.81,148.89-117.19,70.2,9.62,46.51,61.64,97.88,57.36,51.37-4.28,41.52-30.82,89.9-3.42,48.37,27.4,64.17,40.35,101.77,12.43,37.59-27.92,37.22-73.71,93.8-71.1,56.58,2.61,68.48,75.4,116.61,47.53,48.13-27.87,39.4-48.69,91.76-26.46,52.35,22.24,75.15-9.29,119.34-24.77,44.2-15.48,43.15,122.65,118,121.12,74.84-1.53,103.62-117.79,161.57-113.95,57.95,3.84,49.9,56.8,91.35,58.34,41.45,1.53,61.79-23.8,102.86,8.83,41.07,32.62,70.4,19.56,118.11-40.33,47.71-59.89,125.88,58.88,184.76,19.29,58.88-39.59,58.88-51.77,99.48-27.41,24.64,14.78,51.14,14.61,68.18,12.2V0H0v192.72h0Z"/>
    </clipPath>
  </defs>
  <g id="Layer_1-2" data-name="Layer 1">
    <g class="cls-4">
      <path class="cls-2" d="M-10.99,164.88c18.12-21.51,64.28-38.44,106.74-30.52,42.46,7.93,35.66,64.85,99.07,65.42,63.41.57,52.69-72.81,122.89-63.19,70.2,9.62,56.51,48.64,107.88,44.36,51.37-4.28,57.52-39.82,105.9-12.42,48.37,27.4,64.17,40.35,101.77,12.43,37.59-27.92,37.22-37.71,93.8-35.1,56.58,2.61,69.4,81.05,117.54,53.19,48.13-27.87,54.47-28.35,106.83-6.11,52.35,22.24,57.15-29.29,101.34-44.77,44.2-15.48,45.15,49.65,120,48.12,74.84-1.54,103.62-53.79,161.57-49.95,57.95,3.84,49.9,37.8,91.35,39.34,41.45,1.54,80.79-37.8,121.86-5.17s53.14,20.2,118.11-20.33c71.09-44.35,107.88,73.88,166.76,34.29,58.88-39.59,57.88-43.77,98.48-19.41,54.5,32.7,125.73-43.21,102.29-34.88l-16-181.81H-12.1l1.11,199.54v7Z"/>
    </g>
    <path class="cls-1" d="M144.23,136.02s12.55,31.01,37.08,35.15c24.53,4.14,6.97,15.24-6.62,9.3-13.58-5.94-16.56-16.8-22.99-23.86-6.43-7.06-7.48-20.59-7.48-20.59h0Z"/>
    <path class="cls-1" d="M854.53,170.66s-18.17,13.05-24.75,12.64c-6.58-.41-15.61-2.95-16.15,3.59-.55,6.53,14.98,8.38,22.4,4.81,7.42-3.56,15.28-16.29,15.28-16.29l3.21-4.74Z"/>
    <path class="cls-1" d="M1125.24,152.99s6.93,16.59,25.44,18.9c18.49,2.32,10.3,10.3-4.26,9.67-14.56-.63-24.06-18.64-24.65-23.93-.58-5.29,3.48-4.64,3.48-4.64h0Z"/>
    <path class="cls-1" d="M1629,154.1s-16.56,14.9-29.91,14.51c-13.34-.4-19.58,7.44-11.81,12.18,7.78,4.74,35.59-14.08,38.45-17.34,2.88-3.26,12.53-14.9,3.27-9.34h0Z"/>
  </g>
</svg>