<?xml version="1.0" encoding="UTF-8"?>
<svg id="Layer_2" data-name="Layer 2" xmlns="http://www.w3.org/2000/svg" viewBox="0 0 2029.51 282.86">
  <defs>
    <style>
      .cls-1 {
        fill: #fffad6;
      }

      .cls-1, .cls-2 {
        fill-rule: evenodd;
      }

      .cls-2 {
        fill: #ffd000;
      }
    </style>
  </defs>
  <g id="Layer_1-2" data-name="Layer 1">
    <path class="cls-2" d="M0,208.36c5.72-36.68,46.33-57.09,95.35-29.88,38.91,21.6,48.38,94.39,111.79,94.96,63.41.57,53.52-97.42,123.72-87.79,70.2,9.62,50.89,72,98.14,92.61,51.81,22.61,56.51-56.51,127.16-49.92,55.35,5.17,51.82,22.19,89.42-5.72,37.59-27.92,36.43-46,90.28-38.93,61.58,8.08,48.59,94.39,104.04,98.65,51.67,3.97,59.67-92.49,112.03-70.26,52.35,22.24,71.28-5.45,115.46-20.93,44.2-15.48,42.84,79.32,117.69,77.78,74.84-1.54,104.56-82.29,162.51-78.45,57.95,3.84,51.23,90.44,92.69,91.97,41.45,1.54,70.52-94.23,111.58-61.61s87.16,55.04,149.31,10.31c118.7-85.44,80.99,60.15,137.67,51.32,65.68-10.23,85.81-115.11,121.43-83.89,36.31,31.82,69.25,55.71,69.02,2.8l.22-201.38H.22"/>
    <path class="cls-1" d="M148.21,199.87s12.55,31.01,37.08,35.15c24.53,4.14,6.97,15.24-6.62,9.3-13.58-5.94-16.56-16.8-22.99-23.86-6.43-7.06-7.48-20.59-7.48-20.59h0Z"/>
    <path class="cls-1" d="M871.1,241.17s-18.17,13.05-24.75,12.64c-6.58-.41-15.61-2.95-16.15,3.59-.55,6.53,14.98,8.38,22.4,4.81,7.42-3.56,15.28-16.29,15.28-16.29l3.21-4.74Z"/>
    <path class="cls-1" d="M1146.07,215.65s6.93,16.59,25.44,18.9c18.49,2.32,10.3,10.3-4.26,9.67-14.56-.63-24.06-18.64-24.65-23.93-.58-5.29,3.48-4.64,3.48-4.64h0Z"/>
    <path class="cls-1" d="M1679.03,206.01s-16.56,14.9-29.91,14.51c-13.34-.4-19.58,7.44-11.81,12.18,7.78,4.74,35.59-14.08,38.45-17.34,2.88-3.26,12.53-14.9,3.27-9.34h0Z"/>
  </g>
</svg>