<?xml version="1.0" encoding="UTF-8"?>
<svg id="Layer_2" data-name="Layer 2" xmlns="http://www.w3.org/2000/svg" xmlns:xlink="http://www.w3.org/1999/xlink" viewBox="0 0 2000.01 273.44">
  <defs>
    <style>
      .cls-1 {
        fill: #fffad6;
      }

      .cls-1, .cls-2 {
        fill-rule: evenodd;
      }

      .cls-3 {
        clip-rule: evenodd;
        fill: none;
      }

      .cls-2 {
        fill: #f6dd57;
      }

      .cls-4 {
        clip-path: url(#clippath);
      }
    </style>
    <clipPath id="clippath">
      <path class="cls-3" d="M0,192.72c21.2-21.55,59.58-49.62,96.68-42.7,42.46,7.93,35.66,122.85,99.07,123.42,63.41.57,78.69-126.81,148.89-117.19,70.2,9.62,46.51,61.64,97.88,57.36,51.37-4.28,41.52-30.82,89.9-3.42,48.37,27.4,64.17,40.35,101.77,12.43,37.59-27.92,37.22-73.71,93.8-71.1,56.58,2.61,68.48,75.4,116.61,47.53,48.13-27.87,39.4-48.69,91.76-26.46,52.35,22.24,75.15-9.29,119.34-24.77,44.2-15.48,43.15,122.65,118,121.12,74.84-1.53,103.62-117.79,161.57-113.95,57.95,3.84,49.9,56.8,91.35,58.34,41.45,1.53,61.79-23.8,102.86,8.83,41.07,32.62,70.4,19.56,118.11-40.33,47.71-59.89,125.88,58.88,184.76,19.29,58.88-39.59,58.88-51.77,99.48-27.41,24.64,14.78,51.14,14.61,68.18,12.2V0H0v192.72h0Z"/>
    </clipPath>
  </defs>
  <g id="Layer_1-2" data-name="Layer 1">
    <g class="cls-4">
      <path class="cls-2" d="M-10.99,164.88c18.12-21.51,64.28-64.44,106.74-56.52,42.46,7.93,35.66,122.85,99.07,123.42,63.41.57,78.69-126.81,148.89-117.19,70.2,9.62,46.51,61.64,97.88,57.36,51.37-4.28,41.52-30.82,89.9-3.42,48.37,27.4,64.17,40.35,101.77,12.43,37.59-27.92,37.22-73.71,93.8-71.1,56.58,2.61,68.48,75.39,116.61,47.53,48.13-27.87,39.4-48.69,91.76-26.46,52.35,22.24,75.15-9.29,119.34-24.77,44.2-15.48,43.15,122.65,118,121.12,74.84-1.54,103.62-117.79,161.57-113.95,57.95,3.84,49.9,56.8,91.35,58.34,41.45,1.54,61.79-23.8,102.86,8.83s70.4,19.56,118.11-40.33c47.71-59.89,125.88,58.88,184.76,19.29,58.88-39.59,58.88-51.77,99.48-27.41,54.5,32.7,125.73-.21,102.29,8.12l-16-181.81H-12.1l1.11,199.54v7Z"/>
    </g>
    <path class="cls-1" d="M148.99,175.08s8.48,32.36,32.28,39.6c23.8,7.24,4.97,16-7.75,8.38-12.71-7.63-14.27-18.78-19.75-26.6-5.48-7.82-4.78-21.38-4.78-21.38h0Z"/>
    <path class="cls-1" d="M853.3,141.1s-8.07,9.31-12.61,10.65c-4.55,1.34-11.28,1.86-10.03,6.41,1.24,4.55,12.2,1.97,16.34-2.28,4.14-4.24,6.31-14.79,6.31-14.79h0Z"/>
    <path class="cls-1" d="M1133.76,188.65s4.64,17.37,22.67,22.15c18.02,4.78,8.82,11.58-5.52,9.01-14.34-2.57-21.34-21.7-21.22-27.02.13-5.33,4.07-4.13,4.07-4.13h0Z"/>
    <path class="cls-1" d="M1602.3,173s-8.58,10.38-16.35,11.12c-7.77.73-10.84,6.01-6.01,8.36,4.84,2.35,19.67-11.27,21.11-13.49,1.45-2.22,6.24-10.08,1.25-5.99h0Z"/>
  </g>
</svg>