<?xml version="1.0" encoding="UTF-8"?>
<svg id="Layer_2" data-name="Layer 2" xmlns="http://www.w3.org/2000/svg" viewBox="0 0 504.49 543.34">
  <defs>
    <style>
      .cls-1 {
        fill: #fff;
        stroke: #fff;
        stroke-miterlimit: 10;
      }
    </style>
  </defs>
  <g id="animal">
    <path class="cls-1" d="M297.08,55.64c16.08-1.68,34.04,9.15,39.28,24.55,6.15,18.11,2.98,37.64-8.9,52.58-.6.76-3.67,4.01-4.26,4.18-1.42.4-4.8-1.12-3.7-3.13l10.35-16.04c9.68-25.38.79-63.1-33.37-56.75-18.86,3.51-33.98,19.82-32.18,39.67.19,2.09,1.95,7.82,1.51,9.33-.92,3.14-4.74,1.04-5.61-1.03-1.27-3.01-2.16-10.39-1.95-13.67,1.38-21.08,18.03-37.52,38.83-39.69h0ZM92.87,72.54c.65,4.22,3.37,14.13,6.54,16.83,1.18,1,2.26,1.72,3.91,1.52,3.46-.43.05-4.46-.6-6.03-7.84-18.96-4.86-37.7,11.07-51.26,13.6-11.58,39.12-7,45.44,10.34,4.33,11.89,2.3,23.43-1.96,34.93-.85,2.29-5.58,9.55-1.71,10.7,1.83.54,2.77-.07,3.72-1.5,6.11-9.22,9.47-25.62,7.84-36.44-2.22-14.8-10.32-22.54-24.4-26.55-5.85-1.66-12.18-2.63-18.28-1.82-21.59,2.89-34.66,29.3-31.57,49.27h0ZM133.12,188.41c-.35,2.62.49,4.58,2.66,6.05,2.33,1.58,6.61,3.6,9.39,2.97,2.98-.67,7.15-7.52,7.59-10.39,1.1-7.2-7.38-10.46-13.36-9.16-2.79.61-5.92,7.8-6.28,10.52h0ZM101.32,170.97c-.74,1.13-3.86,9.19-3.63,10,.73,2.61,10.03,5.69,12.72,5.08,3.58-.81,6.63-8.96,5.71-12.08-.33-1.11-4.8-4.19-6.07-4.71-1.44-.59-3.92-1.29-5.4-.98-1.28.27-2.61,1.62-3.32,2.69h-.01ZM282.98,126.05c.43-2.2,2.25-3.31-.89-4.76-2.81-1.3-3.38.14-4.33,2.54-.63,1.59-1.44,5.26-1.46,6.89,0,.9.75,2.66,1.43,3.32.69.68,3.37,1.71,3.92,1.17.33-.32,1.07-7.81,1.33-9.16ZM266.65,118.67c-5.62,1.8-2.4,13.59,2.21,14.04.25.02,1.92-.43,1.99-.5.4-.4-1.09-3.94-1.21-5.07-.17-1.67.84-7.21.57-7.47-.3-.3-2.94-1.2-3.57-1h.01ZM130.78,90.97c-2.43-.66-2.88-.37-2.46,1.86.32,1.71,2.95,9.17,3.8,10.59,1.12,1.88,4.1,2.97,4.48.34.35-2.39-2.08-9.83-3.78-11.54-.22-.22-1.79-1.18-2.05-1.25h.01ZM293.51,137.19c.71-1.74,3.44-5.49,3.65-6.59.55-2.86-4.11-3.33-5.78-1.84-.68.6-3.07,6.37-3.15,7.39-.2,2.63,4.28,3.92,4.79,3.24.07-.09.19-1.48.49-2.21h0ZM306.62,134.11c-2.66.29-8.84,5.89-7.3,8.91,2.11,4.14,6.98-2.26,8.69-3.94.81-.8,3.57-1.94,1.7-3.76-.23-.23-2.71-1.25-3.08-1.21h-.01ZM97.92,99.24c.86,2.55,5.68,3.53,7.92,4.67,1.56.8,3.85,3.39,5.38,2.67,1.85-.87,1.32-1.8-.09-3.16-2.03-1.96-9.86-6.06-12.56-5.33-.48.13-.87.51-.65,1.15ZM119.79,93.57c-2.41-.98-2.96-.18-2.27,2.27.42,1.48,5.44,8.16,7.05,8.55.32.08,1.76-.28,1.82-.35,1.41-1.45-4.47-9.61-6.6-10.47ZM315.43,149.51c.47-.26,3.57-2.66,3.7-2.9,1.19-2.27-1.02-3.6-3.03-3.59-2.11,0-7.63,4.42-5.57,6.47,1.12,1.11,3.56.77,4.9.02h0ZM184.05,93.06c10.52-18.79,12.52-36.32,5.15-56.92C180.16,10.88,155.22-2.07,129.08.92c-47.45,5.43-68.97,61.81-47.74,101.73.56,1.06,2.51,3.22,2.52,4.07,0,.61-4.02,9.24-4.67,10.93-11.64,30.39-22.09,61.5-27.71,93.67l-17.98-8.69c-9.5-3.6-19.46-5.68-29.6-3.82-1.07.22-1.47,2.69-.59,2.92,4.67,1.25,9.56.24,14.33.58,8.99.64,20.45,6.22,28.27,10.69.69.39,3.97,2.27,4.11,2.49,1.11,1.65-.26,6.93-.33,9.02-6.94-.84-13.8-2.63-20.72-3.56-7.24-.97-15.99-1.7-23.06.23-1.33.36-4.76,1.47-4.68,3.03.17,3.14,8.63.54,10.43.33,6.98-.81,13.31-.34,20.3.6,5.71.77,11.38,2.29,17.12,2.96.15,3.83.64,3.94-3.25,3.55-10.59-1.05-24.58.52-35.37,1.87-2.32.29-6.1.63-8.14,1.45-1.08.44-2.15.92-1.73,2.33.67,2.24,3.72,2.34,5.66,2.19,9.72-.79,19.59-2.54,29.33-3.03,1.71-.09,12.45-.44,12.91.02.58.58-.38,6.25-.56,7.53-.1.7.06,2.56-.03,2.66-.18.18-4.02-.08-5.06.04-11.3,1.32-19.38,11.83-18.34,23.05.47,5.1,3.07,8.24,7.59,10.4,9.86,4.72,21.53,2.28,28.4-6.21.73-.9,1.27-2.99,2.16-3.26,1.12-.34,2.33.51,3.5.57,2.29.12,4.62-.14,6.9-.01.33,3.33,1.4,6.59,1.77,9.92,1.42,12.66-.16,25.73,1.22,38.38.14,1.32-.85,1.45.34,3.21.81,1.2,2.01,2.24,3.54,1.8,1.62-.47.92-7.43,1.59-9.26-1.18-12.2.04-24.34-1.9-36.51-.2-1.26-2.03-7.27-1.75-7.54.21-.2,4.67.08,5.71.02.93-.06,4.03-1.13,4.46-.6.23.28,1.47,6.02,1.67,7.02,1.11,5.47,1.77,11.2,2.51,16.67.74,5.45.69,11.95,1.97,17.21.39,1.62,2.33,5.17,4.35,4.63,1.85-.49.36-3.94.29-5.07-.58-9.08-1.48-18.51-3.02-27.55-.74-4.35-1.94-8.65-2.95-12.93,1.86.11,8.37-1.38,9.53-.54.61.44,2.58,8.48,2.91,9.97,1.75,7.85,2.8,15.96,4.3,23.87.34,1.77-.32,3.61,1.5,5.09,3.8,3.09,3.51-3.34,3.3-5.69-.64-7.09-2.71-16.8-4.32-23.85-.78-3.41-1.83-6.72-2.83-10.05l25.78-3c-6.27,16.33-5.97,38.14,2.28,53.76,4.47,8.46,11.11,15.6,18.08,22.08.45.42,4.66,3.03,3.61,3.88-.24.19-3.12,1.19-4.01,1.69-33.18,18.77-47,49.84-35.26,87.04,9.14,28.95,30.89,45.56,53.97,62.94.74.55,2.51.77,1.12,1.77-8.39,3.04-17.31,5.81-25,10.31-1.63.95-6.18,3.66-7.03,4.96-2.07,3.16-1.01,4.84,1.53,6.92,8.28,6.79,28.41,6.99,38.98,7.77,15.31,1.14,31.38,2.78,46.57-.75,13.68-3.18,23.8-8.9,17.71-24.57-1.15-2.97-3.07-5.42-4.36-8.23-1.69-3.71-2.6-7.75-4.03-11.55-.48-1.26-4.45-9.65-4.06-10.02.74-.7,17.33,3.77,20.04,3.03,17.18,2.2,34.97,2.5,52.22.6,3.77-.42,7.53-.84,11.3-1.26,6.28,12.87,14.23,25.7,26.53,33.49,1.85,1.17,3.84,2.19,5.78,3.23,1.7.91,2.45.29.68,2.84-2.78,4.01-6.44,7.51-7.91,12.47-1.14,3.83-1.17,5.17,2.27,7.62,6.01,4.28,28.61,6.67,36.26,6.34,3.58-.16,8.26-.76,11.93-1.26,6.83-.93,18.33-2.89,21.03-10.14,1.82-4.91.54-12.39-.45-17.54-.2-1.06-1.58-4.7-1.56-4.96.06-.75,10.41-7.14,12.2-8.67,25.46-21.79,37.29-53.73,40.56-86.51,38.73-35.45,50.06-93.94,30.76-142.47-3.83-9.62-9.02-18.72-13.19-28.17-9.8-22.25-15.24-48.43-20.02-72.29-.91-4.52-1.18-12.76-3.38-16.4-.54-.9-2.06-2.09-3.08-2.31-.75-.16-4.19-.25-4.34-.07-.13.17-.01.84-.2,1.27-12.36,29.01-8.92,65.55,1.49,94.75,5.25,14.73,12.52,28.87,16.37,44.17,4.7,18.66,3.15,42.75-5.11,60.28-.28.58-.32,1.42-1.21,1.49-1.03-8.29-3.35-16.55-5.69-24.59-17.23-59.31-52.82-109.24-100.71-147.44l-27.27-21.88c-.24-1.23.28-.72.77-1.01,2.95-1.76,5.84-2.92,8.78-5.02,28.76-20.58,34.8-70.46,11.74-97.38-23.21-27.09-62.62-32.78-91.13-10.18-17.44,13.83-26.72,38.83-23.04,60.81.21,1.23,1.99,5.53,1.76,5.73-.29.26-2.5-.7-2.99-.9-16.74-6.89-28.79-11.14-47.09-13.44-1.51-.19-5.2.24-6.26-.64-.23-.19,2.74-4.33,3.11-4.98h-.02ZM70.97,261.06c-2.11-.03-1.27,2.7-1.51,3.02-.27.36-2.12-.5-2.73-.57-.87-.1-2.88.16-3.22-.08-.36-.25-1.04-4.98-1.4-6.1-.6-1.87-2.44-4.99-3.77-6.42-.56-.6-1.89-.93-2.04-1.58-.13-.56.99-2.51,1.13-3.57.86-6.5.98-13.1,1.21-19.77.54-.84.47-4.3.62-4.48.17-.2,4.1,2.49,4.76.27.91-3.06-3.81-3.97-4.09-5.43,4.29-26.92,12.28-53.08,21.19-78.76,3.35-9.65,6.9-19.97,10.78-29.38.79-1.91,2.28-2,1.05-4.62-.44-.93-1.36-1.5-1.85-2.35-16.18-28.15-9.28-68.07,18.28-86.44,35.07-23.37,66.72,5.64,69.16,42.15.97,14.61-4.89,22.44-9.91,35.08-.43,1.07-1.34,5.16-1.53,5.36-.16.16-3.62.14-4.44.65-2.92-.28-21.47,1.63-22.45,3.03-.65.92.14,3.65,1.54,4.05,1.97.57,10.46.22,13.11.11,7.8-.31,14.77-1.36,22.72-.58,22.55,2.22,39.81,11.02,61.07,15.66,3.82.83,9.92,5.65,14.02,6.35,2.41.42,4.95.25,4.37-2.57-.61-2.96-6.28-3.82-7.67-5.22-1.41-1.41-4.47-10.48-4.88-12.8-8.15-46.24,43.57-85.47,84.67-59.5,29.53,18.66,29.43,69.8,8.2,94.3-4.58,5.29-11.09,8.57-15.9,13.47-12.41,12.65-23.27,27.39-36.23,39.89-38.91,37.51-97.72,60.88-151.35,66.23-.45.05-1.48.22-1.51-.31,4.84-4.46,7.89-9.32,9.42-15.75.48-2.01,1.15-5.09,1.33-7.07.15-1.6.34-6.42-.03-7.69s-4.47-1.76-5.29-.92c-.21.22.03,2.91-.08,3.82-1.37,11.49-3.66,20.69-13.44,27.91-3.17,2.34-8.4,1.17-12.03,2.36-2.89-.53-6.21,1.11-8.89.66-.44-.07-.62-1.28-1.23-1.85-4.2-3.92-7.34-2.32-3.33,2.42h-8.69c-.63,0-2.4-5.66-5.39-5.43-3.05.23-.39,4.03.3,5.43-2.83-.5-8.02.68-10.49,0-.78-.22-2.18-3-3.58-3.02l.02.04ZM324.42,470.69c-1.03-1.33-1.44-2.9-3.51-2.86-.9.02-1.68.56-2.44.61-15.38,1.01-30.56,3.6-46.14,3.05-14.79-.52-31.6-1.81-45.84-6.31-4.46-1.41-10.06-5.18-14.56-4.36-3.73.68-.87,4.26,1.08,5.86,1.5,1.23,6.61,3.34,6.83,3.65.25.35-.02,2.67.19,3.71,1.81,9.29,9.89,20.57,13.36,29.8,2.61,6.96,1.76,10.81-5.28,13.9-14.51,6.37-30.9,4.83-46.25,4.06-6.29-.31-12.92-.25-19.15-1.23-2.53-.4-5.04-1.21-7.54-1.76,6.1-6.55,15.87-8.66,23.79-12.47,1.74-.83,6.71-3.29,7.83-4.45,2.92-3.05-2.72-8.07-4.95-10.05-19-16.92-38.73-27.9-49.75-52.75-14.65-33.03-5.52-60.94,23.72-80.58,2.14-1.44,8.08-5.43,10.14-6.09.57-.18.6-.23,1.18.03,1.6.72,3.65,2.87,5.21,3.83,11.57,7.11,24.89,12.77,37.2,18.54,3,1.15,5.59-1.72,8.26-1.71,1.67.01,4.12,1.07,5.98,1.25,24.83,2.48,52.42-4.34,63.55-28.79.44-.96,1.33-4.35,1.6-4.69.21-.27,5.28-1.93,6.31-2.38,30.38-13.48,52.61-32.54,71.41-59.86,2.78-4.05,9.83-14.1,10.28-18.52s-5.23-3.64-6.87-1.45c-3.31,4.43-6.19,9.93-9.41,14.57-17.85,25.68-36.19,44.99-64.82,58.66-7.69,3.67-15.85,6.66-24.39,7.67l5.69-9.59c.71-.93.9-4.03.27-4.76-.19-.23-4.64.06-5.68-.01-3.36-.25-6.83-.32-10.19-.6-3.08-.26-4.54-.62-1.78-3.02,2.65-2.3,7.87-4.29,8.62-8.21.27-1.42-1.43-2.89-2.74-3.1-.91-.14-1.56.47-2.28.47-1.61,0-6.18-1.08-7.96-1.57-.67-.18-2.54-.52-2.52-1.37,3.51-1.54,7.04-3.52,10.38-5.5,18.73-11.1,36.68-24.27,52.25-39.46,6.26-6.11,19.9-20.17,21.75-28.6.36-1.66,1.03-4.9-.87-5.47-6.05-1.81-9.69,7.48-12.53,11.25-1.97,2.62-5.19,6.25-7.45,8.73-13.88,15.24-30.06,28.26-47.06,39.85-1.94-3.01-5.18-4.95-8.28-6.7-13.59-7.68-32.81-10.82-47.9-6.31-12.33,3.68-24.33,18.06-26.2,30.74-.12.82.1,3.09-.04,3.26-.63.76-15.23-9.78-16.48-10.79-1.44-1.17-10.14-9.12-10.39-9.99-.23-.81-.05-1.82-.25-2.75-.78-3.61-2.35-12.24-4-15.06-.65-1.1-5.05-1.5-5.77-.41-1.85,2.79,1.74,14.91,2.61,18.44.27,1.11-.06,2.3.23,3.37,1.94,6.99,23.58,20.31,30.27,24.28,4.48,2.67,9.57,5.59,14.17,8.01,9.77,5.13,20.22,9.07,29.78,14.57l-9.01,1.77c-.7.13-3.91,1.96-4.09,2.2-1.67,2.33,5.8,10.9,5.31,11.31-.57.48-5.01-1.09-6.28-1.21-2.18-.2-6.38-.33-8.09.93-3.58,2.66,1.91,9.13,1.18,9.87-.41.41-7.3-3.4-8.61-3.68-25.54-12.54-54.77-30.63-59.08-61.39-1.15-8.22-.53-19.37,1.91-27.39.28-.91,2.6-6.76,2.91-6.98.38-.27,2.3.04,3.2-.1,16.97-2.49,35.49-6.65,51.89-11.64,48.6-14.78,94.33-44.31,124.39-85.45.76,0,1.76.75,2.38,1.22,3.86,2.94,8.25,6.94,11.98,10.19,53.3,46.39,95.95,97.8,111.62,168.9,8.28,37.58,4.44,95.15-16.12,128.6-17.28,28.11-47.92,43.49-79.43,26.89-15.41-8.12-18.81-19.48-27.93-32.33-.14-.2-.67-.15-.81-.33v.04ZM451.28,200.55c.21-1.36-.52-2.57-.62-3.88-.38-5,.07-12.35.66-17.36.4-3.42,1.6-7.03,1.76-10.53.86-.12.87,1.59,1.02,2.27,1.55,6.81,2.65,13.91,3.81,20.76.22,1.29,1.78,6.96,1.16,7.54-.29.27-6.67.16-7.79,1.2h0ZM454.87,226.32c-.25-.26-1.54-5.93-1.74-6.95-.93-4.61-1.21-9.38-1.86-14.03,2.08-.35,4.16-.44,6.26-.63,1.05-.1,2.15-1.22,3.06,0l4.48,18.6c-1.47.12-9.82,3.38-10.19,3h-.01ZM470.29,244.42c-1.28.38-9.02,3.4-9.42,2.88-.06-.07-.1-1.23-.27-1.81-.59-1.95-5.23-14.38-4.52-14.97.1-.08,1.82,0,2.55-.14,1.17-.23,7.33-2.23,7.65-2,1.45,1.02,3.84,11.95,5.71,14.1.27.42.4,1.72.27,1.83-.11.09-1.34-.06-1.97.12h0ZM484.75,271.59c-.06.82-12.07,5-12.49,4.48-.16-.2-.95-3.93-1.34-4.96-2.41-6.39-5.44-12.55-7.66-19.02,1.85.12,11.15-3.75,11.95-2.96l9.54,22.45h0ZM52.08,255.39c3.32,4.04,4.18,7.27,2.72,12.31-2.56,8.86-9.12,11.27-17.31,7.07-7.51-3.85-6.48-11.34-1.6-16.99,1.6-1.85,5.2-4.53,7.63-4.96,3.99-.71,6.04-.51,8.56,2.57h0ZM489.49,295.4c-3.57.77-7.15,1.82-10.64,2.85.43-2.47-4.95-17.44-4.2-17.98.18-.13,3.38-.51,4.34-.76,1.98-.51,3.9-1.37,5.83-1.97.7-.21,1.14-.54,1.86,0,.54.4,1.87,5.58,2.2,6.79.36,1.32,2.98,10.56,2.56,10.93-.07.06-1.33.02-1.94.15h0ZM259.42,341.7c0,.46.58,2.99.74,3.2.21.27,4.33,1.34,5,1.34,2.82-.02,7.23-1.38,10.23-1.8.54-.08,1.87-.33,2.06.26-1.25,1.65-1.74,3.75-2.99,5.4-1.96,2.59-7.52,7.69-10.23,9.55-10.86,7.48-31.1,11.95-43.88,8.57-1.14-.3-2.95-.79-3.74-1.66l-3.3-7.78,8.09,1.74c3.61-.57,7.25-.79,6.18-5.53-.42-1.84-4.68-8.36-4.67-9.1,0-1.38,8.93-2.45,10.36-2.81,6.31-1.58,4.52-6.86-.37-8.98l-37.55-19.39c-2.6-1.93-.78-8.3.28-11.07,8.82-23.08,33.75-30.03,55.44-20.08,3.71,1.7,9.68,5.19,11.36,9.02.45,1.03-.42.78-.75.98-5.45,3.29-12.05,6.3-17.17,9.82-2.95,2.03-3.65,2.44-3.05,6.56.22,1.5,3.79,3.15,5.24,3.75,2.42.99,5.36,1.77,7.96,1.94-2.67,2.99-10.39,4.12-9.6,9.29.16,1.05,1.85,2.67,2.78,3.21.99.58,6.83,2.48,7.71,2.48,1.6,0,10.66-.35,11.09,0,.52.42-7.26,8.28-7.24,11.08h.02ZM483.31,321.06c-.77-.1-3.26.12-3.26-.04v-16.48c0-.16-.43-.38-.49-.71-.39-2.11.18-1.14,1.94-1.43s9.45-2.52,10.19-2.33c1.48.38.81,3.31.96,4.47.08.59.59,1.09.59,1.21,0,2.38.58,16.46,0,17.08-.34.37-8.48-1.58-9.93-1.76h0ZM491.37,342.24c-.21,1.16-1.2,6.96-2.04,6.95-3.77-3.01-7.85-6.64-12.29-8.4.67-2.37,1.39-5.1,1.76-7.52.22-1.46.52-3.32.66-4.73.08-.86-.2-3.7-.02-3.91.1-.12,2.1.9,2.83,1.06,1.72.37,10.35,1.39,10.93,1.96-.63,4.85-.95,9.78-1.83,14.6h0ZM480.33,371.99c-1.22-1.08-2.68-3.78-3.88-5.11-1.03-1.15-6.4-6-6.54-6.67-.11-.53,3.84-8.34,4.44-9.81.43-1.06,1.65-6,2.4-5.99s10.03,7.78,11.65,8.76l-6.56,19.41c-.3.35-1.12-.24-1.51-.58h0ZM465.08,375.25c-.08-1.92-1.02-3.66-.62-5.98.23-1.34,1.59-1.96,2.33-3.07.34-.52.66-2.17.97-2.02.45.21,2.75,2.67,3.3,3.29,2.57,2.91,4.65,6.58,7.51,9.29.21.26.29.56.29.89,0,1.9-6.63,11.87-8.16,14.05l-5.65,7.24c-.28-7.87.36-15.83.02-23.69h.01ZM403.05,526.65c-1.44,5.59-10.16,6.37-15.06,7.12-10.01,1.53-19.86,1.8-29.87-.02-.8-.15-4.92-1-5.12-1.17-.15-.12-.08-2.08,0-2.64.36-2.46,4.63-10.92,6.95-11.63,2.08-.63,9.61,1.51,12.48,1.72,8.37.61,17.71-1.54,25.49-4.51,1.8-.69,3.38-2.25,5.39-2.1.52,4.64.92,8.61-.27,13.22h0ZM331.88,369.16c-11.63,25.46-21.49,57.76-14.11,85.66.48,1.81,1.72,6.17,2.86,7.33,1.55,1.59,4.27,2.55,4.21-.57-1.08-4.2-2.17-8.47-2.88-12.75-2.34-14-.6-26.69,2.41-40.44,3.54-16.17,9.69-31.74,18.31-45.83.9-2.26-1.84-5.62-3.96-3.64l-6.84,10.23h0ZM167.8,387.3c-2.29,14.78,2.85,34.27,10.26,47.21,4.21,7.36,15.7,22.2,23.07,26.08,1.51.8,3.23,1.81,4.41.4,1.59-1.9-2.41-3.64-3.62-4.79-19.6-18.48-29.7-39.24-28.14-66.53.15-2.64.59-10-3.87-8.67-1.1.33-1.91,5.05-2.11,6.29h0ZM322.25,222.27c.74-3.11,2.03-8.66-2.07-9.62-4.17-.98-2.34,1.42-2.69,3.62-.62,3.92-2.22,8.19-2.89,12.18-.17,1.61,3.98,3.41,4.76,2.64.33-.33,2.61-7.69,2.88-8.81h.01ZM313.29,211.51c.13-.63.69-4.37.64-4.6-.19-.96-2.93-2.26-3.74-2.1-1.27.25-2.35,3.9-2.64,5.16-.64,2.79-1.45,6.36,2.08,7.25.48.12,1.76.28,1.96.09.22-.21,1.54-5,1.7-5.79h0ZM347.98,349.06c1.07.09,7.61-2.75,8.8-3.55,4.47-2.99.91-4.76-3.24-3.84-1.08.24-7.15,3.01-7.77,3.61-.31.3-1.31,2.61-1.19,2.7.14.11,3.11,1.05,3.4,1.07h0ZM360.37,326.56c-1.97-.14-8.54,2.18-9.83,3.72-1.91,2.29,1.69,3.86,3.81,3.22.55-.17,1.12-.85,1.88-1.12,1.55-.54,7.16-1.65,7.47-2.72.12-.43.16-1.87.02-2.01-.13-.12-3.05-1.07-3.36-1.09h0ZM354.21,319.48c.21.72,2.6,1.54,3.28,1.55,1.11.01,1.58-1.23,2.37-1.8,2.19-1.58,7.77-3.98,3.14-6.13-1.92-.89-4.33.21-6.04,1.32-.08.05-1.32,1.32-1.37,1.4-.78,1.01-1.78,2.33-1.38,3.66ZM302.54,202.77c-.32-1.86-3.72-3.73-4.68-2.79-.77.75-1.94,6.54-1.7,7.95.32,1.85,4.07,3.41,4.66,2.81.28-.29,1.8-7.5,1.72-7.96h0ZM356.67,303.95c.06,1.12,3.24,2.56,4.7,1.8.72-.37,4.74-4.77,4.71-5.42-.05-1.01-3.04-2.36-4.31-2-1.46.41-5.18,4.17-5.11,5.62h0Z"/>
  </g>
</svg>