<?xml version="1.0" encoding="UTF-8"?>
<svg id="Layer_2" data-name="Layer 2" xmlns="http://www.w3.org/2000/svg" viewBox="0 0 360.96 549.98">
  <defs>
    <style>
      .cls-1 {
        fill: #fff;
        stroke: #fff;
        stroke-miterlimit: 10;
      }
    </style>
  </defs>
  <g id="animal">
    <path class="cls-1" d="M347.01,358.38c-.41.39,2.33,7.27-1.57,9.51-3.2,1.83-8.83,1.64-12.21.37-.57-.21-2.89-1.62-3-1.49-.12.15-.3,2.63-.74,3.76-2.13,5.45-10.19,5.83-14.57,2.85-4.69-3.18-8.88-15.39-9.27-21-1.07.77-4.49,4.8-4.69,5.78s1.3,4.17,1.56,5.44c1.68,8.22,2.25,16.77,3.11,25.06,3.7,35.74,5.68,71.77,4.2,107.85-.17,4.22.46,8.43-.62,12.56,6.22,3.73,13.27,6.64,19.19,10.86,3.72,2.65,8.37,5.93,5.56,10.89-1.76,3.1-7.94,3.51-11.18,3.13-1.21-.14-6.12-2.01-6.33-1.76-.23.27.02,5.78-.27,7.19-1.75,8.36-7.15,7.31-13.23,3.61l-4.49-4.8c-1.24,4.32-1.48,9.97-6.56,11.12-4.46,1.01-9.75-2.39-11.45-6.6-.53-1.31-.99-5.5-1.17-5.73-.42-.52-5.15,1.62-6.32,1.77-6.63.89-14.06-4.12-11.99-11.39.9-3.14,5.91-8.53,8.42-10.77.74-.66,2.94-1.47,2.68-2.64-.11-.47-1.34-1.27-1.78-1.85-14.42-19.14-23.76-38.26-34.88-59.23-1.28-2.41-2.66-5.02-3.49-7.61-.91-.23-.98.2-1.5.6-2.15,1.63-4.46,4.26-6.59,6-12.27,10.03-26.25,17.47-39.86,25.48l1.2,1.17c8.32,5.36,19.65,9.4,27.55,15.03,2.77,1.98,2.04,4.03-1.21,3-2.55-.81-7.33-3.63-9.97-5.01-7.05-3.69-13.83-7.93-20.99-11.43-1.14-.31-4.78,2.5-4.95,3.29-.16.72.49,1.01.87,1.45,6.27,7.17,14.89,13.5,21.9,20.06,1.55,1.45,5.99,5.46,6.9,6.9.53.83-.14,1.67-.92,2.14-2.03,1.24-14.89-11.55-17.08-13.52-3.02-2.71-6.31-5.33-9.31-8.07-1.66-1.52-3.37-3.82-5.07-5.11-.35-.26-1.19-1-1.5-.6-.08.1-1.09,2.1-1.13,2.22-.16.5-.07.96.18,1.41l19.68,33.74c.77,3.77-2.84,1.98-4.93.69-6.41-8.65-10.75-18.87-16.31-28.05-2.7-4.46-1.74-2.55-3.46-.08-.73,1.04-2.29,1.41-2.38,1.53-.26.36.66,3.2.58,4.45-.31,5.23-4.22,10.99-8.81,13.39-5.53,2.88-15.3,2.9-20.28-1.1-3.78-3.03-4.4-5.72-3.91-10.51.32-3.19,2.3-6.48,4.21-8.97.57-.75,2.77-2.4,2.81-2.97.07-1.16-.83-3.56-.97-4.86-.27-2.47,1.09-5.35-2.03-4.35l-31.39,12.38c-1.86.51-5.33-.61-4.11-2.92.5-.93,5.18-3.09,6.5-3.69,8.43-3.87,19.64-8.17,28.44-11.14.47-.16,1.27-.07,1.35-.13.12-.09-.5-2.88-.6-3-.37-.44-9.61,2.4-11.15,2.34-6.9.55-14.16,3-20.96,3.62-1.12.1-4.69.44-5.05-.86-.65-2.31,3.68-2.75,5.26-3.13,10.07-2.42,20.6-3.3,30.71-5.56.26-.2-.54-3.1-.89-3.61-.64-.93-6.84-.68-8.43-.6-4.1.21-9.06,1.08-13.15,1.24-2.31.09-12.2.34-13.51-.31-.82-.41-1.88-2.24-.84-2.71,2.36-1.07,4.7-.39,7.16-.58,7.36-.55,14.79-1.18,22.14-1.83.91-.08,4.34.19,4.51.02,1.18-1.17-8.8-18.67-9.59-21.58-.91-.23-.98.2-1.5.6-4.83,3.66-9.03,8.77-13.47,12.91-3.47,3.24-7.4,6.28-10.82,9.56-8.88,8.49-16.76,18-25.75,26.39,3.76,2.92,9.65,6.03,8.11,11.72-.08.3-.92,2.13-1.04,2.25-1.13,1.11-6.88,1.48-8.59,1.34-1.54-.13-5.4-1.6-6.3-.94-1.59,1.16-.65,14.78-6.4,17.59-6.43,3.14-12.54-1-16.67-5.86-.6-.71-2.21-3.63-2.43-3.65-1.84-.19-7.67,4.65-11.39,4.83-3.27.16-8.66-2.35-9.98-5.55-1.67-4.08,1.76-10.28,1.33-10.62-.2-.16-3.95-.63-4.82-.88-4.03-1.12-11.04-4.04-10.81-9.02.4-8.58,18.54-11.54,25.16-12.94,3.69-13.38,8.84-26.67,14.14-39.51,7.53-18.26,16.28-36.82,26.78-53.54,10.41-16.58,22.52-32.09,35.23-46.92-6.31-11.63-9.13-24.78-9.57-38-3.85,3.98-7.63,13.02-13.6,14.27-2.79.59-7.81.4-9.7-2.06-1.49-1.94-1.22-6.14-1.87-6.82-.26-.27-3.04,1.05-3.92,1.17-2.61.35-8.04-.03-9.88-2.05-3.7-4.06,2.17-10.76,1.22-11.71-.12-.11-2.46.06-3.26-.04-5.74-.77-11.18-1.74-10.54-8.67,1.16-12.65,26.08-22.52,35.86-27.97.98-3.26,1.32-6.68,2.35-9.94,7.64-24.18,29.97-46.56,51.9-58.39,20.84-11.24,53.91-18.41,77.42-19.68,2.65-.14,17.51.5,18.25-.03.35-.25,2.11-7.09,2.31-8.18,3.18-17.44-3.62-34.47-6.39-51.47-5.71-34.96-.16-71.67,27.5-95.86,5.67-4.96,12.73-8.6,19-12.76,2.86-.73,8.75.56,7.89,4.27-5.85,12.9-13.19,25.05-17.91,38.46-3.84,10.93-6.54,24.44-7.2,35.96-1.81,31.68,15.62,57.82,12.57,90.49-.1,1.12-1.24,4.8-1.12,5.38.18.89,7.49,3.03,8.95,3.65,18.57,7.76,36.61,20.87,48.81,36.9,18.31,24.05,32.26,66.74,20.42,95.87-.6,1.46-4.55,8.14-4.44,8.62.14.64,2.31,2.27,2.95,3.07,3.29,4.11,6.31,8.47,9.59,12.59,3.96,4.98,12.9,12.49,10.72,19.7-.32,1.05-4.46,2.59-5.65,2.74-1.35.17-7.19-.23-7.46.03v-.05ZM264.89,11.92c-.42-.39-2.44,1.15-2.96,1.53-3.26,2.43-8.36,6.46-10.83,9.54-.47.59-.95.66-.31,1.52.3.41,3.99,2.98,4.82,3.57,2.1,1.49,1.63-.77,2.58-2.81,2.1-4.51,4.49-8.92,6.71-13.37v.02ZM253.96,31.24c-1.92-.88-4.89-4.62-7.06-3.46-.69.37-4.6,6.17-5.28,7.33-.46.79-3.43,6.49-3.1,6.79.23.2,3.25.77,4.06,1.04,1.13.37,7.67,2.91,7.93,2.56.08-.11.31-1.96.58-2.72.81-2.29,3.28-7.15,3.52-9.11.11-.92-.19-1.66-.65-2.42h0ZM248.7,49.1c-.12-.09-.87,0-1.33-.14-2.49-.84-9.68-3.66-11.73-1.55-.55.56-4.2,12.59-3.71,13.07.31.31,7.27-.1,8.71-.02,1.75.1,3.67,1.12,5.65.59.07-1.68,2.95-11.56,2.42-11.95h0ZM245.12,65.27c-.16-.16-2.55.11-3.32.02-1.22-.14-2.3-.71-3.57-.66-1.37.06-7.16,1.41-7.82,2.41-.13,1.97-1.57,12.39-.87,13.21.09.11.94-.51,1.52-.58,1.46-.18,3.55-.61,4.78-.66,1.4-.06,7.34,1.39,8.09.65.16-.16-.1-3.08-.02-3.92.16-1.67,1.92-9.76,1.22-10.47h0ZM243.32,83.85h-10.49c-.22,0-3.07,1.66-3.22,2.17-.38,1.26-.22,7.23-.09,8.94.11,1.46.95,2.88.62,4.48,4.33-1.15,8.71-1.38,13.19-1.2v-14.39h0ZM248.11,119.21c-.89-3.55-1.97-7.09-2.83-10.65-.3-1.27-.67-5.41-1.33-5.86-1.41-.98-11.73-.23-12.97,1.52-.72,1.01,2.65,13.86,2.75,16.2,2.77-1.08,5.26-.96,8.06-1.24,2.2-.21,3.83-1.15,6.33.03h0ZM241.22,139c3.51-.52,8.05.38,11.69,0-.4-1.99-3.1-15.5-3.95-15.61-1.87-.26-6.35-.15-8.3.07-.83.09-5.34,1.43-5.71,1.79-.45.43,2.08,10.53,2.34,12.3.1.7-.05,2.55.04,2.66.35.37,3.29-1.11,3.89-1.2h0ZM255.9,159.37c.62-.65-1.46-15.28-2.36-15.92-.65-.46-6.84-.39-8.15-.28-1.02.09-7.1,1.45-7.47,1.83-.32.32.56,2.45.61,3.27.1,1.44-.32,8.39-.02,8.71.25.27,1.57-.51,2.13-.57,1.57-.18,5.32.38,7.02.71,1.3.25,7.94,2.57,8.23,2.26h0ZM255.85,163.62c-.28-.4-8.19-2.88-9.28-3.01-3.21-.37-6.1.35-9.24.58-.13,2.89-1.06,5.63-1.81,8.38l18.83,3.58c1.49-.83.77-2.46.99-3.84.19-1.24,1.17-4.76.51-5.68h0ZM317.04,324.21c1.3,1.36,8.22-5.29,9.25-6.63,10.95-14.21,4.49-46.14-.55-62.31-17.19-55.22-63.67-84.43-121.11-79.13-43.77,4.04-87.32,18.89-109.49,59.54-4.58,8.4-10.45,23.33-5.79,32.39,1.6,3.1,5.99,7.04,9.73,6.42.45-.07,4.1-6.3,5.15-7.53,5.23-6.08,15.81-11.58,23.72-12.85.71-.11,2.48.11,2.63-.06.14-.15.67-2.98,1.11-3.98,3.33-7.59,13.08-17.74,19.59-22.96,1.43-1.15,5.48-3.67,7.14-3.59.49.02,4.37,1.05,4.5,1.24,2.09,2.99-6.9,10.87-8.93,12.86-4.62,4.53-9.31,7.84-12.25,14.12-2.38,5.07,1.35,3.96,5.24,6.05,14.87,8.01,22.74,30.34,23.8,46.33.15,2.24-.54,14.19-.02,14.71.69.69,16.63-.23,19.5-.02,9.61.7,20.65,3.88,29.47,7.69.78.34,5.95,3.38,6.17,3.11.1-.12-.06-1.44.05-2.05,3.33-19.36,17.41-40.24,35.5-48.41,11.77-5.32,25.88-6.07,37.17.82.85.52,4.42,3.72,4.6,3.49.88-1.1-1.31-14.6-1.96-16.92-1.53-5.52-4.78-10.26-6.73-15.45-1.4-3.73-2.48-8.87,3.5-7.09,2.12.63,5.78,6.67,6.84,8.74,5.06,9.9,7.61,21.67,6.76,32.84-.12,1.57-1.23,4.62-1.1,5.89.12,1.13,2.68,5.16,3.34,6.81,2,5.05,3.43,11.8,3.76,17.22.1,1.59-.99,8.34-.62,8.72h.03ZM160.55,320.57c.58-.6-.51-3.42-.57-4.43-.59-9.55.47-17.03-2.07-26.7s-12.12-30.05-23.99-30.01c-18.47.07-31.39,20.9-32.68,37.49-1.09,14.03,5.65,39.75,17.09,48.88,2.33,1.85,1.77,1.29,2.58-.42,1.1-2.33,5.31-9.84,8.09-9.64.8.06,3.11.58,3.36,1.42,1.08,3.69-4.38,11.19-6.05,14.81-8.95,19.39-10.07,50.23-3.79,70.56,5.84,18.92,22.27,38.97,24.25,58.47.33,3.26-.02,6.59.64,9.85,3.71-.73,6.62,1.84,10.15,1.75,3.22-9.84,9.58-15.74,17.82-21.43,12.67-8.75,26.64-15.63,38.86-25.27,19.01-15.01,36.16-38.07,42.69-61.6,2.15-7.75,2.94-15.96,5.1-23.68,1.44-5.14,6.86-.66,7.52,2.99.29,1.61-.4,3.33,1.03,4.36,9.81-7.2,19.98-13.98,26.19-24.76,7.95-13.8,10.95-29.8,6.05-45.24-2.43-7.67-6.69-14.93-15.44-15.73-24.32-2.23-44.33,18.29-51.12,40.02-.81,2.59-2.26,10.05-1.86,12.37.12.71,1.5,1.22,1.53,1.84,0,.19-.38,2.57-.47,2.67-.9.92-4.79.42-6.09-.09-7.41-2.93-14.76-7.65-22.46-10.5-10.13-3.75-25.72-5.71-36.3-3.6-1.49.3-2.67,1.5-3.72,1.67-3.35.55-7.33,1.04-10.44-.37-.67-.3-1.95-.74-1.77-1.62.89-4.39,4.51-2.66,5.87-4.06h0ZM77.28,266.07c-.3-.35-4.82,2.08-5.59,2.5-4.24,2.32-9.71,5.72-13.55,8.62-1.79,1.36-8.87,7.34-8.43,9.55.15.77,4.17,1.38,5.13,1.47,2.69.25,9.34-.55,10.36,2.83.88,2.91-2.22,6.91-3.5,9.5l6.11-3.48c2.1-1.1,8.13-.09,9.18,1.97.77,1.51.04,4.27.29,6.01,1.84-1.86,3.61-4.52,4.9-6.78,3.33-5.79,5.79-12.17,8.88-18.09,0-.47-1.05-.34-1.82-.58-4.12-1.24-8.38-4.38-10.29-8.29-.52-1.07-1.41-4.91-1.68-5.22h.01ZM338.02,362.57c1.14-1.37-6.63-10.18-.76-11.85,2.61-.74,5.49-.68,8.14-.02,1.05.26,2.64,1.2,3.71,1.68.35-.36-.39-1.44-.63-1.77-3.83-5.34-9.45-9.77-13.46-15.31-.91-1.26-4.61-8.07-5.09-8.07-.15,0-2.02,1.21-2.7,1.47-3.83,1.44-7.83,2.37-11.96,2.13.22,2.68-3.92,8.66-4,10.44-.08,1.99,1.64,9,2.31,11.26.84,2.84,4.89,13.17,6.74,14.84.54.49.72.92,1.22,0,1.52-2.78-.25-8.54,2.5-9.49,2.94-1.01,5.56-.93,8.3.47,1.13.58,5.45,4.49,5.67,4.21h.01ZM116.24,353.59c-.14-.09-1.1.04-1.76-.32-2.93-1.6-5.57-5.28-8.12-7.47-24.29,27.13-44.85,57.24-57.71,91.54-2.99,7.99-5.21,16.27-8.07,24.3-2.05,5.76-4.83,14.74-7.76,19.81-2.54,4.39-4.73,3.64-8.91,4.88-3.69,1.09-13.25,3.7-14.96,7.22-.52,1.08.75.89,1.34,1.04,3.61.9,8.48.58,11.86,1.94,7.3,2.94,3.08,6.15,1.48,11.1-.23.72-1.14,3.9-.89,4.2s5.8-3.43,6.55-3.93c2.11-1.41,3.56-3.66,6.79-3.16,6.3.97,7.06,6.6,10.37,10.65,1.55,1.89,1.96,2.39,3.53.02,1.92-2.9,1.9-11.85,2.73-15.85,1.21-5.83,10.14-.1,13.51.26.78.08,2.7-.03,2.66-.87-.03-.71-9.88-6.23-10.71-9.11-.71-2.46,2.32-3,3.5-4.11,15.97-15.01,31.35-32.02,47.37-47.34,1.23-1.18,7.38-5.66,7.14-7.08-8.99-19.45-7.18-41.18-4.09-61.79-.13-2.04,4.83-15.46,4.15-15.92h0ZM306.85,537.6c.39-3.52-2.44-6.87-1.68-10.37.73-3.35,4.68-2.65,7.25-2.08,3.73.82,7.79,4.16,11.66,2.4,3.11-1.41-.32-3.19-2.04-4.23-5.46-3.27-12.41-5.58-17.55-9.42-4-2.98-4.03-7.26-4.24-11.93-1.2-26.63.42-53.14-.56-79.77-.65-17.57-2.08-35.29-3.58-52.77l-.34-6.26c-1.54,1.67-3.3,3.13-5.14,4.45-5.15,3.69-13.31,8.81-19.49,9.89-.6.11-1.94-.06-2.04.04s.05,1.44-.05,2.04c-3.33,19.65-14.5,40.26-27.53,55.2-1.09,1.25-5.44,4.86-5.43,5.99,7.93,12.76,14.86,26.19,22.92,38.86,4.08,6.42,8.82,12.43,12.99,18.78,2.12,3.23,9.56,14.19,9.46,17.31-.01.41-.25.74-.44,1.08-3.48,3.72-9.15,7.36-11.45,11.97-1.39,2.78-1.68,3.27,1.14,2.34,3.7-1.22,9.02-4.94,12.77-2.21,2.01,1.46,3.75,9.48,4.68,12.11.17.47,1.06,3.03,1.91,1.98.11-.14.95-2.9,1.07-3.43,1-4.35.37-17.12,7.28-13.6,3.3,1.68,4.94,5.87,6.53,9.05l1.91,2.58h-.01ZM146.03,496.35c-2.64.57-7.89,4.66-8.06,7.48-.22,3.66,4.77,9.3,8.43,8.49,2.18-.48,7.37-6.3,7.61-8.62.12-1.15-1.04-5.83-1.8-6.57-1.18-1.13-4.62-1.12-6.19-.78h0ZM150.43,299.92c-.96-12.95-6.45-31.27-21.95-32.04-1.3-.06-4.74,1.09-6.06,1.67-17.91,7.99-16.47,43.74-10.84,59.02.91,2.47,2.99,8.16,5.67,8.72,1.1.23,3.87.15,3.81-1.39-.09-2.1-3.36-7.48-4.25-10.17-4.21-12.73-4.99-31.61,1.37-43.63,2.35-4.45,8.82-12.21,14.44-9.34,7.24,3.7,9.42,15.17,11.15,22.42l1.31,11.87c.53,1.68,4.54,1.93,5.26.92.23-.33.15-6.97.07-8.06h.02ZM299.62,306.57c-1.67-14.64-15.83-21.18-28.9-15.79-6.99,2.88-16.93,14.29-19.34,21.42-.52,1.55-1.24,4.14.72,4.72,4.91,1.47,4.35-2.2,5.94-5.25,3.24-6.2,12.06-15.73,18.83-17.74,15.74-4.67,17.8,11.03,16.81,22.8-1.08,12.84-12.44,26.45-21.02,35.32-.78.81-4.38,2.33-1.36,3.81,3.04,1.49,5.99-.84,8.31-2.87.81-.7,3.42-3.46,4.25-4.4,10.02-11.36,17.54-26.43,15.76-42.03h0ZM182.91,428.67c.91,5.38,8.77,3.35,12.6,2.08,4.03-1.34,11.47-7.79,9.15-12.44-.44-.89-3.36-2.75-4.33-2.91s-1.58.47-2.34.5c-.67.03-1.36-.37-1.74-.32-5.5.68-14.38,6.99-13.34,13.09h0ZM142.66,413.78c.41,3.6,3.05,8.64,5.98,10.8,1.21.89,4.8,2.45,6.17,2.06.85-.25,3.63-3.66,3.88-4.54,1.05-3.63-1.21-12.31-4.36-14.6-.48-.35-3.88-2.16-4.33-2.27-.93-.22-1.85-.21-2.78,0-3.8.86-4.95,5.18-4.57,8.54h.01ZM238.82,337.39c-2.06,2.84.62,4.99,3.51,4.12,1.99-.6,6.05-8.67,7.1-10.89.89-1.88,1.98-4.32,2.75-6.25.35-.89,1.47-3.68,1.07-4.36-.77-1.29-3.87-2.23-5.02-1.08l-9.41,18.45h0ZM250.4,341.19c-.88,1.48-4.04,5.34-3.94,6.72.12,1.64,3.9,1.86,5.25,1.18,2.13-1.07,8.43-12.01,7.75-14.33-.24-.83-2.99-1.71-3.76-1.5-1.7.47-4.28,6.2-5.3,7.93h0ZM170.34,354.63c-.37,1.12-1.27,4.79-1.2,5.75.09,1.36,1.87,4.71,3.22,5.12,2.81.85,1.53-2.25,1.59-3.12.18-2.35,1.77-6.24,3.16-8.18.98-1.36,2.84-2.01,2.69-3.89-.09-1.22-1.43-3.16-2.72-3.15-2.66.01-5.97,5.14-6.74,7.47ZM134.26,321.47c.25,2.2,2.14,8.03,4.15,9.03,1.37.69,4.11.68,4.24-1.2.12-1.74-2.32-8.51-2.89-10.93-.39-1.67.28-4.06-2.25-4.38-.63-.08-3.03.4-3.23.68s-.12,5.84,0,6.8h-.01ZM149.21,310.12c0-1.15-4.99-1.85-5.4,1.19-.51,3.78-.59,7.48.14,11.26.78,4.08,5.33,4.69,5.76,1.22.08-.62-.5-.96-.5-1.09-.19-4.11,0-8.45,0-12.59h0ZM255.26,354.48c.17,2.07,3.15,1.86,4.57.93,1.14-.74,4.7-6.34,5.37-7.81.28-.62,1.51-4.17,1.45-4.44-.26-1.19-3.26-1.85-4.39-1.5-1.23.39-7.12,11.32-7,12.82ZM125.83,324.55c-.27,3.03,3.4,9.46,6.41,10.34,1.5.44,5.39.04,4.96-1.93-.07-.31-3.34-3.6-4.08-4.95-.89-1.63-1.41-5.33-3.38-5.61-.6-.08-3.01-.11-3.26.06-.09.06-.63,1.75-.66,2.08h.01ZM188.28,365.76c-.32-1.1-.25-3.99,0-5.17.51-2.39,2.83-2.74.76-5.78-1.18-1.73-1.96-2.18-3.59-.65-3.58,3.38-2.36,15.33,2.69,16.55.32.08,1.76-.28,1.82-.35,1.06-1.09-1.45-3.81-1.68-4.6h0ZM196.84,359.6c.91,3.22,6.96,10.74,10.69,10.08,1.51-.26,2.68-1.3,1.92-2.91-1.38-2.95-2.6-1.93-4.72-3.08-.61-.33-2.4-2.03-2.79-2.6-1.12-1.63-1.15-5.8-3.36-6.24-.23-.05-1.89.51-1.96.58-.35.36,0,3.38.23,4.17h0ZM47.52,488.95c1.76-.5,4.59-7.45,2.82-8.63-4.43-2.94-7.68,7.03-5.98,8.68.2.19,2.59.11,3.16-.05ZM38.53,487.75c3.24-.96,6.67-9.88-.4-6.99-1.19.49-4.3,6.24-3.4,7.08.14.13,3.21.08,3.8-.09ZM290.04,516.37c.57.15,1.42-.28,1.84-.64.9-.79.25-.87-.11-1.7-.86-1.97-4.29-7.05-6.76-6.38-3.4.92,2.29,7.99,5.03,8.72h0ZM293.05,507.9c.05,2.44,3.3,8.32,6.3,7.51,1.12-.3.56-1.05.47-1.63-.41-2.43-2.72-8.25-5.82-7.33-.52.15-.96.85-.95,1.45h0Z"/>
  </g>
</svg>