<?xml version="1.0" encoding="UTF-8"?>
<svg id="Layer_2" data-name="Layer 2" xmlns="http://www.w3.org/2000/svg" viewBox="0 0 450.42 527.5">
  <defs>
    <style>
      .cls-1 {
        fill: #fff;
        stroke: #fff;
        stroke-miterlimit: 10;
      }
    </style>
  </defs>
  <g id="animal">
    <path class="cls-1" d="M198.85,38c2.29-.39,5.88.44,8.12,1.21,1.97.68,7.44,3.21,8.51,4.67,4.83,6.56,3.35,16.16-4.25,19.68-6.86,3.17-17.95.48-21.32-6.69-3.42-7.29.69-17.48,8.94-18.87ZM331.63,218.13c-4.43,12.76-7.89,25.9-13.24,38.33-.69,2.93,3.91,5.42,5.44,2.42,1.36-2.68,2.84-6.92,3.93-9.86,3.18-8.6,7.31-19.46,9.58-28.18.47-1.82,1.21-4.58.67-6.37-.26-.87-3.87-2.47-4.12-2.17-.2.24-1.96,4.99-2.26,5.84h0ZM219.7,262.64c-4.33-10.16-13.33-29.18-20.36-37.18-1.37-1.56-5.06-5.38-7.17-4.75-3.42,1.02,2.68,6.12,3.52,7.2,9.53,12.24,15.56,29.85,21.99,43.94.46,1.46,3.79,2.51,4.69,1.55,1.17-1.24-1.91-8.97-2.67-10.76h0ZM301.25,39.63c-.76-1.06-13.52-4.14-15.79-4.59-9.95-2-22.3-1.67-31.91,1.92-1.9.71-6.37,3.02-3.22,5.04s5.04-.32,7.7-1.15c7.43-2.31,16.91-3.26,24.56-2.34,3.03.37,17.46,4.9,18.92,3.55.12-.11.07-1.97-.26-2.43ZM158.52,117c4.1,5.23,6.65,12.73,10.52,17.68,1.18,1.52,3.05,3.35,4.83,1.79.78-.68,0-1.85-.33-2.7-1.6-4.14-8.45-16.31-11.73-18.84-1.52-1.18-5.17-3.04-5.15-.04,0,.33.31,1.11.55,1.36.26.27.96.3,1.31.74h0ZM314.38,315.97c-.65.95-3.47,2.72-1.5,3.94.88.54,3.89.46,4.82-.01,1.54-.78,4.22-5.07,5.28-6.71,1.04-1.61,3.72-5.49,3.75-7.08.03-2.31-1.89-2.58-3.85-2s-7.01,9.69-8.51,11.87h.01ZM356.79,270.26c-1.69,4.18-2.07,10.45-3.54,14.88.11,1.66,4.68,2.11,5.52.89.76-1.09,2.35-7.66,2.64-9.35.22-1.29.86-5.53.57-6.48-.34-1.1-2.64-1.81-3.73-1.5-.65.18-1.21.94-1.46,1.56ZM176.51,118.82c1.21,5.16,6.67,11.46,8.44,16.74.31.86,4.31,2.61,4.48,2.42.89-1.02.14-3.07-.3-4.2-2.02-5.16-5.58-10.22-7.63-15.44-1.38-1.31-5.69-2.52-4.98.49h0ZM212.09,313.4c-.54-2.26-4.12-10.51-5.36-12.62-1.39-2.36-5.98-3.95-5.81-.81.1,1.95,4.15,12.06,5.38,13.83.59.85,1.27,1.59,2.28,1.92.71.23,3.39.5,3.63.27.13-.12.02-2.04-.11-2.59h-.01ZM188.74,200.02c-1.84-4.96-1.71-11.92-3.64-16.67-.34-.85-2.88-3.46-3.77-3.46s-2.13,1.17-2.01,2.02c.17,1.25,1.2,3.47,1.55,5.07.58,2.73,1.73,10.85,3.31,12.58.88.96,3.7,2.22,4.56.46h0ZM341.39,286.03c1-3.43,6.28-10.4,6.33-13.5.04-2.31-1.9-2.58-3.85-2-2.39.71-7.82,12.55-8.19,15.48,1.66.4,4.43,1.34,5.71.02h0ZM247.08,112.38c.5,1.77,5.7,11.27,6.97,13.41,1.04,1.76,4.05,6.2,5.84,3.19.69-1.17-6.45-14.89-7.84-16.77-.37-.5-1.64-1.91-2.07-2.13-.62-.31-2.8-.5-3-.29-.12.12-.04,2.06.11,2.59h-.01ZM204.75,322.58c-.51-.87-4.03-2.89-5.15-3.87-.96-.85-2.12-2.05-2.98-3.01-1.78-2-3.24-5.7-6.3-5.66-1.88.02-2.43.82-1.98,2.55.69,2.68,8.23,10.07,10.86,11.32,1.37.65,3.88,1.61,5.11.37.2-.2.65-1.35.45-1.7h-.01ZM190.17,280.18c-.63-2.18-1.27-7.49-3.15-8.84-1.23-.88-4.12-1.55-4.23.6.62,3.02,1.84,12.63,4.24,14.38.7.51,4.32,1.31,4.77.88,1.1-1.05-1.2-5.53-1.63-7.02h0ZM273.48,120.75c-1.08-2.64-10.01-13.95-12.39-15.18-2.25-1.16-2.08-.69-2.74,1.54,1.23,2.21,3.48,4.22,5.07,6.32,1.73,2.28,5.97,9.78,8.1,10.48.57.19,2.2.49,2.43.27.36-.36-.16-2.67-.47-3.43ZM336.55,302.77c-1.1,1.54-5.22,6.38-5.6,7.62-.8,2.65,3.87,3.46,5.91,1.68.41-.36,2.26-2.7,2.69-3.3,1.1-1.55,4.35-7,3.88-8.62-.36-1.26-3.3-1.17-4.37-.85-1.34.39-1.77,2.44-2.52,3.47h0ZM281.14,109.49c1.05,1.32,2.77,4.02,3.45,5.54s1.57,7.57,4.97,5.28c2.49-1.68-2.13-8.74-3.37-10.47-1.56-2.16-5.98-8.08-8.9-7.2-3.33,1,2.91,5.69,3.85,6.86h0ZM191.93,117.88c0,.2,1.3,3.19,1.56,3.73,1.01,2.04,5.29,9.52,6.73,10.65.67.52,2.82,1.73,3.58,1.25.26-.17,1.07-1.02,1.09-1.22.1-1.43-6.67-10.66-7.17-13.11-.73-1.19-2.85-3.16-4.31-2.73-.39.11-1.47,1.13-1.49,1.43h.01ZM358.44,247.94c.32-3.13,2.3-8.86-1.74-10.21-1.78-.59-2.74-.36-3.32,1.5l-.84,11.66c.52,1.4,5.08,1.62,5.9.93.23-.19-.08-3.03.01-3.89h-.01ZM180.51,148.36c3.57,4.12,4.26,12.2,9.19,14.8,2.12,1.12,3.02.32,2.63-2.02-2.92-3.43-4.22-9.65-6.81-12.97-.37-.47-2.68-2.25-2.97-2.26-.83-.04-2.65,1.35-2.03,2.46h-.01ZM290.79,176.55c.17,1.03,2.42,4.53,3.05,5.95,1.11,2.5,2.42,7.06,4.36,8.83,1.48,1.35,2.74,1.59,3.77-.3-1.34-3.63-2.53-7.7-4.32-11.13-1-1.92-3.5-5.5-6-4.76-.44.13-.96.81-.86,1.41h0ZM236.78,92.11c1.63,1.97,7.22,10.02,9.88,9.29.44-.12.94-.93.93-1.51,0-.5-3.5-5.08-4.22-5.98-2.54-3.2-5.51-6.1-8.38-9-.6-.35-1.43-.45-2.08-.26-3.34,1,2.98,6.39,3.86,7.46h.01ZM246.07,133.81c3.34-.26.41-2.97-.21-4.02-1.78-3-4.21-11.11-6.85-12.33-1.34-.62-2.72-.79-2.87,1.03-.16,1.96,4.66,11.67,6.2,13.32.57.61,2.84,2.07,3.73,2h0ZM268.04,140.58c1.41,2.26,6.11,8.72,7.87,10.41,1.99,1.92,6.25,4.4,4.94-.45l-8.86-11.82c-3.03-2.92-6.56-2.32-3.95,1.85h0ZM296.13,147.22c.14-1.53-3.97-7.61-5.15-9.21-1.43-1.94-2.88-3.99-5.06-5.16-.78-.42-2.77.88-2.33,2.34.19.62,2.61,3.08,3.21,4,1.65,2.5,4.01,7.75,6.35,9.24.29.18,2.29,1.03,2.37.93.07-.09.59-1.88.61-2.14h0ZM309,150.58c4.04.14-1.25-7.66-2.38-9.03-.77-.94-6.29-6.58-6.9-6.88s-2.82-.49-3-.3c-.1.11-.11,2.64.09,2.92.06.09,1.17.43,1.73.95,1.16,1.09,3.2,3.52,4.18,4.82,1.24,1.64,2.77,5.08,3.74,6.15.2.23,2.22,1.35,2.54,1.37h0ZM195.5,147.73c.14.82,4.11,8.58,4.81,9.63.84,1.26,3.69,4.28,5.33,3.12,2.43-1.71-.35-3.54-1.14-4.92-1.91-3.35-3.06-8.36-6.7-10.04-.08-.04-1.68-.42-1.74-.35-.2.23-.65,2.05-.57,2.56h.01ZM304.6,174.72c.23,1.18,3.74,7.77,4.6,9.21.64,1.07,3.3,5.25,4.56,4.96.45-.1,1.55-1.31,1.46-1.96-.21-1.59-4.13-9.35-5.19-11.02-.93-1.47-2.57-3.73-4.58-3.15-.83.24-1.01,1.13-.85,1.96h0ZM250.58,86.1c1.93,1.78,7.44,8.24,9.38,8.62.8.16,1.79-.08,1.99-.82.28-1-1.71-3.36-2.39-4.19-1.09-1.33-2.88-3.01-4.18-4.21-.95-.88-4.36-3.93-5.19-4.4s-1.84-.96-2.87-.65c-3.58,1.08,2.42,4.87,3.26,5.64h0ZM205.1,107.09c-.05.79,8.24,11.97,9.49,12.61,1.84.94,3.56.02,2.75-2.14-.74-1.98-6.42-9.82-8.16-11.03-.72-.5-1.68-1.13-2.57-.87-.38.11-1.5,1.17-1.51,1.43ZM147.45,117.88c.02,1.03,5,9.17,6,10.22,1,1.05,3.75,2.46,5.1,2.08.2-.06,1.17-.87.63-1.2-2-2.78-6.62-13.71-10.78-12.57-.48.13-.96.89-.95,1.48h0ZM216.73,149.93c-.5-1.75-3.65-7.4-4.86-8.92-.51-.64-1.78-2.15-2.45-2.34-2.51-.73-3.2,0-2.49,2.49.22.77,4.88,8.95,5.61,9.98.7.99,3.42,3.52,4.47,2.42.26-.27-.06-2.89-.27-3.62h0ZM220.61,99.89c2.18,2.07,4.61,5.18,6.87,6.92.44.34,2.83,1.78,3.01,1.78.75.02,1.07-1.76.82-2.61-.37-1.22-3.67-3.12-4.1-4.89-3.04-1.58-5.51-5.7-8.4-7.18-.65-.33-1.37-.47-2.07-.26-3.68,1.1,3.09,5.5,3.88,6.25h0ZM193.78,181.4c-.03.42,2.3,6.95,2.73,7.93.49,1.12,1.33,3.01,2.19,3.8,1.58,1.45,4.15,1.92,3.92-.89-.09-1.06-2.86-8.68-3.46-9.76-.57-1.02-2.8-2.85-3.95-2.51-.38.11-1.4,1.09-1.43,1.43ZM186.74,240.45c-2.1-2.29-5.3-2.22-5.1,1.46.07,1.19,1.37,6.72,1.89,7.74.65,1.27,4.38,3.05,5.27,2.18,1.17-1.14-1.72-9.4-2.07-11.38h.01ZM271.12,53.58c-2.32-.38-7.41.21-9.79.75-4.93,1.12-1.21,4.71,2.08,4.52,1.69-.1,4.27-.38,6.06-.58,1.22-.13,5.5-.7,5.67-1.55.06-.28-.52-1.76-.71-1.95-.24-.23-2.79-1.1-3.31-1.19ZM258.1,50.45c.85.04,9.17-1.55,10.04-1.91.63-.26,1.55-1.58,1.53-2-.05-1.25-3.22-2.1-4.41-2.13-1.31-.03-9.83,1.42-10.41,1.92-1.84,1.56,1.06,4.01,3.25,4.11h0ZM262.55,83.13c2.8,3.66,8.11,5.39,11.79,8,2.5.07,2.42-1.2,1.12-2.92-1.34-1.78-10.9-8.36-12.62-8.22-1.89.16-1.13,2.05-.29,3.15h0ZM238.05,54.26c.5,2.5,7.9,3.9,10.13,4.87,1.06.46,4.72,3.67,5.38,1.2.49-1.83-3.06-3.86-4.38-4.6-1.46-.82-9.77-4.28-10.58-3.46-.07.07-.59,1.8-.55,1.99ZM250.29,70.81c-.68-1-7.57-3.19-9.31-3.87-1.16-.46-5.08-2.97-5.99-2.09s-.07,2.75.97,3.52c1.57,1.16,8.45,4.17,10.38,4.6.83.18,3.93.54,4.23.27.14-.13.06-1.93-.28-2.42h0ZM318.38,172.95c.67,1.2,4.56,7.17,5.29,7.9,1.63,1.64,4.27,2.03,3.52-1.12-.54-2.28-4.56-8.27-6.48-9.71-.67-.5-.99-1.18-2.1-.89-1.54.41-.8,2.77-.22,3.81h0ZM265.27,61.86c-2.45.36-4.75,2.46-1.69,4.05,2.33,1.21,2.82.14,4.65.11,1.6-.03,7.8.6,8.1-.91.05-.26-.56-1.85-.7-1.96-1.18-1-8.6-1.54-10.37-1.28h.01ZM204.03,272.92c-3.15-.94-3.4.6-2.46,3.06s2.5,6.28,5.06,6.92c.54.14,2.37.28,2.56.09,1.62-1.57-3.3-9.52-5.16-10.08h0ZM286.64,15.88c-2.78-4.56-6.15-7.24-11.09-9.29-7.39-3.08-24.62-4.71-32.45-3.44-5.63.91-11.34,3.75-16.33,6.44-1.64.88-4.82,3.68-6.47,3.69-1.64,0-8.64-3.3-10.94-4.03-14.49-4.58-29.68-7.46-44.77-8.57-10.05-.74-20.01,1.01-29.99.62-11.87-.46-36.12.99-37.5,16.49-.4,4.53,1.98,8.84,1.81,11.97-.14,2.6-3.22,9.94-4.03,13.39-2.81,11.97-3.28,24.15-1.93,36.36,1.44,12.97,6.57,29.23,20.19,33.76,7.42,2.47,10.1-.13,16.05,6.72,9.45,10.88,17.85,32.6,22.76,46.17,6.29,17.38,9.44,40.03,8.71,58.46-.74,18.64-5.6,37.02-4.23,55.74.14,1.93.97,4.26.93,6.32-9.66,19.65-17.04,41.14-18.31,63.17-.12,2.06.5,13.04,0,13.47-.09.07-1.48.18-2.19.5-20.82,9.66-32.15,45.61-30.71,66.92l1.76,11.12c-.86.83-11.97-1.99-13.92-2.56-25.11-7.29-46.74-26.55-48.44-54.06-3.29-53.16,30.28-96.32,38.93-146.94,2.45-14.34,3.27-31.07.51-45.35-3.08-16-15.9-40.41-31.62-46.9-5.4-2.23-16.9-4.08-22.36-2.58-2.06.57-2.64,2.43-2.82,4.43-.22,2.57,4.04,4.2,5.7,5.64,6.78,5.91,10.78,11.77,13.95,20.21,24.37,64.93-24.29,114.88-41.53,173.38-13.03,44.21-5.39,92.06,36.08,117.39,20.01,12.22,47.86,19.98,71.21,21.1,3.96.19,13.09-.82,16.11.08,1.01.3,4.79,4.79,6.09,5.9,8.63,7.41,14.41,8.66,21.39,18.77,11.54,16.75,32.41,17.75,51.18,16.02,9.67-.89,24.15-3.62,24.87-15.92.18-3.01-4.33-17.55-3.62-18.28.26-.27,1.57.52,2.13.57,1.79.17,3.6-.12,5.38.01,19.7,1.4,39.56,2.67,59.29.58l12.32-1.76c-3.14,8.58-4.81,17.37,5.39,21.29,19.18,7.37,40.25-.65,59.68-3.27,9.06-1.22,20.89-2.44,29.95-1.85,7.26.47,12.9,4.47,19.92,6.45,5.52,1.56,10.06,2.71,15.75,1.08,4.74-1.36,7.88-3.8,9.42-8.56,5.11-15.8-8.81-25.61-22.49-28.76l-10.92-1.66c21.71-18.36,37.17-48.17,29.08-77.03-2.6-9.29-8.96-19.42-15.29-26.67-5.3-6.07-12.01-10.4-18.51-15.06.37-26.89-6.82-54.43-19.74-77.96-1.45-2.63-6.92-10.25-6.7-12.42,1.78-17.14-4.09-36.84-13.53-51.27-3.84-5.88-9.72-11.41-13.37-17.2-4.15-6.58-8.14-17.23-11.96-24.6-12.66-24.41-26.26-48.77-41.82-71.47-5.42-7.9-11.28-15.97-17.64-23.12.19-.59,1.53-.34,2.06-.26,8.04,1.16,19.21,3.24,26.88.43,15.88-5.82,14.18-24.22,7.74-36.84-6.97-13.65-17.86-18.44-31.86-22.69-.73-.22-2.05-.15-2.33-.35-.18-.12-1.29-3.14-1.77-3.93h-.03ZM143.87,37.56c3.92-4.76,12.51-10.73,10.52-17.71-.99-3.44-6.36-9.33-8.72-12.26.66-.37,2.02-.79,2.73-.86,6.49-.66,16.11.74,22.7,1.81,21.45,3.48,43.06,12.42,61.69,23.42,1.1.65,1.71,1.79,2.96,2.44.93.49,3.96,1.54,4.96,1.65,4,.45,4.66-2.22,7.16-4.18,4.05-3.18,11.73-7.18,16.82-7.75,9.05-1.03,31.28,1.9,38.32,7.75,5.51,4.58,11.24,20.24,10.45,27.24-.49,4.3-5.21,14.03-9.87,14.71-6.7.98-16.58-.8-23.4-1.75-2.34-.32-3.98-.75-6.08-1.11-.71-.12-4.36-.67-4.58-.62-.12.03-2.04,1.06-2.11,1.16-.99,1.4,1.16,3.65,2.48,4.26,1.38.64,3.15.67,4.64,1.36,2.55,1.17,3.5,4.09,5.13,6.25,22.01,29.11,40.04,60.99,56.12,93.73,3.68,7.51,7.53,18.58,11.96,25.2,1.1,1.64,2.93,2.79,4.11,4.28,10.09,12.8,18.7,30.22,19.8,46.74,2.02,30.47-6.68,50.64-31.22,68.31-9.95,7.16-18.89,9.57-28.13,18.62-2.84,2.78-5.67,5.53-8.1,8.68l2.72-9.27c.48-1.84-.86-1.99-2.42-1.22-4.51,2.25-5.66,13.21-7.65,17.53-.83,1.8-3.71,4.36-4.75,1.69l5.84-19.21c-.06-.83-.6-1.55-1.54-1.52-3.66.1-6.34,9.5-6.89,12.61-1.04.03-.68-2.7-.61-3.31.8-6.97,4.04-16.15,8.15-21.82,1.15-1.6,2.9-3.12,4.11-4.88,4.1-5.93,5.62-14.7,8.44-21.53,3.41-8.25,8.18-16.27,11.28-24.74.36-.99-.19-3.09-1.15-3.37-7.6-2.22-9.66,7.26-12.11,12.34-4.93,10.24-8.12,19.31-12.4,29.55-2.6,6.21-6.07,8.23-9.54,13.23-5.74,8.26-8.3,20.76-6.07,30.56,1.04,4.59,5.73,10.45,10.82,10.2,1.71-.08,4.79-.44,6.56-.68,11.09-1.49,20.93-18.7,29.41-25.74,4.93-4.1,11.24-6.39,16.68-9.69,16.38-9.95,34.81-27.25,38.18-46.95.13-.78.36-1.97,1.19-.89,2.82,8.05,6.13,15.92,8.56,24.11,8.51,28.68,11.39,56.43,2.4,85.45-2.71,8.76-8.08,19.33-9.63,28.13-.66,3.76-.25,5.35,3.82,5.56,3.61.18,6.32-4.74,7.94-7.59,4.63-8.18,9.36-20.84,11.33-30.03,1.61-7.52,2.49-15.25,3.16-22.91,12.66,5.01,22.38,19.3,25.62,32.22,5.55,22.11-4.63,49.2-21.13,64.29-7.3,6.67-16.52,11.51-24.31,17.65-10.83,2.27-24.33,3.5-34.55,8.01-2.14.94-4.31,2.04-4.41,4.57-.03.74,5.04,2.21,6.18,2.03l39.11-8.01c9.15.41,19.59-1.42,28.73.37,3.07.6,6.23,1.86,8.04,4.54,3.93,5.8,4.02,12.9-3.21,15.79l-.33-6.86c-.32-2.46-2.78-5.79-4.79-7.2-1.55-1.09-5.56-2.93-7.06-1.42-2.38,2.4,3.06,3.55,4.08,4.4,2.96,2.47,1.83,7.14,1.81,10.48-.42.44-9.7-4.08-11.35-4.53-15.47-4.17-41.7-.02-57.72,2.89-9.56,1.73-22.6,5.96-31.94,5.26-1.07-.08-5.23-.77-5.9-1.18-1.86-1.15-1.88-8.42-1.57-10.51.16-1.08,2.22-5.87,2.96-6.63,1.44-1.5,7.26-2.23,9.63-2.96,5.96-1.84,19.62-6.71,23.04-11.72,2.94-4.31-2.19-6.05-5.86-5.26-4.67,1.01-11.79,5.45-16.6,7.38-21.86,8.73-55.5,9.8-78.84,8.71-11.86-.55-26.74-.33-37.28-5.88-1.74-.92-3.53-3.68-5.37-4.22-.92-.27-3.11-.26-4.1-.12-1.73.24-1.71,1.87-1.49,3.31.48,3.17,10.41,9.19,13.78,9.91-.54,2.83-.84,5.72-.54,8.63.72,7.05,7.23,15.1-2.27,18.79-1.43.55-2.97.66-4.35,1.34l-4.87-15.23c-.44-1.45-4.89-2.02-5.33-1.56-1.05,1.08,3.15,14.34,4.19,16.49-.73.51-2.42.41-3.31.32-1.83-.19-3.59-.96-5.62-.68-1.21-4.1-3.74-7.95-5.18-11.9-.73-1.99.12-4-3.08-4.72-2.37-.53-3.45.04-3.17,2.56.22,1.99,5.28,11.89,4.78,12.32-.9.77-6.64-1.92-7.77-2.72-2.03-1.45-5.57-5.45-6.74-7.64-.76-1.42-.94-3.1-2-4.59-3.67-5.19-13.88-10.46-19.16-15.01-31.89-27.51-46.49-83.15-10.5-113.6,3.38-2.86,3.07-.86,5.6-1.58,3.02-.86,3.79-4.61,4.02-7.38.81-9.68-.34-18.66,1.23-28.74,1.83-11.74,5.77-22.95,10.15-33.91,2,1.45,2.43,4.76,3.48,7.01,5.16,11.13,11.08,21.78,21.13,29.22,6.16,4.56,13.98,7.36,20.3,12.07,9.89,7.36,18.73,22.42,32.88,17.81,5.64-1.84,11.53-4.68,13.17-10.81,1.75-6.54-1.55-17.88-4.34-24.12-1.31-2.92-3.02-4.57-4.41-6.98-6.73-11.73-6.76-27.53-12.37-39.78-2.06-4.5-7.02-8.98-10.5-3.31,1.95,6.65,4.05,13.26,5.84,19.96,1.91,7.18,2.76,14.21,5.69,21.28,2.09,5.04,5.98,9.23,7.96,14.22,1.77,4.47,2.16,9.04,2.7,13.78-1.52.27-1.06-.25-1.47-1.2-.77-1.74-1.32-3.79-2.45-5.37-1.06-1.48-5.44-5.92-5.71-2.12l6.54,14.47c1.64,2.35.17,4.06-1.24,1.24-1.68-3.37-2.72-7.54-4.99-10.6-.8-1.09-3.41-3.95-4.69-3.57-.37.11-1.45,1.15-1.47,1.44-.03.5,4.12,7.34,4.8,8.89.35.81,1.37,2.63.78,3.41-8.53-6.44-16.21-13.96-25.28-19.67-4.56-2.87-9.5-4.97-13.68-8.5-11.74-9.89-23.88-36.8-26.03-51.89-2.32-16.29,4-32.29,4.78-48.5,1.83-37.98-10.73-74.33-29.28-106.82-2.22-3.89-6.06-10.13-10.14-12.04-5.57-2.6-11.75-1.33-16.9-5.27-2.58-1.97-8.11-8.36-9.02-11.36-.32-1.04.14-.86.89-.89.91-.04,3.84.27,4.39.71.35.28,2.13,6.62,3.42,8.28,1.02,1.31,5.46,3.46,7.15,3.64,7.36.77,10.44-.59,12.93-7.49.38-1.06,1.02-4.91,1.18-5.12.21-.27,5.24,1.13,6.28,1.22,6.46.56,12.2.06,16.5-5.11,1.72-2.07,7.26-11.36,6.54-13.71-.4-1.3-3.62-2.08-4.77-1.3-2.34,3.13-3.62,7.33-5.69,10.49-1.68,2.57-4.65,4.99-7.8,5.39-5.67.73-15.81-.92-20.08-5.04-3.68-3.56-3.62-6.07-4.18-10.8-.07-.61-.59-1.11-.59-1.21v-18.88c10,1.01,15-9.95,20.38-16.49l-.05-.06ZM135.5,7.58l9.49,12.68c2.43,4.33-4.54,8.9-7.11,11.9-2.23,2.6-12.56,16.8-15.18,16.42-1.25-.18-5.97-4.97-6.99-6.22-3.56-4.36-7.16-12-8.25-17.52-.22-1.14-.82-4.87-.74-5.81.68-7.67,14.55-10.94,20.83-11.58,1.74-.18,6.67-.54,7.95.13h0ZM266.47,15.67c-6.36.34-12.89.8-18.72,3.5-1.53.71-7.22,4.8-7.68,4.8s-6.52-4.13-7.68-4.8c-1.45-.84-4.03-.99-2.2-2.57,4.81-2.58,9.61-5.85,14.95-7.23,5.88-1.53,16.22-1.23,22.23,0,2.77.56,5.49,1.91,7.07,4.32.32.49,1.6,2.91,1.29,3.21-.34.32-7.96-1.08-9.27-1.21v-.02ZM108.51,47.76c1.33,1.54,4.04,4.01,5.77,5.02,1,.59,2.85.59,3.16,1.64.37,5.35-.26,10.79.05,16.14.15,2.66,1.52,7.77,1.21,10.15s-3.78,7.69-6.29,8.12c-1.41.24-6.29.23-7.24-.56-1.17-.97-2.33-6.98-2.61-8.78-1.25-7.97-1.2-15.28-.61-23.29l2.36-12.92c.83-.94,3.71,3.94,4.19,4.5v-.02ZM129.61,98.84c-.34.88-.07.91-1.32.77-.06-1.48-2.15-10.37-1.8-10.79.11-.13,2.43,1.3,3,1.51s1.65.22,1.76.32c.83.68-1.16,6.93-1.65,8.2h.01ZM120.45,100.43c-.35-.58-2.31-6.49-2.36-7.16-.14-1.82,1.66-2.59,2.71-3.85l2.1,11.99c-.26.26-2.14-.49-2.44-.97h0ZM51.46,161.75c-1.09-1.71-2.75-4.01-4.09-5.5-2.62-2.94-5.76-4.7-8.39-7.49,7.35-.4,13.98,3.88,18.58,9.29.8.94,4.35,5.75,4.18,6.55-.16.71-6.38,3.83-7.13,3.3-.28-.2-2.47-5.07-3.15-6.14h0ZM61.16,189.52c-.6-4.52-1.76-9.02-3.13-13.35-.28-.88-1.16-1.73-.8-2.24,1.14-.43,7.01-4.23,7.53-3.92,1.44.87,7.89,15.94,7.19,16.52l-10.79,3h0ZM70.43,211.67c-2.18.18-4.46,1.09-6.88.62.12-5.64.06-11.27-1.2-16.78,3.01-.54,6.5-2.4,9.42-2.91.76-.13,1.18-.21,1.7.48l1.44,9.35c-.43,1.57,1.32,8.57.64,9.26-.18.18-4.14-.1-5.11-.02h0ZM72.53,242.25c-3.18.46-6.22-.76-9.32-1.15-.79-.1-3.14.07-3.26-.04-.55-.51,2.66-12.61,2.96-14.72.36-2.53.55-5.49.63-8.06,1.73-.19,11.45-1.14,11.99-.6,1.04,1.04-2.54,21.43-3.01,24.57h.01ZM68.06,257.86c-.4,1.24-2.17,7.15-2.68,7.52-.28.2-.54.33-.9.26l-12.32-2.41c1.36-2.12,4.97-15.83,5.96-16.52,1.66-1.16,7.77.59,9.97.9.7.1,2.56-.06,2.66.04.38.37-2.28,8.95-2.69,10.2h0ZM55.13,291.38c-.47.46-10.09-2.45-11.81-2.82-.61-.13-1.87-.09-1.94-.15-.8-.71,8.27-17.21,8.45-19.72,4.65-.46,9.17,1.09,13.73,1.74l-8.42,20.95h0ZM34.78,309.7c-.69-.31-2.86-.79-3-.91-.63-.52,6.48-13.06,6.66-14.92,4.4-.56,8.6.69,12.82,1.75.68.17,1.07.22,1.5.89l-7.19,19.48c-3.29-2.53-7-4.58-10.79-6.29ZM26.09,321.38c.59-1.4,3.15-7.62,3.88-8.14,1.37-.96,12.18,5.21,14.15,6.32l-5.11,18.33-.9.27c-5.64-1.46-11.26-3.27-17.11-3.61,1.84-4.33,3.26-8.85,5.1-13.18h-.01ZM15.88,351.33c.36-1.4,3.09-11.31,3.68-11.39,5.79-.8,12.83,1.55,18.25,3.37l-3.03,20.04c-3.53-.48-6.91-1.36-10.46-1.83-.61-.08-1.14-.57-1.23-.57-1.39,0-8.96.32-9.29,0-.36-.34,1.77-8.43,2.07-9.62h.01ZM34.78,381.92l-12.85,1.24c-1.64-.26-9.56,3.33-9.92,2.96s-.1-9.06-.02-10.51c.05-1.01.54-1.92.64-2.96.17-1.76-.74-5.09,1.17-6.02.75-.37,6.42-.99,7.52-.91,1.43.11,3.94.42,5.34.66,1,.17,7.21,1.54,7.5,1.79.58.5-.78,11.98.63,13.76h0ZM36.43,403.64c-5.69,1.38-12.85,8.31-16.66,12.73-.41.48-.55,1.66-.88,1.51-1.09-.5-3.14-7.38-3.61-8.98-.95-3.3-3.5-12.97-2.62-15.82.37-1.21,5.59-3.4,6.97-3.82,3-.92,5.78-1.05,8.81-1.38,1.52-.17,6.31-1.65,6.86.41.19.71-.02,1.55.12,2.28.35,1.74,3.49,12.54,2.95,12.94-.08.06-1.35,0-1.95.14h0ZM42.32,411.85c2.85,5.36,6.99,10.24,11.04,14.73-4.34,4.23-6.98,9.76-9.29,15.28-.52,1.23-1.56,5.34-2.1,6-.34.41-1.14-.32-1.5-.6-5.56-4.24-12.08-11.83-15.77-17.79-.6-.97-3.2-5.13-3.05-5.81.05-.21,2.2-2.9,2.63-3.39,3.21-3.7,8.33-8.73,12.91-10.47.84-.32,3.64-1.38,4.17-.88.11.11.58,2.19.97,2.92h-.01ZM54.15,456.96c-1.43-.83-7.05-4.04-7.32-5.28-.17-.8,5.46-13.37,6.43-15.02.55-.94,4.08-6.09,4.6-6.11.45-.02,6.06,4.44,7.31,5.22,3.5,2.19,7.36,3.82,10.98,5.8-4.44,6.81-4.88,15.21-5.99,23.08-5.37-2.43-10.89-4.7-16-7.68h0ZM96.52,472.43c-.4.39-8.24-1.71-9.6-2.09-1.69-.47-10.61-3.13-11.1-3.88-.95-1.44.15-3.21.29-4.56.47-4.53.96-8.56,2.73-12.85.31-.75,2.51-5.17,2.75-5.35.72-.52,13.11,4.46,15.53,3.55-2.75,8.14-1.85,16.81-.6,25.17h0ZM117.99,469.25c.42.99,4.76,6.97,4.31,7.38-1.2,1.07-17.16-2.57-20.01-2.47-.92-.25-1.41-3.37-1.53-4.47-.59-5.5-.85-12.87.99-18.11,1.89-5.38,3.22-2.03,7.91-2.48,1.68,7.15,5.02,13.66,8.32,20.15h.01ZM146.43,385.06c3.97,14.73,12.87,33.21,20.92,46.21,1.69,2.73,2.95,6.1,6.52,4.93,2.49-.81,1.63-2,.86-3.92-2.78-6.98-8.34-14.8-11.8-21.77-3.62-7.29-6.96-15.12-9.5-22.87-.81-2.47-2.28-10.32-3.26-11.73-.57-.82-3.2-.79-4.15-.51-2.3.66-.09,7.85.39,9.66h.02ZM377.35,433.47c-5.84,7.89-11.65,15.85-18.62,22.76-.52.52-.67,1.31-1.03,1.65-1.02.97-4.39,2.79-4.97,3.75-.28.46.53,1.87.91,2.13,3.23,2.17,8.46-3.11,10.6-5.31,5.24-5.37,10.5-11.73,14.86-17.84.9-1.26,4.63-6.35,3.29-7.7-.97-.97-4.04-.46-5.04.56ZM187.31,451.47c-1.94-1.98-2.11-4.15-5.85-2.28-1.73.87-1.64,1.38-.88,3.01,1.48,3.17,12.86,14.16,16.06,16.31,1.98,1.33,3.38,2.07,5.59.84,1.94-1.08,1.6-1.66.39-3.22-1.14-1.48-3.09-3.04-4.38-4.28-3.59-3.44-7.39-6.78-10.93-10.37h0ZM193.87,437.07c2.56,4.79,4.93,9.77,7.89,14.34,1.45,2.23,4.45,7.1,7.13,7.27,1.46.09,3.2-.21,2.63-2.05-4.47-6.89-8.43-14.07-12.22-21.36-.89-1.01-2.84-1.54-4.12-1.14-.83.26-1.75,2.08-1.32,2.94h0ZM396.12,434.86c-1.37,2.42-3.45,5.95-5.01,8.17-.6.86-2.03,1.72-2.38,2.41-1.67,3.32,2.34,3.3,4.67,2.27,1.7-.75,4.62-5.13,5.72-6.87,1.25-1.96,7.47-13.14,6.07-14.55-5.76-2.62-6.83,4.61-9.07,8.56h0ZM422.93,414.28c-2.92.19-2.22,2.61-3.03,4.81-1.83,4.94-5.68,11.26-6.8,15.99-.83,3.5,4.15,3.75,6.02.61s6.14-13.32,6.49-16.88c.07-.69.11-3.61-.07-3.86-.12-.17-2.11-.7-2.61-.67h0ZM310.02,421.9c-.69,3.12-8.36,10.84-2.7,12.06,3,.65,3.76-1.42,5.09-3.67,1.65-2.8,7.22-14.21,6.44-16.84-.24-.81-2.97-1.72-3.76-1.5-1.66.45-4.14,8.02-5.08,9.95h.01ZM320.41,453.86c-1.71,3.26-3.42,6.55-5.21,9.78-.89,1.6-4.28,6.31-4.6,7.4-1.02,3.51,4.42,3.14,5.76,1.85.57-.55,3-4.6,3.63-5.66,1.24-2.08,6.69-12.19,5.45-13.93-.62-.87-4.27-.8-5.04.56h0ZM129.2,425.64c-3.31.25-1.79,5.24-1.34,7.36.49,2.34,1.31,5.26,2.07,7.52.77,2.28,1.55,6.05,4.17,6.61,3.55.76,3.51.16,3.04-3.04-1.26-2.19-4.03-17.16-4.76-17.72-.21-.16-2.77-.76-3.18-.73h0ZM335.4,425.7c-1.5,2-4.46,6.1-5.63,8.16-.52.92-1.26,2.15-.1,2.92,3.06,2.02,4.62.44,6.6-1.8,2.25-2.54,5.95-7.91,7.7-10.88,2.07-3.5,1.29-5.62-3.11-4.31-.95.28-4.62,4.79-5.47,5.92h0ZM403.72,449.61c-2.83-.03-2.37,1.43-3.57,2.47-3.44,2.98-7.14,6.29-10.91,8.88-.64.44-3.63,1.78-3.74,1.95-.96,1.47,1.88,3.03,3.19,2.95,3.15-.2,10.13-5.58,12.64-7.8,1.21-1.08,6.68-6.15,5.06-7.76-.15-.15-2.21-.67-2.66-.68h-.01ZM210.75,426.25c-1.16-2.57-2.56-5.17-3.64-7.76-.84-2.03-2.93-9.06-4.5-9.89-1.34-.7-3.71-1.27-4.52.29-.96,1.85,2.95,7.61,3.21,10.01.7,1.57,3.54,7.59,4.45,8.44,1.42,1.33,5.32,2.01,5-1.09ZM339.6,447.88c-1.5,2.66-3.81,5.63-5.72,8.07-1.02,1.31-2.42,1.6-2.44,3.59-.04,3.21,3.87,2.45,5.75.91,1.63-1.34,5.89-7.19,7-9.19.98-1.77,2.25-3.97,1.61-6.03-.34-1.1-2.64-1.81-3.73-1.5-1.47.41-1.76,2.89-2.47,4.15h0ZM359.73,417.06c-.77,3.45-7.53,12.14-7.3,14.91.18,2.23,3.89,1.63,5.46,1.23,1.67-2.98,7.98-13.22,7.13-16.16-.36-1.24-3.34-1.19-4.39-.88-.45.14-.72.48-.9.89h0ZM302.24,456.37l-6.62,14.07c-.75,2.71,1.66,2.97,3.8,2.59,1.59-.28,3.06-3.1,3.81-4.58.81-1.58,5.03-11.44,4.26-12.2s-4.37-.8-5.27.11h.02ZM222.49,453.45c.15,1.34,4.74,8.41,5.9,9.69,1.01,1.11,3.4,3.18,4.76,3.63,1.47.49,5.9.61,4.54-1.54-.8-1.27-3.04-2.82-4.16-4.23-1.4-1.76-5.64-9.74-6.72-10.06-.74-.22-2.1-.24-2.83-.02s-1.56,1.81-1.48,2.53h0ZM153,443.82c-.73-1.92-2.52-8.81-3.73-9.45-2.31-1.21-5.14-.87-4.79,2.36.3,2.7,3.3,9.59,4.87,11.93.65.97,1.76,2.16,2.87,2.52.71.23,3.39.5,3.63.26.65-.62-2.35-6.3-2.86-7.63h0ZM171.74,402.91c.74,2.11,5.65,10.78,7.17,12.02,1.27,1.03,5.19,2.07,5.15-.32-.03-1.81-5.52-8.88-6.74-11.28-1.07-2.1-1.57-6.94-5.52-5.78-1.74.51-.51,4.09-.06,5.36h0ZM243.36,457.13c-.37,2.66.61,7.22,1.69,9.72,1.19,2.73,2.91,5.91,6.34,4.91,2.64-.77-.81-6.36-1.28-8.17-1.01-3.86.36-9.64-5.78-7.87-.71.2-.89.76-.98,1.42h0ZM422.6,393.01c0-1.31-1.8-3.29-3.3-3.29-4.09,0-2.14,3.68-2.05,5.69.06,1.33-.6,2.36-.66,3.57-.07,1.52-.26,5.35.09,6.54.45,1.56,5.6,1.32,5.93.07.57-2.15,0-9.7,0-12.59h-.01ZM383.64,357.04c-.33-2.28-4.49-4.27-5.29-.48.29,3.06-2.21,10.39-1.02,12.78.71,1.42,3.46,2.79,5.07,2.36.75-4.44,1.88-10.2,1.23-14.66h0ZM337.45,391.79c-.52-5.32,3.41-13.13-4.77-13.47-.22,2.7-2.52,13.62-.22,15.02.77.47,3.79.92,4.36.51.16-.11.44-1.63.63-2.07h0ZM139.19,457.04c.2.68,4.51,6.46,5.28,7.3,1.7,1.85,7.88,4.59,7.11.7-.26-1.34-4.44-6.11-5.58-7.62-1.57-2.08-2.01-4.65-5.96-3.5-1.21.35-1.15,2.13-.86,3.12h.01ZM175.07,461.92c-1.22-1.82-4.63-4.4-6.33-6.25s-1.73-3.82-4.78-3.65c-.44.02-2.59.55-2.69.65-1.83,1.79,8.08,11.33,10.59,11.88.83.18,3.29-.07,3.78-.51.4-.35-.21-1.58-.57-2.12h0ZM176.44,365.8c-3.86-.65-2.8,12.13-.68,14.2.24.24,3.4,1.31,3.7,1.25,2.58-.56.65-4.49.41-6.26-.2-1.49-.49-3.4-.62-4.82-.08-.89.76-2.27-.13-3.13-.11-.1-2.51-1.21-2.68-1.24h0ZM162.82,468.91c-3.55,1.12,3.03,7.47,4.41,8.63,1.78,1.49,5.57,4.44,7.83,3,2.77-1.76-3.51-5.81-4.53-6.9s-2-3.28-2.82-4.07-3.82-1.01-4.89-.67h0ZM216.09,468.85c.95,1.84,9.71,7.59,11.97,7.8.99.09,3.61.21,3.92-.92.56-2.02-3.48-3.32-4.76-4.22-2.76-1.93-6.96-6.7-10.45-5.6-1.24.39-1.2,1.92-.68,2.94h0ZM221.46,426.91c1.63,1.3,4.35,1.54,4.56-.94.04-.5-1.85-8.74-2.13-9.28-.59-1.1-4.49-2.35-5.06-1.77-1.62,1.63.85,10.57,2.63,11.99ZM370.48,385.55c-.25.29-1.79,6.64-1.85,7.45-.17,2.41.19,3.47,2.73,3.89.54.09,2.54.12,2.65-.01.45-.54,1.57-10.16,1.18-10.7-.33-.47-4.44-.95-4.71-.62h0Z"/>
  </g>
</svg>