<?xml version="1.0" encoding="UTF-8"?>
<svg id="Layer_2" data-name="Layer 2" xmlns="http://www.w3.org/2000/svg" viewBox="0 0 93.34 10.05">
  <g id="Layer_1-2" data-name="Layer 1">
    <g>
      <path d="M2.53,1.31c-.8.89-1.28,2.37-1.26,3.77.01,1.38.48,2.79,1.26,3.66.11.13.17.24.17.42v.57c0,.3-.21.41-.43.21-1.19-1.09-2.27-2.92-2.27-4.88S1.08,1.19,2.29.1c.21-.2.41-.1.41.19v.62c0,.17-.05.27-.17.41Z"/>
      <path d="M5.34,3.07c0-.22-.11-.33-.33-.33h-1.54c-.21,0-.33-.12-.33-.33v-1.23c0-.22.12-.33.33-.33h5.63c.22,0,.33.11.33.33v1.23c0,.21-.11.33-.33.33h-1.54c-.21,0-.33.11-.33.33v5.15c0,.21-.11.33-.33.33h-1.23c-.21,0-.33-.12-.33-.33V3.07Z"/>
      <path d="M11.65.85c.21,0,.33.12.33.33v2.75c0,.21.12.33.33.33h1.06c.22,0,.33-.12.33-.33V1.18c0-.21.12-.33.33-.33h1.23c.22,0,.33.11.33.33v7.04c0,.21-.11.33-.33.33h-1.23c-.21,0-.33-.12-.33-.33v-1.74c0-.22-.11-.33-.33-.33h-1.06c-.21,0-.33.11-.33.33v1.74c0,.21-.11.33-.33.33h-1.23c-.21,0-.33-.12-.33-.33V1.18c0-.22.11-.33.33-.33h1.23Z"/>
      <path d="M21.64.85c.22,0,.33.11.33.33v1.23c0,.21-.11.33-.33.33h-2.66c-.21,0-.33.11-.33.33v.35c0,.21.12.33.33.33h1.71c.22,0,.33.11.33.33v1.23c0,.21-.11.33-.33.33h-1.71c-.21,0-.33.11-.33.33v.35c0,.21.12.33.33.33h2.66c.22,0,.33.11.33.33v1.23c0,.22-.11.33-.33.33h-4.62c-.21,0-.33-.12-.33-.33V1.18c0-.22.12-.33.33-.33h4.62Z"/>
      <path d="M26,3.33c0-.73.15-2.67,2.76-2.67,2.34,0,2.71,1.57,2.75,2.42.01.15-.09.28-.24.31l-1.22.28c-.23.04-.41-.11-.44-.34-.06-.48-.25-.77-.85-.77-.81,0-.87.52-.87,1.36v1.58c0,.85.06,1.36.87,1.36.61,0,.77-.29.84-.79.03-.23.21-.37.43-.32l1.24.28c.15.03.25.15.24.32-.04.84-.41,2.41-2.75,2.41-2.61,0-2.76-1.95-2.76-2.67v-2.75Z"/>
      <path d="M37.69,6.08c0,.73-.15,2.67-2.76,2.67s-2.76-1.95-2.76-2.67v-2.75c0-.73.15-2.67,2.76-2.67s2.76,1.95,2.76,2.67v2.75ZM35.79,3.91c0-.85-.05-1.36-.87-1.36s-.87.52-.87,1.36v1.58c0,.85.06,1.36.87,1.36s.87-.52.87-1.36v-1.58Z"/>
      <path d="M38.9,4.34c0-.22.12-.33.33-.33h5.04c.22,0,.33.11.33.33v1.23c0,.21-.11.33-.33.33h-5.04c-.21,0-.33-.12-.33-.33v-1.23Z"/>
      <path d="M50.97.85c.22,0,.33.11.33.33v1.23c0,.21-.11.33-.33.33h-2.77c-.21,0-.33.11-.33.33v.35c0,.21.12.33.33.33h1.81c.22,0,.33.11.33.33v1.23c0,.21-.11.33-.33.33h-1.81c-.21,0-.33.11-.33.33v2.24c0,.21-.11.33-.33.33h-1.3c-.21,0-.33-.12-.33-.33V1.18c0-.22.12-.33.33-.33h4.73Z"/>
      <path d="M57.27,6.08c0,.73-.15,2.67-2.76,2.67s-2.76-1.95-2.76-2.67v-2.75c0-.73.15-2.67,2.76-2.67s2.76,1.95,2.76,2.67v2.75ZM55.37,3.91c0-.85-.05-1.36-.87-1.36s-.87.52-.87,1.36v1.58c0,.85.06,1.36.87,1.36s.87-.52.87-1.36v-1.58Z"/>
      <path d="M59.75.85c.22,0,.33.11.33.33v4.31c0,.85.06,1.36.87,1.36s.87-.52.87-1.36V1.18c0-.22.12-.33.33-.33h1.23c.22,0,.33.11.33.33v4.9c0,.73-.15,2.67-2.76,2.67s-2.76-1.95-2.76-2.67V1.18c0-.22.12-.33.33-.33h1.23Z"/>
      <path d="M66.69.85c.19,0,.31.08.39.25l1.5,3.66c.04.1.13.08.13-.03V1.18c0-.22.12-.33.33-.33h1.23c.22,0,.33.11.33.33v7.04c0,.21-.11.33-.33.33h-1.62c-.19,0-.31-.08-.39-.25l-1.5-3.66c-.04-.1-.13-.08-.13.03v3.55c0,.21-.11.33-.33.33h-1.23c-.21,0-.33-.12-.33-.33V1.18c0-.22.12-.33.33-.33h1.62Z"/>
      <path d="M74.48.85c2.07,0,2.75.84,2.75,2.64v2.41c0,1.8-.68,2.65-2.75,2.65h-2.45c-.21,0-.33-.12-.33-.33V1.19c0-.22.11-.33.33-.34h2.45ZM74.51,6.66c.53,0,.79-.09.79-.75v-2.42c0-.68-.26-.75-.79-.75h-.59c-.21,0-.33.11-.33.33v3.26c0,.21.12.33.33.33h.59Z"/>
      <path d="M83.17.85c.22,0,.33.11.33.33v1.23c0,.21-.11.33-.33.33h-2.66c-.21,0-.33.11-.33.33v.35c0,.21.12.33.33.33h1.71c.22,0,.33.11.33.33v1.23c0,.21-.11.33-.33.33h-1.71c-.21,0-.33.11-.33.33v.35c0,.21.12.33.33.33h2.66c.22,0,.33.11.33.33v1.23c0,.22-.11.33-.33.33h-4.62c-.21,0-.33-.12-.33-.33V1.18c0-.22.12-.33.33-.33h4.62Z"/>
      <path d="M90.14,7.96c.15.29-.02.59-.36.59h-1.25c-.11,0-.21-.05-.25-.15l-1.14-2.21s-.05-.05-.09-.05h-.44c-.2,0-.34.14-.34.34v1.74c0,.2-.14.34-.34.34h-1.23c-.2,0-.34-.14-.34-.34V1.19c0-.2.14-.34.34-.34h2.41c1.96,0,2.75.84,2.75,2.64,0,1.02-.25,1.74-.84,2.16-.04.03-.05.09-.03.14l1.17,2.17ZM86.6,2.74c-.2,0-.34.14-.34.34v.81c0,.2.14.34.34.34h.56c.53,0,.79-.07.79-.75s-.26-.75-.79-.75h-.56Z"/>
      <path d="M90.81,1.31c-.11-.13-.17-.24-.17-.41V.29c0-.29.2-.39.41-.19,1.21,1.09,2.29,2.98,2.29,4.96s-1.08,3.79-2.27,4.88c-.22.2-.43.09-.43-.21v-.57c0-.18.05-.29.17-.42.78-.87,1.25-2.29,1.27-3.66.01-1.41-.46-2.88-1.27-3.77Z"/>
    </g>
  </g>
</svg>