<?xml version="1.0" encoding="UTF-8"?>
<svg id="Layer_2" data-name="Layer 2" xmlns="http://www.w3.org/2000/svg" viewBox="0 0 64 9.1">
  <g id="Layer_1-2" data-name="Layer 1">
    <g>
      <path d="M1.56.2c.21,0,.33.12.33.33v2.75c0,.21.12.33.33.33h1.06c.22,0,.33-.12.33-.33V.53c0-.21.12-.33.33-.33h1.23c.22,0,.33.11.33.33v7.04c0,.21-.11.33-.33.33h-1.23c-.21,0-.33-.12-.33-.33v-1.74c0-.22-.11-.33-.33-.33h-1.06c-.21,0-.33.11-.33.33v1.74c0,.21-.11.33-.33.33H.33c-.21,0-.33-.12-.33-.33V.53C0,.31.11.2.33.2h1.23Z"/>
      <path d="M8.14.2c.22,0,.33.11.33.33v7.04c0,.21-.11.33-.33.33h-1.21c-.21,0-.33-.12-.33-.33V.53c0-.22.12-.33.33-.33h1.21Z"/>
      <path d="M11.02,6.01c.22,0,.33.11.33.33v1.23c0,.8-.35,1.44-1.2,1.53-.14.01-.2-.12-.1-.24.3-.35.34-.63.35-.85,0-.07-.04-.11-.11-.11h-.51c-.21,0-.33-.12-.33-.33v-1.23c0-.22.12-.33.33-.33h1.23Z"/>
      <path d="M17.02.2c.22,0,.33.11.33.33v7.04c0,.21-.11.33-.33.33h-1.21c-.21,0-.33-.12-.33-.33V.53c0-.22.12-.33.33-.33h1.21Z"/>
      <path d="M19.79.2c.22,0,.33.11.33.33v1.23c0,.8-.35,1.44-1.2,1.53-.14.01-.2-.12-.1-.24.3-.35.34-.63.35-.85,0-.07-.04-.11-.11-.11h-.51c-.21,0-.33-.12-.33-.33V.53c0-.22.12-.33.33-.33h1.23Z"/>
      <path d="M23.61.2c.2,0,.31.11.35.3l.78,3.2c.02.11.11.11.13,0l.78-3.2c.04-.19.15-.3.35-.3h2.28c.22,0,.33.11.33.33v7.04c0,.21-.11.33-.33.33h-1.23c-.21,0-.33-.12-.33-.33V3.23c0-.08-.1-.09-.12-.01l-1.07,4.39c-.04.19-.17.29-.36.29h-.73c-.2,0-.32-.1-.36-.29l-1.07-4.39c-.02-.08-.12-.07-.12.01v4.33c0,.21-.11.33-.33.33h-1.23c-.22,0-.33-.12-.33-.33V.53c0-.22.11-.33.33-.33h2.28Z"/>
      <path d="M37.74.2c.2,0,.34.14.34.34v4.88c0,.73-.15,2.67-2.76,2.67-2.34,0-2.71-1.57-2.75-2.42-.01-.15.09-.27.24-.31l1.22-.28c.23-.04.41.11.44.34.05.48.25.77.85.77.81,0,.87-.52.87-1.36V.54c0-.2.14-.34.34-.34h1.21Z"/>
      <path d="M40.67.2c.22,0,.33.11.33.33v7.04c0,.21-.11.33-.33.33h-1.21c-.21,0-.33-.12-.33-.33V.53c0-.22.12-.33.33-.33h1.21Z"/>
      <path d="M47.05.2c.22,0,.33.11.33.33v1.23c0,.21-.11.33-.33.33h-2.66c-.21,0-.33.11-.33.33v.35c0,.21.12.33.33.33h1.71c.22,0,.33.11.33.33v1.23c0,.21-.11.33-.33.33h-1.71c-.21,0-.33.11-.33.33v.35c0,.21.12.33.33.33h2.66c.22,0,.33.11.33.33v1.23c0,.22-.11.33-.33.33h-4.62c-.21,0-.33-.12-.33-.33V.53c0-.22.12-.33.33-.33h4.62Z"/>
      <path d="M50.17.2c.19,0,.31.08.39.25l1.5,3.66c.04.1.13.08.13-.03V.53c0-.22.12-.33.33-.33h1.23c.22,0,.33.11.33.33v7.04c0,.21-.11.33-.33.33h-1.62c-.19,0-.31-.08-.39-.25l-1.5-3.66c-.04-.1-.13-.08-.13.03v3.55c0,.21-.11.33-.33.33h-1.23c-.21,0-.33-.12-.33-.33V.53c0-.22.12-.33.33-.33h1.62Z"/>
      <path d="M60.51,7.53c0,.24-.11.37-.33.37h-1.23c-.21,0-.33-.11-.33-.33v-.96c0-.22-.11-.33-.33-.33h-.95c-.21,0-.33.11-.33.33v.96c0,.22-.11.33-.33.33h-1.23c-.21,0-.33-.13-.33-.37V2.86c0-1.39.22-2.86,2.7-2.86s2.7,1.47,2.7,2.86v4.67ZM58.62,2.86c0-.53-.08-.79-.8-.79s-.8.26-.8.79v1.2c0,.21.12.33.33.33h.95c.22-.01.33-.12.33-.34v-1.19Z"/>
      <path d="M63.67.2c.22,0,.34.11.33.33l-.22,4.62c-.01.21-.11.33-.33.33h-1.23c-.21,0-.32-.12-.33-.33l-.22-4.62c-.01-.22.12-.33.33-.33h1.67ZM63.45,6.01c.22,0,.33.11.33.33v1.23c0,.21-.11.33-.33.33h-1.23c-.21,0-.33-.12-.33-.33v-1.23c0-.22.12-.33.33-.33h1.23Z"/>
    </g>
  </g>
</svg>