<?xml version="1.0" encoding="UTF-8"?>
<svg id="animal" xmlns="http://www.w3.org/2000/svg" viewBox="0 0 449.4 526.54">
  <path d="M100.58,79.23c-1.13-7.19-1.31-14.26-.62-23.64v-.08s2.46-13.41,2.46-13.41l.28-.31c.36-.4.85-.62,1.38-.62,1.38,0,2.52,1.36,4.57,4.41.23.34.41.61.5.73,1.27,1.47,3.84,3.79,5.39,4.69.2.12.6.24.96.34.98.29,2.46.72,2.88,2.18l.04.15v.16c.21,2.84.13,5.7.05,8.48-.07,2.54-.14,5.16,0,7.68.06.97.3,2.36.56,3.84.43,2.42.87,4.93.65,6.59-.35,2.67-4.14,8.83-7.53,9.4-.59.1-1.57.16-2.7.16h0c-4.49,0-5.43-.77-5.74-1.03-1.78-1.48-2.93-8.35-3.14-9.71ZM230.08,19.53c.39.15.79.3,1.06.45.36.21,1.37.87,2.44,1.57,5.09,3.33,5.37,3.43,6,3.43s.94-.18,4.22-2.36c1.52-1.01,3.41-2.27,4.08-2.58,5.37-2.49,11.35-3,18.05-3.36.45.05,1.46.22,2.52.39,3.04.49,5.45.86,6.47.86.26,0,.86,0,1.34-.45,1.27-1.19-.12-3.72-1.05-5.12-1.64-2.49-4.49-4.25-8.03-4.96-3.27-.66-7.79-1.06-12.1-1.06-3.02,0-7.35.19-10.8,1.09-4.25,1.1-8.11,3.3-11.84,5.44-1.15.66-2.29,1.31-3.44,1.92l-.15.08-.13.11c-.33.29-1.35,1.16-1.12,2.42.23,1.28,1.48,1.75,2.48,2.13ZM434.03,488.88c2.64,3.9,3.55,8.12,2.49,11.59-.89,2.9-3.09,5.12-6.37,6.43l-1.96.78-.43-8.89c-.29-2-2.46-4.91-4.15-6.1-1.03-.73-3.17-1.73-4.53-1.73-.35,0-.54.07-.6.13-.03.03-.05.06-.07.08.43.39,1.65.92,2.21,1.16.78.33,1.4.6,1.83.96,2.95,2.46,2.67,6.39,2.45,9.55-.06.75-.1,1.46-.11,2.09v.6l-.41.43c-.18.18-.57.49-1.2.49-.85,0-2.45-.65-7.19-2.74-1.82-.81-3.88-1.72-4.44-1.87-4.22-1.14-9.63-1.72-16.09-1.72-8.43,0-17.73.98-26.19,2.2-.45.06-.9.12-1.34.19-4.92.73-9.51,1.53-13.44,2.24-2.75.5-5.79,1.2-9,1.95-7.18,1.68-14.61,3.41-21.01,3.41-.8,0-1.58-.03-2.31-.08-.57-.05-5.43-.7-6.57-1.4-3.26-2.02-2.29-11.91-2.27-12.01.21-1.35,2.35-6.41,3.36-7.46,1.23-1.28,3.89-1.93,7.52-2.7,1.08-.23,2.1-.45,2.75-.65,8.56-2.65,19.52-7.15,22.24-11.14.2-.3.47-.75.57-1.19.06-.26.06-.5-.05-.71-.06-.12-.17-.24-.31-.36-.54-.45-1.63-.83-3.04-.83-.51,0-1.01.05-1.47.15-2.7.58-6.39,2.46-9.97,4.27-2.3,1.17-4.48,2.27-6.38,3.03-18.96,7.58-45.39,9.17-64.23,9.17-5.1,0-10.22-.12-15.24-.35-1.53-.07-3.11-.13-4.72-.19-11.12-.41-23.71-.87-33.19-5.86-.96-.51-1.83-1.37-2.68-2.2-.81-.8-1.74-1.71-2.4-1.9-.28-.08-.99-.16-1.98-.16-.58,0-1.16.03-1.52.08-.14.02-.19.05-.19.05-.02.02-.2.3-.01,1.56.33,2.13,9.22,7.94,12.61,8.65l1.44.31-.28,1.45c-.61,3.13-.77,5.73-.53,8.19,0,.13.03.26.05.39.04.32.1.65.16.99.28,1.37.73,2.8,1.17,4.2,1.61,5.16,3.62,11.57-4.6,14.76-.71.27-1.41.44-2.09.61-.77.19-1.5.36-2.14.68l-1.56.77-5.37-16.79c-.34-.29-1.53-.65-2.58-.75.33,3.12,3.24,12.52,4.19,14.46l.56,1.15-1.05.74c-.64.45-1.53.66-2.8.66-.46,0-.96-.03-1.52-.09-.73-.07-1.43-.22-2.11-.37-.85-.18-1.66-.36-2.47-.36-.22,0-.45.01-.68.05l-1.29.17-.36-1.24c-.64-2.18-1.72-4.38-2.77-6.5-.84-1.72-1.72-3.5-2.38-5.3-.25-.68-.34-1.32-.43-1.88-.19-1.28-.23-1.59-1.57-1.89-.43-.09-.78-.14-1.05-.14-.18,0-.27.02-.31.03.02.03-.07.31,0,1.05.08.75,1.54,4.04,2.51,6.22,2.48,5.6,2.86,6.46,1.74,7.4-.37.32-.88.49-1.5.49-2.18,0-7.05-2.38-8.1-3.14-2.24-1.59-5.93-5.78-7.19-8.16-.38-.69-.62-1.4-.85-2.08-.29-.85-.56-1.65-1.05-2.34-1-1.42-2.55-2.86-4.39-4.31-2.09-1.65-4.55-3.31-6.96-4.94-2.84-1.92-5.52-3.73-7.57-5.49-19.59-16.91-32.18-43.76-32.07-68.42.09-19.18,7.55-35.6,21.58-47.47,1.67-1.41,2.76-1.95,3.92-1.95.38,0,.7.06.97.11.22.04.39.08.59.08s.42-.04.69-.11c1.64-.47,2.63-2.51,2.92-6.06.34-4,.33-7.97.33-11.81-.01-5.45-.01-11.08.92-17.05,1.94-12.43,6.26-24.28,10.24-34.24l.71-1.78,1.56,1.13c1.78,1.28,2.51,3.5,3.17,5.46.26.78.5,1.51.79,2.13,4.71,10.18,10.36,20.55,19.61,27.83.34.28.69.55,1.05.81,2.95,2.18,6.26,3.93,9.77,5.79,3.56,1.88,7.24,3.83,10.54,6.28,2.65,1.97,5.24,4.5,7.76,6.95,5.77,5.61,11.73,11.42,19,11.42,1.55,0,3.15-.26,4.75-.79,4.88-1.59,10.67-4.14,12.18-9.77,1.66-6.18-1.73-17.46-4.26-23.12-.73-1.62-1.58-2.81-2.49-4.07-.62-.86-1.26-1.75-1.85-2.77-3.78-6.59-5.51-14.41-7.18-21.98-1.36-6.14-2.76-12.5-5.24-17.93-1.33-2.9-3.61-5.09-5.31-5.09-.77,0-1.51.47-2.2,1.41.57,1.93,1.15,3.86,1.73,5.78,1.33,4.43,2.71,9,3.92,13.54.64,2.42,1.17,4.83,1.68,7.17,1.05,4.79,2.04,9.32,3.95,13.93.97,2.35,2.42,4.61,3.83,6.79,1.51,2.35,3.08,4.78,4.13,7.45,1.71,4.31,2.17,8.55,2.67,13.04l.28,2.53-1.39.25c-.36.06-.64.09-.89.09-1.14,0-1.85-.6-2.1-1.79-.03-.14-.06-.26-.11-.37-.24-.55-.46-1.12-.68-1.69-.46-1.21-.94-2.46-1.62-3.42-.64-.9-1.83-2.03-2.67-2.61l6.04,13.35c.93,1.4,1.17,2.83.63,3.86-.35.68-1.01,1.09-1.75,1.09s-1.83-.4-2.77-2.3c-.64-1.28-1.19-2.67-1.72-4.02-.89-2.24-1.81-4.56-3.14-6.35-.86-1.17-2.37-2.6-3.08-2.93-.05.04-.1.08-.15.13.46.87,1.35,2.43,2.04,3.64,1.07,1.88,2.08,3.65,2.42,4.43l.15.33c.6,1.26,1.5,3.17.46,4.57l-.9,1.21-1.2-.91c-3.24-2.44-6.38-5.07-9.43-7.6-5-4.18-10.18-8.49-15.76-12-1.54-.97-3.18-1.88-4.75-2.76-3.07-1.7-6.25-3.46-9.1-5.86-1.62-1.36-3.25-3.04-4.86-4.96-10.27-12.25-19.75-34.3-21.69-47.86-1.45-10.17.4-20.28,2.18-30.05,1.12-6.15,2.28-12.5,2.58-18.73,1.63-33.71-8.16-69.37-29.07-106.01-1.35-2.35-5.44-9.53-9.49-11.42-2.17-1.02-4.46-1.39-6.89-1.79-3.45-.56-7.01-1.15-10.28-3.65-2.55-1.96-8.47-8.57-9.55-12.11-.1-.36-.39-1.31.19-2.09.55-.75,1.39-.75,1.79-.75h.49s3.98.08,5.19,1.04c.47.37.62.82,1.36,2.96.62,1.76,1.65,4.72,2.3,5.56.71.92,4.71,2.92,6.13,3.07,1.18.12,2.18.18,3.06.18,4.51,0,6.45-1.56,8.3-6.7.17-.46.47-1.95.67-2.94.39-1.93.45-2.22.75-2.6.2-.26.61-.59,1.33-.59.61,0,1.67.23,3.79.72.9.21,2.14.5,2.46.53,1.36.11,2.54.17,3.62.17,5.29,0,8.86-1.46,11.6-4.75,2.04-2.45,6.4-10.46,6.26-12.25-.25-.24-1.13-.61-2.02-.61-.15,0-.27,0-.35.03-1.09,1.54-1.98,3.41-2.83,5.22-.78,1.65-1.59,3.37-2.58,4.87-1.62,2.48-4.91,5.56-8.86,6.06-.93.12-1.96.18-3.07.18-5.98,0-14.23-1.76-18.24-5.63-3.73-3.61-4.05-6.47-4.49-10.45l-.14-1.25c-.02-.06-.14-.24-.2-.32-.16-.22-.4-.56-.4-1.07v-20.54l1.65.17c.38.04.76.05,1.13.05,6.4,0,10.54-5.81,14.54-11.44,1.16-1.63,2.26-3.17,3.4-4.56.95-1.15,2.12-2.33,3.35-3.57,3.83-3.87,8.18-8.24,6.89-12.77-.72-2.5-4.42-6.91-6.86-9.83-.6-.71-1.15-1.36-1.59-1.91l-1.11-1.38,1.55-.87c.83-.46,2.37-.95,3.31-1.04,1.16-.12,2.47-.18,3.9-.18,6.11,0,13.47,1.07,19.19,2,25.32,4.09,47.81,15.1,62.22,23.61.68.4,1.19.91,1.64,1.36s.8.8,1.26,1.05c.84.43,3.71,1.39,4.43,1.48.23.03.46.04.67.04,1.52,0,2.17-.64,3.38-1.97.56-.61,1.19-1.3,2-1.94,4.36-3.42,12.31-7.47,17.58-8.06,1.24-.14,2.72-.21,4.39-.21,10.51,0,28.54,2.88,35.06,8.3,6.15,5.1,11.79,21.37,10.98,28.56-.48,4.34-5.32,15.16-11.13,16.01-1.37.2-2.94.31-4.68.31-2.17,0-4.48-.15-6.8-.39-3.22-.32-6.45-.8-9.28-1.22-1.07-.16-2.1-.31-3.07-.44-1.5-.21-2.75-.46-3.95-.7-.7-.14-1.41-.29-2.18-.42-.68-.12-3.14-.48-4.03-.57-.09.05-.2.11-.32.17-.28.15-.59.32-.83.46.15.48,1.08,1.55,1.86,1.91.36.17.79.29,1.26.4.22.05.45.1.68.15.69.16,1.46.33,2.22.62.16.05.31.12.47.19,2.21,1.01,3.4,3,4.45,4.76.42.7.82,1.36,1.26,1.95,19.71,26.06,37.59,55.92,56.27,93.98,1.31,2.69,2.63,5.76,4.01,9.01,2.49,5.83,5.06,11.85,7.85,16.02.5.75,1.24,1.43,2.02,2.14.7.63,1.41,1.28,2.02,2.04,11.59,14.71,19.11,32.5,20.11,47.57,1.57,23.49-3.11,40.65-15.74,55.22-4.38,5.07-9.72,9.82-16.1,14.41-3.99,2.87-7.82,4.99-11.52,7.04-5.65,3.14-10.99,6.09-16.44,11.43l-.3.3c-2.77,2.71-5.39,5.27-7.66,8.23l-2.63-1.33,2.59-8.81c-.06.02-.12.05-.18.08-2.49,1.24-3.94,6.64-5.11,10.99-.6,2.23-1.17,4.34-1.85,5.82-.71,1.54-2.65,3.72-4.72,3.72-.6,0-2.05-.21-2.79-2.12l-.19-.48,5.88-19.33c-1.95.12-4.62,6.98-5.39,11.41l-.21,1.19-1.22.05c-.65,0-1.18-.24-1.57-.67-.68-.77-.86-2-.6-4.24.89-7.7,4.35-16.96,8.43-22.6.59-.82,1.32-1.61,2.01-2.37.74-.8,1.5-1.63,2.08-2.48,2.52-3.65,4.07-8.58,5.56-13.34.84-2.68,1.71-5.44,2.73-7.92,1.52-3.66,3.31-7.32,5.05-10.86,2.21-4.49,4.49-9.14,6.2-13.82.1-.31-.08-1.15-.3-1.45-.57-.15-1.1-.23-1.6-.23-3.72,0-5.61,4.66-7.28,8.77-.44,1.09-.86,2.12-1.31,3.05-3.31,6.86-5.8,13.12-8.44,19.75-1.25,3.14-2.54,6.38-3.94,9.73-1.74,4.17-3.82,6.52-6.03,9.01-1.2,1.35-2.44,2.74-3.66,4.5-5.55,7.99-7.95,20.07-5.84,29.37.95,4.18,5.1,9.04,9.03,9.04.09,0,.17,0,.25-.01,1.71-.09,4.79-.44,6.43-.67,6.83-.91,13.6-8.81,19.56-15.78,3.18-3.7,6.18-7.2,9.09-9.62,3.25-2.7,7.06-4.64,10.73-6.51,2.06-1.05,4.18-2.13,6.13-3.31,5.51-3.35,11.29-7.58,16.63-12.48,10.15-9.3,18.72-20.97,20.85-33.45.12-.7.43-2.57,2.08-2.57.66,0,1.25.34,1.77,1.02l.15.19.08.22c1,2.87,2.09,5.77,3.14,8.57,1.9,5.06,3.86,10.3,5.44,15.61,9.73,32.76,10.49,60.19,2.39,86.32-1.05,3.42-2.47,7.01-3.97,10.8-2.3,5.84-4.68,11.88-5.61,17.15-.2,1.11-.41,2.65,0,3.16.16.2.69.55,2.42.64h.11c2.56,0,5.02-4.31,6.33-6.63l.12-.2c4.5-7.97,9.2-20.43,11.16-29.6,1.68-7.85,2.53-15.89,3.14-22.73l.17-2,1.87.73c13.87,5.48,23.47,21.07,26.53,33.24,5.44,21.71-3.63,49.37-21.57,65.77-4.31,3.94-9.32,7.28-14.16,10.5-3.45,2.3-7.01,4.67-10.24,7.22l-.28.22-.34.07c-3.06.64-6.27,1.19-9.66,1.77-7.52,1.28-15.27,2.6-21.9,5.05-.92.34-1.81.7-2.68,1.09-1.92.84-3.05,1.53-3.41,2.59,1.08.48,3.42,1.16,4.33,1.16l5.03-1.03,10.99-2.25,23.2-4.76h.19c.95.05,1.91.07,2.89.07,2.53,0,5.1-.12,7.82-.24,2.69-.12,5.49-.25,8.23-.25,3.94,0,7.12.26,10.01.83,4.2.82,7.23,2.56,8.99,5.17Z" fill="#877061"/>
  <path d="M119.15,87.97l2.07-2.49,2.78,15.93-.53.55c-.23.23-.63.51-1.28.51-.86,0-2.89-.72-3.52-1.75-.43-.72-2.5-6.85-2.58-7.82-.16-2.03,1.19-3.21,2.17-4.07.34-.3.65-.58.89-.86ZM126.35,100.46l1.27.15c.42.05.71.08.9.08,1.41,0,1.77-1.12,1.88-1.48.03-.08.06-.18.11-.32,1.17-3.1,2.88-8.52,1.19-9.89-.39-.32-.79-.36-1.33-.42-.23-.02-.7-.08-.83-.12-.16-.07-.75-.39-1.14-.61-1.46-.81-1.86-1.02-2.38-1.02h-.73s-.45.55-.45.55c-.62.74-.57,1.22.65,7.38.35,1.75.78,3.92.8,4.43l.06,1.28Z" fill="#efd5c7"/>
  <path d="M358.42,315.43s-.05-.26-.12-.61c-.04-.19-.08-.38-.12-.56-5.23,5.37-11.67,9.58-18.72,12.18-5.53,2.03-11.56,3.17-16.22,6.77-3.95,3.05-6.48,7.54-8.79,11.96s-4.59,9-8.21,12.42c-3.63,3.43-8.99,5.51-13.69,3.86-2.54-.89-4.64-2.78-6.17-4.99-4.03-5.86-4.07-13.72-1.99-20.52,2.07-6.8,6.01-12.85,9.6-18.98,15.4-26.25,25.06-55.36,34.36-84.36-2.72-4.81-5.6-9.54-8.63-14.17-7.42-11.35-15.86-22.28-26.77-30.34-10.9-8.06-24.59-13.04-38.04-11.34-10.27,1.29-19.99,6.53-26.72,14.38-8.35,9.74-11.79,22.62-14.99,35.04-1.55,6.02-3.1,12.03-4.66,18.05,9.84,20.03,18.43,40.69,25.23,61.94,3.61,11.27,6.71,22.69,9.81,34.1,1.54,5.67,2.93,12.24-.5,17.01-3.17,4.39-9.53,5.44-14.73,3.92-5.2-1.53-9.52-5.09-13.68-8.56-9.35-7.8-18.7-15.6-28.04-23.41-.48,1.84-.95,3.68-1.42,5.51-5.45,21.14-10.9,42.27-16.35,63.41-1.71,6.65-3.43,13.43-4.48,20.24h0c-.09.61-.18,1.21-.26,1.81,2.11,4.57,4.49,9.29,7.18,14.1,10.09,18.05,21.63,32.32,32.18,43.26.2-.01.42-.01.63-.01h.25c.86.01,1.47.09,1.73.16.66.19,1.59,1.1,2.4,1.9.85.83,1.72,1.69,2.68,2.2,9.48,4.99,22.07,5.45,33.19,5.86,1.61.06,3.19.12,4.72.19,5.02.23,10.14.35,15.24.35,18.84,0,45.27-1.59,64.23-9.17,1.9-.76,4.08-1.86,6.38-3.03,3.58-1.81,7.27-3.69,9.97-4.27.97-.21,1.24-.19,1.47-.15.82.14,2,1.39,2.28,1.54,1.87,1.02,14.86-18.6,17.2-22.06,7.95-11.79,10.53-11.45,14.07-17.46,20.25-34.3-21.27-117.04-21.5-118.17Z" fill="#efd5c7"/>
  <path d="M58.76,170.61c3.47-2.02,4.6-2.61,5.42-2.61h.41l.44.23c2.11,1.26,7.82,15.35,7.97,17.41.06.83-.29,1.3-.6,1.55l-.24.2-12.75,3.56-.23-1.71c-.52-3.91-1.52-8.2-3.07-13.11-.05-.17-.2-.42-.33-.65-.37-.63-1.06-1.81-.25-2.92l.26-.36.42-.16c.31-.12,1.61-.88,2.56-1.43ZM15.67,385.92c1.78-.66,4.76-1.76,5.53-1.76l.18.03,13.04-1.25,2.76-.22-1.7-2.16c-.54-.97-.35-6.05-.26-8.49.15-4.01.18-4.85-.61-5.53-.82-.68-8.14-2.1-8.21-2.12-1.54-.26-4.06-.57-5.48-.67-.1,0-.24-.01-.39-.01-1.28,0-6.76.51-7.91,1.06-2.27,1.13-2.12,3.92-2.02,5.77.03.57.06,1.1.02,1.46-.03.36-.15.74-.26,1.15-.16.55-.34,1.17-.37,1.87-.16,2.9-.58,10.6.43,11.61.18.19.57.5,1.2.5.63,0,1.51-.3,4.05-1.24ZM68.73,258.68l.26-.84c3.42-10.68,3-11.08,2.32-11.72-.47-.47-1.05-.47-1.44-.47-.19,0-.44,0-.7.01-.28,0-.58.02-.85.02-.2,0-.39,0-.51-.02-.49-.07-1.18-.22-1.98-.39-1.96-.41-4.41-.93-6.31-.93-1.24,0-2.12.21-2.76.67-.79.55-1.28,1.79-3.5,8.79-1.03,3.24-2.31,7.27-2.86,8.15l-1.19,1.86,14.49,2.82c.17.03.33.05.48.05.82,0,1.41-.43,1.6-.58.56-.41.91-.9,2.95-7.43ZM73.35,243.1l.17-1.1c.08-.51.23-1.46.44-2.72,3.56-21.72,2.97-22.32,2.16-23.13-.51-.52-1.22-.61-2.52-.61-3.24,0-10.39.74-10.7.77l-1.3.13-.05,1.3c-.11,3.15-.32,5.8-.62,7.9-.1.67-.56,2.65-1.06,4.74-2.37,10.06-2.29,10.48-1.43,11.3.47.43,1.02.43,1.51.43.25,0,.56,0,.89-.01.35,0,.72-.02,1.05-.02.25,0,.48,0,.63.02.95.12,1.91.33,2.92.54,1.64.35,3.33.72,5.11.72.58,0,1.14-.04,1.68-.12l1.1-.16ZM20.42,416.87c4.23-4.91,10.92-11.06,15.88-12.25.2-.05.81-.06,1.08-.06.59,0,.99-.02,1.4-.33,1.06-.79,1.1-1.27-1.53-11.14-.4-1.52-.75-2.83-.84-3.29-.03-.17-.02-.46-.02-.73.01-.5.03-1.06-.13-1.65-.22-.82-.99-2.19-3.67-2.19-1.25,0-2.61.27-3.71.49-.45.09-.83.17-1.1.2-.56.06-1.11.12-1.65.17-2.49.24-4.84.48-7.43,1.27-.07.02-7.23,2.41-7.96,4.81-1.05,3.43,1.73,13.63,2.6,16.67,2.6,9.11,3.89,9.69,4.42,9.93l.36.16h.33c1.19,0,1.6-1.1,1.8-1.62.05-.14.14-.38.17-.42ZM53.91,427.18l1.03-1.01-.96-1.07c-3.74-4.16-7.97-9.06-10.83-14.44-.16-.3-.43-1.25-.58-1.77-.25-.89-.34-1.19-.68-1.53-.38-.37-.9-.55-1.55-.55-1.12,0-2.74.56-4.19,1.11-5.45,2.06-11.26,8.3-13.48,10.87-.03.03-2.78,3.21-2.98,4.06-.17.76-.03,1.65,3.17,6.82l.07.11c4,6.46,10.79,14.11,16.15,18.2l.13.1c.46.36,1.16.91,2,.91.55,0,1.07-.24,1.41-.65.49-.58.87-1.73,1.63-4.21.27-.87.54-1.77.71-2.17,2.08-4.96,4.65-10.6,8.95-14.78ZM77.77,440.55l-1.42-.78c-1.44-.79-2.92-1.53-4.36-2.24-2.2-1.09-4.47-2.22-6.54-3.52-.44-.28-1.68-1.2-2.87-2.1-4.17-3.14-4.53-3.35-5.31-3.35h-.01c-1.81.1-5.77,6.78-5.81,6.85-.07.13-6.98,14.3-6.6,16.1.26,1.17,1.57,2.48,7.69,6.05l.35.2c4.16,2.42,8.61,4.4,12.92,6.32,1.07.48,2.14.95,3.2,1.43l1.82.82.28-1.98c.17-1.21.33-2.43.48-3.65.84-6.56,1.7-13.34,5.28-18.82l.88-1.36ZM59.11,267.71c-2.59-.53-5.26-1.07-8.01-1.07-.66,0-1.3.03-1.92.09l-1.21.17-.13,1.21c-.11,1.02-2.61,6.18-4.26,9.6-4.59,9.47-4.86,10.32-3.75,11.29.45.45.92.47,1.64.49.31,0,.84.02,1.05.07.48.1,1.71.44,3.14.84,4.37,1.21,7.56,2.06,8.74,2.06.53,0,.97-.16,1.29-.48l.22-.22,9.26-23.02-1.9-.27c-1.37-.19-2.79-.48-4.16-.76ZM12.27,361.55c.49.46,1.01.55,3.28.55,1.54,0,3.57-.06,5.05-.1.64-.02,1.19-.03,1.58-.04.33.2.83.47,1.44.55,1.76.23,3.52.58,5.23.91,1.69.33,3.45.67,5.23.92l1.46.2,3.44-22.74-1.2-.4c-4.81-1.61-10.79-3.62-16.28-3.62-.93,0-1.82.06-2.68.18-.86.13-1.76.27-4.91,12.56-2.63,10.07-2.38,10.31-1.64,11.03ZM118.87,468.19l-.02-.05-.23-.45c-3.15-6.19-6.4-12.59-8-19.42l-.3-1.28-1.31.13c-.27.03-.52.04-.76.04-.99,0-1.81-.2-2.54-.37-.63-.15-1.22-.29-1.83-.29-2.29,0-3.3,1.97-4.05,4.1-1.95,5.55-1.66,13.27-1.07,18.76.35,3.45,1.23,5.39,2.62,5.77l.29.06h.23c1.13,0,4.46.57,7.68,1.13,4.33.75,8.81,1.53,11.06,1.53.78,0,1.58-.07,2.13-.57,1.28-1.12.42-2.43-2.45-6.79-.59-.9-1.33-2.02-1.45-2.29ZM71.01,190.64c-1.6.28-3.3.91-4.95,1.52-1.53.56-3.11,1.15-4.48,1.4l-1.54.28.35,1.53c1.28,5.58,1.27,11.4,1.16,16.41l-.03,1.26,1.24.24c.56.11,1.12.16,1.73.16,1.24,0,2.38-.22,3.49-.43.73-.14,1.42-.27,2.07-.33.1,0,.23,0,.39,0,.49,0,1.17.02,1.86.05.73.02,1.46.05,1.98.05.67,0,1.31,0,1.8-.49.86-.85.71-2.16.17-5.85-.19-1.33-.52-3.55-.41-4.08l.08-.31-1.55-10.02-.22-.3c-.59-.8-1.31-1.18-2.2-1.18-.33,0-.62.05-.96.11ZM30.35,309.49c.3.24.55.3,1.58.58.54.15,1.45.39,1.74.52,4.05,1.82,7.58,3.88,10.49,6.11l1.62,1.24,8.14-22.1-.4-.63c-.71-1.12-1.57-1.33-2.25-1.5l-1.33-.34c-3.14-.8-6.38-1.63-9.75-1.63-.83,0-1.64.05-2.43.15l-1.19.12-.11,1.2c-.14.79-2.03,4.56-3.28,7.05-3.55,7.07-4.09,8.16-2.82,9.21ZM41.5,152.94c1.52,1.21,2.95,2.36,4.25,3.82,1.34,1.5,2.95,3.75,3.94,5.32.28.45,1,1.92,1.58,3.11,1.4,2.89,1.55,3.14,1.98,3.45.31.22.7.33,1.13.34,1.46,0,7.92-2.71,8.32-4.53.44-1.94-4.45-7.79-4.5-7.85-5.32-6.25-12.16-9.83-18.77-9.83-.34,0-.69,0-1.04.03l-3.23.18,2.23,2.35c1.31,1.39,2.74,2.53,4.11,3.63ZM99.07,444.26l-2.96,1.11s-.09.02-.3.02c-1.81,0-6.07-1.33-9.18-2.3-3.02-.94-4.51-1.4-5.34-1.4-.41,0-.77.11-1.04.3-.85.58-3.27,5.96-3.29,6.01-1.8,4.35-2.33,8.42-2.84,13.28-.03.27-.14.64-.25,1.04-.36,1.23-.85,2.92.2,4.49.82,1.26,7.84,3.36,11.95,4.5.08.02,7.9,2.19,9.75,2.19.2,0,.81,0,1.3-.47l.55-.54-.11-.76c-1.2-8.03-2.15-16.54.54-24.47l1.03-3ZM33.9,338.26c1.11.3,2.22.6,3.33.89l.4.1,2.09-.63,5.33-19.13.23-1.18-1.02-.58c-11.57-6.58-13.68-6.58-14.37-6.58-.51,0-.94.13-1.3.38-.68.49-1.43,1.76-4.08,8.05l-.31.73c-.92,2.17-1.74,4.41-2.53,6.57-.8,2.19-1.64,4.45-2.55,6.61l-.84,1.96,2.13.12c4.55.26,9.09,1.49,13.49,2.68ZM105.48,24.65c-.01-.05-.88-4.83-.76-6.23.76-8.53,14.83-12.2,22.17-12.95,1.19-.12,3.19-.27,4.9-.27,2.51,0,3.41.3,3.91.56l.3.16,9.75,13.03.05.09c2.43,4.36-1.91,8.45-5.09,11.43-.85.8-1.65,1.55-2.19,2.18-.44.51-1.23,1.53-2.24,2.81-8.36,10.7-11.76,14.13-13.98,14.13h0c-.11,0-.23,0-.33-.02-2.23-.32-7.88-6.69-7.93-6.75-3.74-4.58-7.42-12.39-8.56-18.18ZM204.61,340.75c-1.89,2.14,1.42,2.98,3.12,4.14,3.89,2.67,7.37,5.94,10.25,9.68,1.9,2.47,3.63,5.2,6.28,6.83,2.92,1.78,6.51,1.95,9.93,2.06,2.55.08,5.19.15,7.52-.89,3.84-1.72,5.87-6.14,5.99-10.35.11-4.2-1.34-8.27-2.78-12.22-1.33-3.65-2.65-7.31-3.98-10.96-.37-1.01-.74-2.04-1.39-2.9s-1.62-1.54-2.69-1.58c-1.79-.06-3.13,1.57-4.72,2.4-2.75,1.44-6.09.41-9.18.68-4.82.42-8.72,3.94-12.22,7.28-2.01,1.92-4.28,3.74-6.12,5.83ZM282,346.16c-.06,3.17.21,6.48,1.79,9.23,2.45,4.26,7.79,6.32,12.67,5.76s9.27-3.4,12.64-6.97c3.37-3.57,5.86-7.87,8.32-12.12,1.02-1.76,2.06-3.87,1.23-5.73-.52-1.17-1.37-1.25-2.95-2.66-2.59-2.32-2.37-3.98-4.12-5.75-1.6-1.61-3.27-1.73-7.63-2.55-11.52-2.16-11.78-3.57-14.03-2.57-3.58,1.6-5.1,5.98-6.6,12.55-.81,3.54-1.26,7.17-1.33,10.81ZM217.01,503.41c-.44-1.4-.89-2.83-1.17-4.2-.06-.34-.12-.67-.16-.99-.36-.21-.73-.4-1.1-.59-10.73-5.55-22.56-8.94-34.59-9.92-4.09-.34-8.53-.3-11.86,2.08-2.44,1.75-3.86,4.53-4.32,7.52,1.84,1.45,3.39,2.89,4.39,4.31.49.69.76,1.49,1.05,2.34.23.68.47,1.39.85,2.08,1.26,2.38,4.95,6.57,7.19,8.16,1.05.76,5.92,3.14,8.1,3.14.62,0,1.13-.17,1.5-.49,1.12-.94.74-1.8-1.74-7.4-.97-2.18-2.43-5.47-2.51-6.22-.08-.74.01-1.02,0-1.05.04-.01.13-.03.31-.03.27,0,.62.05,1.05.14,1.34.3,1.38.61,1.57,1.89.09.56.18,1.2.43,1.88.66,1.8,1.54,3.58,2.38,5.3,1.05,2.12,2.13,4.32,2.77,6.5l.36,1.24,1.29-.17c.23-.04.46-.05.68-.05.81,0,1.62.18,2.47.36.68.15,1.38.3,2.11.37.56.06,1.06.09,1.52.09,1.27,0,2.16-.21,2.8-.66l1.05-.74-.56-1.15c-.95-1.94-3.86-11.34-4.19-14.46,1.05.1,2.24.46,2.58.75l5.37,16.79,1.56-.77c.64-.32,1.37-.49,2.14-.68.68-.17,1.38-.34,2.09-.61,8.22-3.19,6.21-9.6,4.6-14.76ZM434.03,488.88c-1.76-2.61-4.79-4.35-8.99-5.17-2.89-.57-6.07-.83-10.01-.83-2.74,0-5.54.13-8.23.25-2.72.12-5.29.24-7.82.24-.98,0-1.94-.02-2.89-.06h-.19s-23.2,4.75-23.2,4.75c-3.02,3.96-3.36,9.24-3.43,14.26,8.46-1.22,17.76-2.2,26.19-2.2,6.46,0,11.87.58,16.09,1.72.56.15,2.62,1.06,4.44,1.87,4.74,2.09,6.34,2.74,7.19,2.74.63,0,1.02-.31,1.2-.49l.41-.43v-.6c0-.63.05-1.34.11-2.09.22-3.16.5-7.09-2.45-9.55-.43-.36-1.05-.63-1.83-.96-.56-.24-1.78-.77-2.21-1.16.02-.02.04-.05.07-.08.06-.06.25-.13.6-.13,1.36,0,3.5,1,4.53,1.73,1.69,1.19,3.86,4.1,4.15,6.1l.43,8.89,1.96-.78c3.28-1.31,5.48-3.53,6.37-6.43,1.06-3.47.15-7.69-2.49-11.59ZM301.62,68.85c-2.65,2.73-6,4.7-9.78,5.88-3.22-.32-6.45-.8-9.28-1.22-1.07-.16-2.1-.31-3.07-.44-1.5-.21-2.75-.46-3.95-.7-.7-.14-1.41-.29-2.18-.42-.68-.12-3.14-.48-4.03-.57-.09.05-.2.11-.32.17-1.81-4.08-3.77-8.27-5.89-12.56-3.35-6.78-6.78-13.1-10.2-18.97,4.9-1.74,11.82-3.6,20.25-3.98,11.56-.53,20.85,1.95,26.56,3.98,1.14.8,7.21,5.19,8.15,12.96,1.02,8.37-4.72,14.28-6.26,15.87Z" fill="#e1b495"/>
  <path d="M198.35,37.52c2.29-.39,5.88.44,8.12,1.21,1.97.68,7.44,3.21,8.51,4.67,4.83,6.56,3.35,16.16-4.25,19.68-6.86,3.17-17.95.48-21.32-6.69-3.42-7.29.69-17.48,8.94-18.87ZM331.13,217.65c-4.43,12.76-7.89,25.9-13.24,38.33-.69,2.93,3.91,5.42,5.44,2.42,1.36-2.68,2.84-6.92,3.93-9.86,3.18-8.6,7.31-19.46,9.58-28.18.47-1.82,1.21-4.58.67-6.37-.26-.87-3.87-2.47-4.12-2.17-.2.24-1.96,4.99-2.26,5.84ZM219.2,262.16c-4.33-10.16-13.33-29.18-20.36-37.18-1.37-1.56-5.06-5.38-7.17-4.75-3.42,1.02,2.68,6.12,3.52,7.2,9.53,12.24,15.56,29.85,21.99,43.94.46,1.46,3.79,2.51,4.69,1.55,1.17-1.24-1.91-8.97-2.67-10.76ZM300.75,39.15c-.76-1.06-13.52-4.14-15.79-4.59-9.95-2-22.3-1.67-31.91,1.92-1.9.71-6.37,3.02-3.22,5.04s5.04-.32,7.7-1.15c7.43-2.31,16.91-3.26,24.56-2.34,3.03.37,17.46,4.9,18.92,3.55.12-.11.07-1.97-.26-2.43ZM158.02,116.52c4.1,5.23,6.65,12.73,10.52,17.68,1.18,1.52,3.05,3.35,4.83,1.79.78-.68,0-1.85-.33-2.7-1.6-4.14-8.45-16.31-11.73-18.84-1.52-1.18-5.17-3.04-5.15-.04,0,.33.31,1.11.55,1.36.26.27.96.3,1.31.74ZM313.88,315.49c-.65.95-3.47,2.72-1.5,3.94.88.54,3.89.46,4.82-.01,1.54-.78,4.22-5.07,5.28-6.71,1.04-1.61,3.72-5.49,3.75-7.08.03-2.31-1.89-2.58-3.85-2s-7.01,9.69-8.51,11.87ZM356.29,269.78c-1.69,4.18-2.07,10.45-3.54,14.88.11,1.66,4.68,2.11,5.52.89.76-1.09,2.35-7.66,2.64-9.35.22-1.29.86-5.53.57-6.48-.34-1.1-2.64-1.81-3.73-1.5-.65.18-1.21.94-1.46,1.56ZM176.01,118.34c1.21,5.16,6.67,11.46,8.44,16.74.31.86,4.31,2.61,4.48,2.42.89-1.02.14-3.07-.3-4.2-2.02-5.16-5.58-10.22-7.63-15.44-1.38-1.31-5.69-2.52-4.98.49ZM211.59,312.92c-.54-2.26-4.12-10.51-5.36-12.62-1.39-2.36-5.98-3.95-5.81-.81.1,1.95,4.15,12.06,5.38,13.83.59.85,1.27,1.59,2.28,1.92.71.23,3.39.5,3.63.27.13-.12.02-2.04-.11-2.59ZM188.24,199.54c-1.84-4.96-1.71-11.92-3.64-16.67-.34-.85-2.88-3.46-3.77-3.46s-2.13,1.17-2.01,2.02c.17,1.25,1.2,3.47,1.55,5.07.58,2.73,1.73,10.85,3.31,12.58.88.96,3.7,2.22,4.56.46ZM340.89,285.55c1-3.43,6.28-10.4,6.33-13.5.04-2.31-1.9-2.58-3.85-2-2.39.71-7.82,12.55-8.19,15.48,1.66.4,4.43,1.34,5.71.02ZM246.58,111.9c.5,1.77,5.7,11.27,6.97,13.41,1.04,1.76,4.05,6.2,5.84,3.19.69-1.17-6.45-14.89-7.84-16.77-.37-.5-1.64-1.91-2.07-2.13-.62-.31-2.8-.5-3-.29-.12.12-.04,2.06.11,2.59ZM204.25,322.1c-.51-.87-4.03-2.89-5.15-3.87-.96-.85-2.12-2.05-2.98-3.01-1.78-2-3.24-5.7-6.3-5.66-1.88.02-2.43.82-1.98,2.55.69,2.68,8.23,10.07,10.86,11.32,1.37.65,3.88,1.61,5.11.37.2-.2.65-1.35.45-1.7ZM189.67,279.7c-.63-2.18-1.27-7.49-3.15-8.84-1.23-.88-4.12-1.55-4.23.6.62,3.02,1.84,12.63,4.24,14.38.7.51,4.32,1.31,4.77.88,1.1-1.05-1.2-5.53-1.63-7.02ZM272.98,120.27c-1.08-2.64-10.01-13.95-12.39-15.18-2.25-1.16-2.08-.69-2.74,1.54,1.23,2.21,3.48,4.22,5.07,6.32,1.73,2.28,5.97,9.78,8.1,10.48.57.19,2.2.49,2.43.27.36-.36-.16-2.67-.47-3.43ZM336.05,302.29c-1.1,1.54-5.22,6.38-5.6,7.62-.8,2.65,3.87,3.46,5.91,1.68.41-.36,2.26-2.7,2.69-3.3,1.1-1.55,4.35-7,3.88-8.62-.36-1.26-3.3-1.17-4.37-.85-1.34.39-1.77,2.44-2.52,3.47ZM280.64,109.01c1.05,1.32,2.77,4.02,3.45,5.54s1.57,7.57,4.97,5.28c2.49-1.68-2.13-8.74-3.37-10.47-1.56-2.16-5.98-8.08-8.9-7.2-3.33,1,2.91,5.69,3.85,6.86ZM191.43,117.4c-.01.2,1.3,3.19,1.56,3.73,1.01,2.04,5.29,9.52,6.73,10.65.67.52,2.82,1.73,3.58,1.25.26-.17,1.07-1.02,1.09-1.22.1-1.43-6.67-10.66-7.17-13.11-.73-1.19-2.85-3.16-4.31-2.73-.39.11-1.47,1.13-1.49,1.43ZM357.94,247.46c.32-3.13,2.3-8.86-1.74-10.21-1.78-.59-2.74-.36-3.32,1.5l-.84,11.66c.52,1.4,5.08,1.62,5.9.93.23-.19-.08-3.03.01-3.89ZM180.01,147.88c3.57,4.12,4.26,12.2,9.19,14.8,2.12,1.12,3.02.32,2.63-2.02-2.92-3.43-4.22-9.65-6.81-12.97-.37-.47-2.68-2.25-2.97-2.26-.83-.04-2.65,1.35-2.03,2.46ZM290.29,176.07c.17,1.03,2.42,4.53,3.05,5.95,1.11,2.5,2.42,7.06,4.36,8.83,1.48,1.35,2.74,1.59,3.77-.3-1.34-3.63-2.53-7.7-4.32-11.13-1-1.92-3.5-5.5-6-4.76-.44.13-.96.81-.86,1.41ZM236.28,91.63c1.63,1.97,7.22,10.02,9.88,9.29.44-.12.94-.93.93-1.51,0-.5-3.5-5.08-4.22-5.98-2.54-3.2-5.51-6.1-8.38-9-.6-.35-1.43-.45-2.08-.26-3.34,1,2.98,6.39,3.86,7.46ZM245.57,133.33c3.34-.26.41-2.97-.21-4.02-1.78-3-4.21-11.11-6.85-12.33-1.34-.62-2.72-.79-2.87,1.03-.16,1.96,4.66,11.67,6.2,13.32.57.61,2.84,2.07,3.73,2ZM267.54,140.1c1.41,2.26,6.11,8.72,7.87,10.41,1.99,1.92,6.25,4.4,4.94-.45l-8.86-11.82c-3.03-2.92-6.56-2.32-3.95,1.85ZM295.63,146.74c.14-1.53-3.97-7.61-5.15-9.21-1.43-1.94-2.88-3.99-5.06-5.16-.78-.42-2.77.88-2.33,2.34.19.62,2.61,3.08,3.21,4,1.65,2.5,4.01,7.75,6.35,9.24.29.18,2.29,1.03,2.37.93.07-.09.59-1.88.61-2.14ZM308.5,150.1c4.04.14-1.25-7.66-2.38-9.03-.77-.94-6.29-6.58-6.9-6.88s-2.82-.49-3-.3c-.1.11-.11,2.64.09,2.92.06.09,1.17.43,1.73.95,1.16,1.09,3.2,3.52,4.18,4.82,1.24,1.64,2.77,5.08,3.74,6.15.2.23,2.22,1.35,2.54,1.37ZM195,147.25c.14.82,4.11,8.58,4.81,9.63.84,1.26,3.69,4.28,5.33,3.12,2.43-1.71-.35-3.54-1.14-4.92-1.91-3.35-3.06-8.36-6.7-10.04-.08-.04-1.68-.42-1.74-.35-.2.23-.65,2.05-.57,2.56ZM304.1,174.24c.23,1.18,3.74,7.77,4.6,9.21.64,1.07,3.3,5.25,4.56,4.96.45-.1,1.55-1.31,1.46-1.96-.21-1.59-4.13-9.35-5.19-11.02-.93-1.47-2.57-3.73-4.58-3.15-.83.24-1.01,1.13-.85,1.96ZM250.08,85.62c1.93,1.78,7.44,8.24,9.38,8.62.8.16,1.79-.08,1.99-.82.28-1-1.71-3.36-2.39-4.19-1.09-1.33-2.88-3.01-4.18-4.21-.95-.88-4.36-3.93-5.19-4.4s-1.84-.96-2.87-.65c-3.58,1.08,2.42,4.87,3.26,5.64ZM204.6,106.61c-.05.79,8.24,11.97,9.49,12.61,1.84.94,3.56.02,2.75-2.14-.74-1.98-6.42-9.82-8.16-11.03-.72-.5-1.68-1.13-2.57-.87-.38.11-1.5,1.17-1.51,1.43ZM146.95,117.4c.02,1.03,5,9.17,6,10.22s3.75,2.46,5.1,2.08c.2-.06,1.17-.87.63-1.2-2-2.78-6.62-13.71-10.78-12.57-.48.13-.96.89-.95,1.48ZM216.23,149.45c-.5-1.75-3.65-7.4-4.86-8.92-.51-.64-1.78-2.15-2.45-2.34-2.51-.73-3.2,0-2.49,2.49.22.77,4.88,8.95,5.61,9.98.7.99,3.42,3.52,4.47,2.42.26-.27-.06-2.89-.27-3.62ZM220.11,99.41c2.18,2.07,4.61,5.18,6.87,6.92.44.34,2.83,1.78,3.01,1.78.75.02,1.07-1.76.82-2.61-.37-1.22-3.67-3.12-4.1-4.89-3.04-1.58-5.51-5.7-8.4-7.18-.65-.33-1.37-.47-2.07-.26-3.68,1.1,3.09,5.5,3.88,6.25ZM193.28,180.92c-.03.42,2.3,6.95,2.73,7.93.49,1.12,1.33,3.01,2.19,3.8,1.58,1.45,4.15,1.92,3.92-.89-.09-1.06-2.86-8.68-3.46-9.76-.57-1.02-2.8-2.85-3.95-2.51-.38.11-1.4,1.09-1.43,1.43ZM186.24,239.97c-2.1-2.29-5.3-2.22-5.1,1.46.07,1.19,1.37,6.72,1.89,7.74.65,1.27,4.38,3.05,5.27,2.18,1.17-1.14-1.72-9.4-2.07-11.38ZM270.62,53.1c-2.32-.38-7.41.21-9.79.75-4.93,1.12-1.21,4.71,2.08,4.52,1.69-.1,4.27-.38,6.06-.58,1.22-.13,5.5-.7,5.67-1.55.06-.28-.52-1.76-.71-1.95-.24-.23-2.79-1.1-3.31-1.19ZM257.6,49.97c.85.04,9.17-1.55,10.04-1.91.63-.26,1.55-1.58,1.53-2-.05-1.25-3.22-2.1-4.41-2.13-1.31-.03-9.83,1.42-10.41,1.92-1.84,1.56,1.06,4.01,3.25,4.11ZM262.05,82.65c2.8,3.66,8.11,5.39,11.79,8,2.5.07,2.42-1.2,1.12-2.92-1.34-1.78-10.9-8.36-12.62-8.22-1.89.16-1.13,2.05-.29,3.15ZM237.55,53.78c.5,2.5,7.9,3.9,10.13,4.87,1.06.46,4.72,3.67,5.38,1.2.49-1.83-3.06-3.86-4.38-4.6-1.46-.82-9.77-4.28-10.58-3.46-.07.07-.59,1.8-.55,1.99ZM249.79,70.33c-.68-1-7.57-3.19-9.31-3.87-1.16-.46-5.08-2.97-5.99-2.09s-.07,2.75.97,3.52c1.57,1.16,8.45,4.17,10.38,4.6.83.18,3.93.54,4.23.27.14-.13.06-1.93-.28-2.42ZM317.88,172.47c.67,1.2,4.56,7.17,5.29,7.9,1.63,1.64,4.27,2.03,3.52-1.12-.54-2.28-4.56-8.27-6.48-9.71-.67-.5-.99-1.18-2.1-.89-1.54.41-.8,2.77-.22,3.81ZM264.77,61.38c-2.45.36-4.75,2.46-1.69,4.05,2.33,1.21,2.82.14,4.65.11,1.6-.03,7.8.6,8.1-.91.05-.26-.56-1.85-.7-1.96-1.18-1-8.6-1.54-10.37-1.28ZM203.53,272.44c-3.15-.94-3.4.6-2.46,3.06s2.5,6.28,5.06,6.92c.54.14,2.37.28,2.56.09,1.62-1.57-3.3-9.52-5.16-10.08ZM286.14,15.4c-2.78-4.56-6.15-7.24-11.09-9.29-7.39-3.08-24.62-4.71-32.45-3.44-5.63.91-11.34,3.75-16.33,6.44-1.64.88-4.82,3.68-6.47,3.69-1.64,0-8.64-3.3-10.94-4.03-14.49-4.58-29.68-7.46-44.77-8.57-10.05-.74-20.01,1.01-29.99.62-11.87-.46-36.12.99-37.5,16.49-.4,4.53,1.98,8.84,1.81,11.97-.14,2.6-3.22,9.94-4.03,13.39-2.81,11.97-3.28,24.15-1.93,36.36,1.44,12.97,6.57,29.23,20.19,33.76,7.42,2.47,10.1-.13,16.05,6.72,9.45,10.88,17.85,32.6,22.76,46.17,6.29,17.38,9.44,40.03,8.71,58.46-.74,18.64-5.6,37.02-4.23,55.74.14,1.93.97,4.26.93,6.32-9.66,19.65-17.04,41.14-18.31,63.17-.12,2.06.5,13.04-.01,13.47-.09.07-1.48.18-2.19.5-20.82,9.66-32.15,45.61-30.71,66.92l1.76,11.12c-.86.83-11.97-1.99-13.92-2.56-25.11-7.29-46.74-26.55-48.44-54.06-3.29-53.16,30.28-96.32,38.93-146.94,2.45-14.34,3.27-31.07.51-45.35-3.08-16-15.9-40.41-31.62-46.9-5.4-2.23-16.9-4.08-22.36-2.58-2.06.57-2.64,2.43-2.82,4.43-.22,2.57,4.04,4.2,5.7,5.64,6.78,5.91,10.78,11.77,13.95,20.21,24.37,64.93-24.29,114.88-41.53,173.38-13.03,44.21-5.39,92.06,36.08,117.39,20.01,12.22,47.86,19.98,71.21,21.1,3.96.19,13.09-.82,16.11.08,1.01.3,4.79,4.79,6.09,5.9,8.63,7.41,14.41,8.66,21.39,18.77,11.54,16.75,32.41,17.75,51.18,16.02,9.67-.89,24.15-3.62,24.87-15.92.18-3.01-4.33-17.55-3.62-18.28.26-.27,1.57.52,2.13.57,1.79.17,3.6-.12,5.38.01,19.7,1.4,39.56,2.67,59.29.58l12.32-1.76c-3.14,8.58-4.81,17.37,5.39,21.29,19.18,7.37,40.25-.65,59.68-3.27,9.06-1.22,20.89-2.44,29.95-1.85,7.26.47,12.9,4.47,19.92,6.45,5.52,1.56,10.06,2.71,15.75,1.08,4.74-1.36,7.88-3.8,9.42-8.56,5.11-15.8-8.81-25.61-22.49-28.76l-10.92-1.66c21.71-18.36,37.17-48.17,29.08-77.03-2.6-9.29-8.96-19.42-15.29-26.67-5.3-6.07-12.01-10.4-18.51-15.06.37-26.89-6.82-54.43-19.74-77.96-1.45-2.63-6.92-10.25-6.7-12.42,1.78-17.14-4.09-36.84-13.53-51.27-3.84-5.88-9.72-11.41-13.37-17.2-4.15-6.58-8.14-17.23-11.96-24.6-12.66-24.41-26.26-48.77-41.82-71.47-5.42-7.9-11.28-15.97-17.64-23.12.19-.59,1.53-.34,2.06-.26,8.04,1.16,19.21,3.24,26.88.43,15.88-5.82,14.18-24.22,7.74-36.84-6.97-13.65-17.86-18.44-31.86-22.69-.73-.22-2.05-.15-2.33-.35-.18-.12-1.29-3.14-1.77-3.93ZM143.37,37.08c3.92-4.76,12.51-10.73,10.52-17.71-.99-3.44-6.36-9.33-8.72-12.26.66-.37,2.02-.79,2.73-.86,6.49-.66,16.11.74,22.7,1.81,21.45,3.48,43.06,12.42,61.69,23.42,1.1.65,1.71,1.79,2.96,2.44.93.49,3.96,1.54,4.96,1.65,4,.45,4.66-2.22,7.16-4.18,4.05-3.18,11.73-7.18,16.82-7.75,9.05-1.03,31.28,1.9,38.32,7.75,5.51,4.58,11.24,20.24,10.45,27.24-.49,4.3-5.21,14.03-9.87,14.71-6.7.98-16.58-.8-23.4-1.75-2.34-.32-3.98-.75-6.08-1.11-.71-.12-4.36-.67-4.58-.62-.12.03-2.04,1.06-2.11,1.16-.99,1.4,1.16,3.65,2.48,4.26,1.38.64,3.15.67,4.64,1.36,2.55,1.17,3.5,4.09,5.13,6.25,22.01,29.11,40.04,60.99,56.12,93.73,3.68,7.51,7.53,18.58,11.96,25.2,1.1,1.64,2.93,2.79,4.11,4.28,10.09,12.8,18.7,30.22,19.8,46.74,2.02,30.47-6.68,50.64-31.22,68.31-9.95,7.16-18.89,9.57-28.13,18.62-2.84,2.78-5.67,5.53-8.1,8.68l2.72-9.27c.48-1.84-.86-1.99-2.42-1.22-4.51,2.25-5.66,13.21-7.65,17.53-.83,1.8-3.71,4.36-4.75,1.69l5.84-19.21c-.06-.83-.6-1.55-1.54-1.52-3.66.1-6.34,9.5-6.89,12.61-1.04.03-.68-2.7-.61-3.31.8-6.97,4.04-16.15,8.15-21.82,1.15-1.6,2.9-3.12,4.11-4.88,4.1-5.93,5.62-14.7,8.44-21.53,3.41-8.25,8.18-16.27,11.28-24.74.36-.99-.19-3.09-1.15-3.37-7.6-2.22-9.66,7.26-12.11,12.34-4.93,10.24-8.12,19.31-12.4,29.55-2.6,6.21-6.07,8.23-9.54,13.23-5.74,8.26-8.3,20.76-6.07,30.56,1.04,4.59,5.73,10.45,10.82,10.2,1.71-.08,4.79-.44,6.56-.68,11.09-1.49,20.93-18.7,29.41-25.74,4.93-4.1,11.24-6.39,16.68-9.69,16.38-9.95,34.81-27.25,38.18-46.95.13-.78.36-1.97,1.19-.89,2.82,8.05,6.13,15.92,8.56,24.11,8.51,28.68,11.39,56.43,2.4,85.45-2.71,8.76-8.08,19.33-9.63,28.13-.66,3.76-.25,5.35,3.82,5.56,3.61.18,6.32-4.74,7.94-7.59,4.63-8.18,9.36-20.84,11.33-30.03,1.61-7.52,2.49-15.25,3.16-22.91,12.66,5.01,22.38,19.3,25.62,32.22,5.55,22.11-4.63,49.2-21.13,64.29-7.3,6.67-16.52,11.51-24.31,17.65-10.83,2.27-24.33,3.5-34.55,8.01-2.14.94-4.31,2.04-4.41,4.57-.03.74,5.04,2.21,6.18,2.03l39.11-8.01c9.15.41,19.59-1.42,28.73.37,3.07.6,6.23,1.86,8.04,4.54,3.93,5.8,4.02,12.9-3.21,15.79l-.33-6.86c-.32-2.46-2.78-5.79-4.79-7.2-1.55-1.09-5.56-2.93-7.06-1.42-2.38,2.4,3.06,3.55,4.08,4.4,2.96,2.47,1.83,7.14,1.81,10.48-.42.44-9.7-4.08-11.35-4.53-15.47-4.17-41.7-.02-57.72,2.89-9.56,1.73-22.6,5.96-31.94,5.26-1.07-.08-5.23-.77-5.9-1.18-1.86-1.15-1.88-8.42-1.57-10.51.16-1.08,2.22-5.87,2.96-6.63,1.44-1.5,7.26-2.23,9.63-2.96,5.96-1.84,19.62-6.71,23.04-11.72,2.94-4.31-2.19-6.05-5.86-5.26-4.67,1.01-11.79,5.45-16.6,7.38-21.86,8.73-55.5,9.8-78.84,8.71-11.86-.55-26.74-.33-37.28-5.88-1.74-.92-3.53-3.68-5.37-4.22-.92-.27-3.11-.26-4.1-.12-1.73.24-1.71,1.87-1.49,3.31.48,3.17,10.41,9.19,13.78,9.91-.54,2.83-.84,5.72-.54,8.63.72,7.05,7.23,15.1-2.27,18.79-1.43.55-2.97.66-4.35,1.34l-4.87-15.23c-.44-1.45-4.89-2.02-5.33-1.56-1.05,1.08,3.15,14.34,4.19,16.49-.73.51-2.42.41-3.31.32-1.83-.19-3.59-.96-5.62-.68-1.21-4.1-3.74-7.95-5.18-11.9-.73-1.99.12-4-3.08-4.72-2.37-.53-3.45.04-3.17,2.56.22,1.99,5.28,11.89,4.78,12.32-.9.77-6.64-1.92-7.77-2.72-2.03-1.45-5.57-5.45-6.74-7.64-.76-1.42-.94-3.1-2-4.59-3.67-5.19-13.88-10.46-19.16-15.01-31.89-27.51-46.49-83.15-10.5-113.6,3.38-2.86,3.07-.86,5.6-1.58,3.02-.86,3.79-4.61,4.02-7.38.81-9.68-.34-18.66,1.23-28.74,1.83-11.74,5.77-22.95,10.15-33.91,2,1.45,2.43,4.76,3.48,7.01,5.16,11.13,11.08,21.78,21.13,29.22,6.16,4.56,13.98,7.36,20.3,12.07,9.89,7.36,18.73,22.42,32.88,17.81,5.64-1.84,11.53-4.68,13.17-10.81,1.75-6.54-1.55-17.88-4.34-24.12-1.31-2.92-3.02-4.57-4.41-6.98-6.73-11.73-6.76-27.53-12.37-39.78-2.06-4.5-7.02-8.98-10.5-3.31,1.95,6.65,4.05,13.26,5.84,19.96,1.91,7.18,2.76,14.21,5.69,21.28,2.09,5.04,5.98,9.23,7.96,14.22,1.77,4.47,2.16,9.04,2.7,13.78-1.52.27-1.06-.25-1.47-1.2-.77-1.74-1.32-3.79-2.45-5.37-1.06-1.48-5.44-5.92-5.71-2.12l6.54,14.47c1.64,2.35.17,4.06-1.24,1.24-1.68-3.37-2.72-7.54-4.99-10.6-.8-1.09-3.41-3.95-4.69-3.57-.37.11-1.45,1.15-1.47,1.44-.03.5,4.12,7.34,4.8,8.89.35.81,1.37,2.63.78,3.41-8.53-6.44-16.21-13.96-25.28-19.67-4.56-2.87-9.5-4.97-13.68-8.5-11.74-9.89-23.88-36.8-26.03-51.89-2.32-16.29,4-32.29,4.78-48.5,1.83-37.98-10.73-74.33-29.28-106.82-2.22-3.89-6.06-10.13-10.14-12.04-5.57-2.6-11.75-1.33-16.9-5.27-2.58-1.97-8.11-8.36-9.02-11.36-.32-1.04.14-.86.89-.89.91-.04,3.84.27,4.39.71.35.28,2.13,6.62,3.42,8.28,1.02,1.31,5.46,3.46,7.15,3.64,7.36.77,10.44-.59,12.93-7.49.38-1.06,1.02-4.91,1.18-5.12.21-.27,5.24,1.13,6.28,1.22,6.46.56,12.2.06,16.5-5.11,1.72-2.07,7.26-11.36,6.54-13.71-.4-1.3-3.62-2.08-4.77-1.3-2.34,3.13-3.62,7.33-5.69,10.49-1.68,2.57-4.65,4.99-7.8,5.39-5.67.73-15.81-.92-20.08-5.04-3.68-3.56-3.62-6.07-4.18-10.8-.07-.61-.59-1.11-.59-1.21v-18.88c10,1.01,15-9.95,20.38-16.49ZM135,7.1l9.49,12.68c2.43,4.33-4.54,8.9-7.11,11.9-2.23,2.6-12.56,16.8-15.18,16.42-1.25-.18-5.97-4.97-6.99-6.22-3.56-4.36-7.16-12-8.25-17.52-.22-1.14-.82-4.87-.74-5.81.68-7.67,14.55-10.94,20.83-11.58,1.74-.18,6.67-.54,7.95.13ZM265.97,15.19c-6.36.34-12.89.8-18.72,3.5-1.53.71-7.22,4.8-7.68,4.8s-6.52-4.13-7.68-4.8c-1.45-.84-4.03-.99-2.2-2.57,4.81-2.58,9.61-5.85,14.95-7.23,5.88-1.53,16.22-1.23,22.23,0,2.77.56,5.49,1.91,7.07,4.32.32.49,1.6,2.91,1.29,3.21-.34.32-7.96-1.08-9.27-1.21ZM108.01,47.28c1.33,1.54,4.04,4.01,5.77,5.02,1,.59,2.85.59,3.16,1.64.37,5.35-.26,10.79.05,16.14.15,2.66,1.52,7.77,1.21,10.15s-3.78,7.69-6.29,8.12c-1.41.24-6.29.23-7.24-.56-1.17-.97-2.33-6.98-2.61-8.78-1.25-7.97-1.2-15.28-.61-23.29l2.36-12.92c.83-.94,3.71,3.94,4.19,4.5ZM129.11,98.36c-.34.88-.07.91-1.32.77-.06-1.48-2.15-10.37-1.8-10.79.11-.13,2.43,1.3,3,1.51s1.65.22,1.76.32c.83.68-1.16,6.93-1.65,8.2ZM119.95,99.95c-.35-.58-2.31-6.49-2.36-7.16-.14-1.82,1.66-2.59,2.71-3.85l2.1,11.99c-.26.26-2.14-.49-2.44-.97ZM50.96,161.27c-1.09-1.71-2.75-4.01-4.09-5.5-2.62-2.94-5.76-4.7-8.39-7.49,7.35-.4,13.98,3.88,18.58,9.29.8.94,4.35,5.75,4.18,6.55-.16.71-6.38,3.83-7.13,3.3-.28-.2-2.47-5.07-3.15-6.14ZM60.66,189.04c-.6-4.52-1.76-9.02-3.13-13.35-.28-.88-1.16-1.73-.8-2.24,1.14-.43,7.01-4.23,7.53-3.92,1.44.87,7.89,15.94,7.19,16.52l-10.79,3ZM69.93,211.19c-2.18.18-4.46,1.09-6.88.62.12-5.64.06-11.27-1.2-16.78,3.01-.54,6.5-2.4,9.42-2.91.76-.13,1.18-.21,1.7.48l1.44,9.35c-.43,1.57,1.32,8.57.64,9.26-.18.18-4.14-.1-5.11-.02ZM72.03,241.77c-3.18.46-6.22-.76-9.32-1.15-.79-.1-3.14.07-3.26-.04-.55-.51,2.66-12.61,2.96-14.72.36-2.53.55-5.49.63-8.06,1.73-.19,11.45-1.14,11.99-.6,1.04,1.04-2.54,21.43-3.01,24.57ZM67.56,257.38c-.4,1.24-2.17,7.15-2.68,7.52-.28.2-.54.33-.9.26l-12.32-2.41c1.36-2.12,4.97-15.83,5.96-16.52,1.66-1.16,7.77.59,9.97.9.7.1,2.56-.06,2.66.04.38.37-2.28,8.95-2.69,10.2ZM54.63,290.9c-.47.46-10.09-2.45-11.81-2.82-.61-.13-1.87-.09-1.94-.15-.8-.71,8.27-17.21,8.45-19.72,4.65-.46,9.17,1.09,13.73,1.74l-8.42,20.95ZM34.28,309.22c-.69-.31-2.86-.79-3-.91-.63-.52,6.48-13.06,6.66-14.92,4.4-.56,8.6.69,12.82,1.75.68.17,1.07.22,1.5.89l-7.19,19.48c-3.29-2.53-7-4.58-10.79-6.29ZM25.59,320.9c.59-1.4,3.15-7.62,3.88-8.14,1.37-.96,12.18,5.21,14.15,6.32l-5.11,18.33-.9.27c-5.64-1.46-11.26-3.27-17.11-3.61,1.84-4.33,3.26-8.85,5.1-13.18ZM15.38,350.85c.36-1.4,3.09-11.31,3.68-11.39,5.79-.8,12.83,1.55,18.25,3.37l-3.03,20.04c-3.53-.48-6.91-1.36-10.46-1.83-.61-.08-1.14-.57-1.23-.57-1.39,0-8.96.32-9.29,0-.36-.34,1.77-8.43,2.07-9.62ZM34.28,381.44l-12.85,1.24c-1.64-.26-9.56,3.33-9.92,2.96s-.1-9.06-.02-10.51c.05-1.01.54-1.92.64-2.96.17-1.76-.74-5.09,1.17-6.02.75-.37,6.42-.99,7.52-.91,1.43.11,3.94.42,5.34.66,1,.17,7.21,1.54,7.5,1.79.58.5-.78,11.98.63,13.76ZM35.93,403.16c-5.69,1.38-12.85,8.31-16.66,12.73-.41.48-.55,1.66-.88,1.51-1.09-.5-3.14-7.38-3.61-8.98-.95-3.3-3.5-12.97-2.62-15.82.37-1.21,5.59-3.4,6.97-3.82,3-.92,5.78-1.05,8.81-1.38,1.52-.17,6.31-1.65,6.86.41.19.71-.02,1.55.12,2.28.35,1.74,3.49,12.54,2.95,12.94-.08.06-1.35,0-1.95.14ZM41.82,411.37c2.85,5.36,6.99,10.24,11.04,14.73-4.34,4.23-6.98,9.76-9.29,15.28-.52,1.23-1.56,5.34-2.1,6-.34.41-1.14-.32-1.5-.6-5.56-4.24-12.08-11.83-15.77-17.79-.6-.97-3.2-5.13-3.05-5.81.05-.21,2.2-2.9,2.63-3.39,3.21-3.7,8.33-8.73,12.91-10.47.84-.32,3.64-1.38,4.17-.88.11.11.58,2.19.97,2.92ZM53.65,456.48c-1.43-.83-7.05-4.04-7.32-5.28-.17-.8,5.46-13.37,6.43-15.02.55-.94,4.08-6.09,4.6-6.11.45-.02,6.06,4.44,7.31,5.22,3.5,2.19,7.36,3.82,10.98,5.8-4.44,6.81-4.88,15.21-5.99,23.08-5.37-2.43-10.89-4.7-16-7.68ZM96.02,471.95c-.4.39-8.24-1.71-9.6-2.09-1.69-.47-10.61-3.13-11.1-3.88-.95-1.44.15-3.21.29-4.56.47-4.53.96-8.56,2.73-12.85.31-.75,2.51-5.17,2.75-5.35.72-.52,13.11,4.46,15.53,3.55-2.75,8.14-1.85,16.81-.6,25.17ZM117.49,468.77c.42.99,4.76,6.97,4.31,7.38-1.2,1.07-17.16-2.57-20.01-2.47-.92-.25-1.41-3.37-1.53-4.47-.59-5.5-.85-12.87.99-18.11,1.89-5.38,3.22-2.03,7.91-2.48,1.68,7.15,5.02,13.66,8.32,20.15ZM145.93,384.58c3.97,14.73,12.87,33.21,20.92,46.21,1.69,2.73,2.95,6.1,6.52,4.93,2.49-.81,1.63-2,.86-3.92-2.78-6.98-8.34-14.8-11.8-21.77-3.62-7.29-6.96-15.12-9.5-22.87-.81-2.47-2.28-10.32-3.26-11.73-.57-.82-3.2-.79-4.15-.51-2.3.66-.09,7.85.39,9.66ZM376.85,432.99c-5.84,7.89-11.65,15.85-18.62,22.76-.52.52-.67,1.31-1.03,1.65-1.02.97-4.39,2.79-4.97,3.75-.28.46.53,1.87.91,2.13,3.23,2.17,8.46-3.11,10.6-5.31,5.24-5.37,10.5-11.73,14.86-17.84.9-1.26,4.63-6.35,3.29-7.7-.97-.97-4.04-.46-5.04.56ZM186.81,450.99c-1.94-1.98-2.11-4.15-5.85-2.28-1.73.87-1.64,1.38-.88,3.01,1.48,3.17,12.86,14.16,16.06,16.31,1.98,1.33,3.38,2.07,5.59.84,1.94-1.08,1.6-1.66.39-3.22-1.14-1.48-3.09-3.04-4.38-4.28-3.59-3.44-7.39-6.78-10.93-10.37ZM193.37,436.59c2.56,4.79,4.93,9.77,7.89,14.34,1.45,2.23,4.45,7.1,7.13,7.27,1.46.09,3.2-.21,2.63-2.05-4.47-6.89-8.43-14.07-12.22-21.36-.89-1.01-2.84-1.54-4.12-1.14-.83.26-1.75,2.08-1.32,2.94ZM395.62,434.38c-1.37,2.42-3.45,5.95-5.01,8.17-.6.86-2.03,1.72-2.38,2.41-1.67,3.32,2.34,3.3,4.67,2.27,1.7-.75,4.62-5.13,5.72-6.87,1.25-1.96,7.47-13.14,6.07-14.55-5.76-2.62-6.83,4.61-9.07,8.56ZM422.43,413.8c-2.92.19-2.22,2.61-3.03,4.81-1.83,4.94-5.68,11.26-6.8,15.99-.83,3.5,4.15,3.75,6.02.61s6.14-13.32,6.49-16.88c.07-.69.11-3.61-.07-3.86-.12-.17-2.11-.7-2.61-.67ZM309.52,421.42c-.69,3.12-8.36,10.84-2.7,12.06,3,.65,3.76-1.42,5.09-3.67,1.65-2.8,7.22-14.21,6.44-16.84-.24-.81-2.97-1.72-3.76-1.5-1.66.45-4.14,8.02-5.08,9.95ZM319.91,453.38c-1.71,3.26-3.42,6.55-5.21,9.78-.89,1.6-4.28,6.31-4.6,7.4-1.02,3.51,4.42,3.14,5.76,1.85.57-.55,3-4.6,3.63-5.66,1.24-2.08,6.69-12.19,5.45-13.93-.62-.87-4.27-.8-5.04.56ZM128.7,425.16c-3.31.25-1.79,5.24-1.34,7.36.49,2.34,1.31,5.26,2.07,7.52.77,2.28,1.55,6.05,4.17,6.61,3.55.76,3.51.16,3.04-3.04-1.26-2.19-4.03-17.16-4.76-17.72-.21-.16-2.77-.76-3.18-.73ZM334.9,425.22c-1.5,2-4.46,6.1-5.63,8.16-.52.92-1.26,2.15-.1,2.92,3.06,2.02,4.62.44,6.6-1.8,2.25-2.54,5.95-7.91,7.7-10.88,2.07-3.5,1.29-5.62-3.11-4.31-.95.28-4.62,4.79-5.47,5.92ZM403.22,449.13c-2.83-.03-2.37,1.43-3.57,2.47-3.44,2.98-7.14,6.29-10.91,8.88-.64.44-3.63,1.78-3.74,1.95-.96,1.47,1.88,3.03,3.19,2.95,3.15-.2,10.13-5.58,12.64-7.8,1.21-1.08,6.68-6.15,5.06-7.76-.15-.15-2.21-.67-2.66-.68ZM210.25,425.77c-1.16-2.57-2.56-5.17-3.64-7.76-.84-2.03-2.93-9.06-4.5-9.89-1.34-.7-3.71-1.27-4.52.29-.96,1.85,2.95,7.61,3.21,10.01.7,1.57,3.54,7.59,4.45,8.44,1.42,1.33,5.32,2.01,5-1.09ZM339.1,447.4c-1.5,2.66-3.81,5.63-5.72,8.07-1.02,1.31-2.42,1.6-2.44,3.59-.04,3.21,3.87,2.45,5.75.91,1.63-1.34,5.89-7.19,7-9.19.98-1.77,2.25-3.97,1.61-6.03-.34-1.1-2.64-1.81-3.73-1.5-1.47.41-1.76,2.89-2.47,4.15ZM359.23,416.58c-.77,3.45-7.53,12.14-7.3,14.91.18,2.23,3.89,1.63,5.46,1.23,1.67-2.98,7.98-13.22,7.13-16.16-.36-1.24-3.34-1.19-4.39-.88-.45.14-.72.48-.9.89ZM301.74,455.89l-6.62,14.07c-.75,2.71,1.66,2.97,3.8,2.59,1.59-.28,3.06-3.1,3.81-4.58.81-1.58,5.03-11.44,4.26-12.2s-4.37-.8-5.27.11ZM221.99,452.97c.15,1.34,4.74,8.41,5.9,9.69,1.01,1.11,3.4,3.18,4.76,3.63,1.47.49,5.9.61,4.54-1.54-.8-1.27-3.04-2.82-4.16-4.23-1.4-1.76-5.64-9.74-6.72-10.06-.74-.22-2.1-.24-2.83-.02s-1.56,1.81-1.48,2.53ZM152.5,443.34c-.73-1.92-2.52-8.81-3.73-9.45-2.31-1.21-5.14-.87-4.79,2.36.3,2.7,3.3,9.59,4.87,11.93.65.97,1.76,2.16,2.87,2.52.71.23,3.39.5,3.63.26.65-.62-2.35-6.3-2.86-7.63ZM171.24,402.43c.74,2.11,5.65,10.78,7.17,12.02,1.27,1.03,5.19,2.07,5.15-.32-.03-1.81-5.52-8.88-6.74-11.28-1.07-2.1-1.57-6.94-5.52-5.78-1.74.51-.51,4.09-.06,5.36ZM242.86,456.65c-.37,2.66.61,7.22,1.69,9.72,1.19,2.73,2.91,5.91,6.34,4.91,2.64-.77-.81-6.36-1.28-8.17-1.01-3.86.36-9.64-5.78-7.87-.71.2-.89.76-.98,1.42ZM422.1,392.53c0-1.31-1.8-3.29-3.3-3.29-4.09,0-2.14,3.68-2.05,5.69.06,1.33-.6,2.36-.66,3.57-.07,1.52-.26,5.35.09,6.54.45,1.56,5.6,1.32,5.93.07.57-2.15,0-9.7,0-12.59ZM383.14,356.56c-.33-2.28-4.49-4.27-5.29-.48.29,3.06-2.21,10.39-1.02,12.78.71,1.42,3.46,2.79,5.07,2.36.75-4.44,1.88-10.2,1.23-14.66ZM336.95,391.31c-.52-5.32,3.41-13.13-4.77-13.47-.22,2.7-2.52,13.62-.22,15.02.77.47,3.79.92,4.36.51.16-.11.44-1.63.63-2.07ZM138.69,456.56c.2.68,4.51,6.46,5.28,7.3,1.7,1.85,7.88,4.59,7.11.7-.26-1.34-4.44-6.11-5.58-7.62-1.57-2.08-2.01-4.65-5.96-3.5-1.21.35-1.15,2.13-.86,3.12ZM174.57,461.44c-1.22-1.82-4.63-4.4-6.33-6.25s-1.73-3.82-4.78-3.65c-.44.02-2.59.55-2.69.65-1.83,1.79,8.08,11.33,10.59,11.88.83.18,3.29-.07,3.78-.51.4-.35-.21-1.58-.57-2.12ZM175.94,365.32c-3.86-.65-2.8,12.13-.68,14.2.24.24,3.4,1.31,3.7,1.25,2.58-.56.65-4.49.41-6.26-.2-1.49-.49-3.4-.62-4.82-.08-.89.76-2.27-.13-3.13-.11-.1-2.51-1.21-2.68-1.24ZM162.32,468.43c-3.55,1.12,3.03,7.47,4.41,8.63,1.78,1.49,5.57,4.44,7.83,3,2.77-1.76-3.51-5.81-4.53-6.9s-2-3.28-2.82-4.07-3.82-1.01-4.89-.67ZM215.59,468.37c.95,1.84,9.71,7.59,11.97,7.8.99.09,3.61.21,3.92-.92.56-2.02-3.48-3.32-4.76-4.22-2.76-1.93-6.96-6.7-10.45-5.6-1.24.39-1.2,1.92-.68,2.94ZM220.96,426.43c1.63,1.3,4.35,1.54,4.56-.94.04-.5-1.85-8.74-2.13-9.28-.59-1.1-4.49-2.35-5.06-1.77-1.62,1.63.85,10.57,2.63,11.99ZM369.98,385.07c-.25.29-1.79,6.64-1.85,7.45-.17,2.41.19,3.47,2.73,3.89.54.09,2.54.12,2.65-.01.45-.54,1.57-10.16,1.18-10.7-.33-.47-4.44-.95-4.71-.62Z"/>
</svg>