<?xml version="1.0" encoding="UTF-8"?>
<svg id="animal" xmlns="http://www.w3.org/2000/svg" viewBox="0 0 503.46 542.35">
  <path d="M449.69,347.04c-7.43-33.75-21.15-64.58-41.93-94.26-17.6-25.13-39.89-49.1-70.17-75.45-.86-.75-1.76-1.54-2.67-2.35-3.14-2.76-6.38-5.61-9.39-7.91-.97-.73-2.09-1.5-3.27-1.52h-.78s-.45.62-.45.62c-28.66,39.22-72.56,69.37-123.62,84.9-16.41,4.99-34.76,9.11-51.68,11.59-.12.02-.27.02-.43.02-.27,0-.56-.02-.85-.03-.32-.01-.64-.02-.91-.02-.67,0-1.21.06-1.65.39-.98.69-3.46,7.7-3.47,7.76-2.42,7.92-3.2,19.19-1.97,28.04,4.42,31.51,34.34,49.97,59.92,62.53l.18.08.16.04c.44.1,2.22.97,3.52,1.6,3.42,1.66,4.53,2.14,5.29,2.14.46,0,.88-.17,1.18-.48.98-.99.35-2.27-.44-3.88-1.18-2.41-2.23-4.85-.91-5.84.25-.17,1.28-.76,4.45-.76,1.13,0,2.11.08,2.61.12.35.03,1.36.3,2.16.52,1.78.48,3,.79,3.85.79.56,0,1-.14,1.36-.44,1.21-1.01.45-2.11-1.2-4.52-.97-1.42-3.85-5.62-3.82-6.99.75-.49,2.68-1.54,3.13-1.68l12.94-2.54-3.47-2c-5.5-3.17-11.34-5.85-17-8.44-4.25-1.96-8.65-3.97-12.83-6.17-3.98-2.08-8.72-4.76-14.1-7.97-16.81-9.99-28.42-19.17-29.59-23.4-.09-.32-.08-.78-.07-1.25.02-.62.04-1.32-.14-2.06-.12-.47-.28-1.09-.48-1.83-2.29-8.67-3.1-13.8-2.42-15.27.16-.05.51-.12,1.06-.12,1.1,0,2.02.25,2.31.43,1.24,2.26,2.55,8.6,3.33,12.41.16.8.31,1.51.43,2.09.07.29.07.66.08,1.05,0,.56.02,1.18.2,1.79.48,1.67,10.78,10.66,10.89,10.75.13.11,14.9,11.16,17.31,11.16.49,0,.95-.21,1.27-.58.43-.53.41-1.04.37-2.4-.02-.53-.05-1.33-.01-1.6,1.82-12.26,13.57-26.07,25.15-29.53,4.48-1.34,9.44-2.02,14.74-2.02,11.11,0,22.77,2.99,31.99,8.21,3.11,1.75,6.05,3.55,7.76,6.2l.83,1.3,1.28-.87c19.25-13.15,34.73-26.26,47.32-40.08,3.46-3.82,6-6.79,7.54-8.84.66-.88,1.34-2.01,2.06-3.2,2.08-3.43,4.66-7.69,7.74-7.69.36,0,.73.05,1.12.17.09.08.49.63-.18,3.71-1.79,8.07-15.52,22.16-21.35,27.85-14.65,14.29-32.13,27.49-51.96,39.24-2.83,1.67-6.54,3.8-10.22,5.42l-.88.38-.02.95c-.05,1.92,2.22,2.5,3.31,2.77l.31.09c1.25.34,6.32,1.62,8.37,1.62.59,0,1.06-.18,1.44-.33.22-.08.43-.16.59-.16.38.06,1,.43,1.34.91.16.23.19.38.18.43-.41,2.15-2.83,3.73-5.18,5.25-1.08.71-2.1,1.37-2.95,2.11-.78.68-2.4,2.09-1.88,3.69.53,1.62,2.55,1.79,4.52,1.95,1.83.16,3.71.25,5.53.34,1.56.07,3.13.15,4.68.27.14.01.34.01.57.01.5,0,1.2-.02,1.94-.04.75-.03,1.53-.05,2.15-.05.05.81-.1,2.07-.34,2.44l-.06.07-7.28,12.28,3.02-.36c7.71-.91,15.61-3.39,24.86-7.81,25.82-12.33,44.77-29.47,65.4-59.15,1.45-2.09,2.84-4.37,4.19-6.57,1.66-2.73,3.38-5.55,5.19-7.96.43-.57,1.62-1.19,2.81-1.19.52,0,.94.13,1.14.36.26.29.27.83.23,1.23-.41,3.88-7.18,13.68-9.73,17.36l-.3.45c-18.87,27.43-41.37,46.28-70.79,59.34-.37.16-1.55.58-2.59.95-3.61,1.28-3.93,1.42-4.29,1.88-.28.36-.45.83-1.02,2.7-.27.86-.59,1.92-.77,2.3-8.21,18.04-27.41,28.39-52.69,28.39-3.07,0-6.22-.16-9.34-.47-.72-.08-1.65-.33-2.55-.58-1.21-.34-2.47-.68-3.59-.69-1.41,0-2.66.56-3.87,1.09-1.03.46-2.01.89-2.91.89-.31,0-.6-.05-.89-.15-2.48-1.17-5.01-2.33-7.55-3.5-9.98-4.58-20.3-9.32-29.44-14.94-.58-.35-1.28-.93-2.02-1.55-1.11-.92-2.26-1.87-3.37-2.37-.37-.16-.74-.31-1.2-.31-.38,0-.68.1-.97.2l-.08.02c-1.58.51-4.82,2.44-10.52,6.27-14.98,10.07-24.71,22.2-28.91,36.08-4.28,14.13-2.72,29.72,4.66,46.35,8.55,19.28,22.2,30.31,36.64,42,4.43,3.57,9,7.27,13.48,11.26,1.2,1.07,4.69,4.17,5.21,6.41.03.16.05.31.06.45.02.41-.11.73-.4,1.03-.17.17-1.3,1.18-7.4,4.15-2.25,1.08-4.63,2.01-7.14,2.99-6.17,2.41-12.54,4.9-17.1,9.8l-1.78,1.92,2.56.56c.93.21,1.86.45,2.79.7,1.57.4,3.19.82,4.83,1.08,4.66.73,9.52.89,14.23,1.04,1.71.06,3.41.12,5.08.2,1.29.06,2.58.13,3.88.2,4.87.27,9.9.54,14.9.54,11.71,0,20.39-1.52,28.15-4.93,8.2-3.6,8.6-8.59,6.39-14.95-.1-.28-.2-.56-.31-.85-1.43-3.8-3.55-7.81-5.8-12.06-3.17-5.98-6.45-12.17-7.49-17.49-.07-.36-.06-1.15-.05-1.74.02-1.28.03-1.98-.41-2.58-.31-.42-.68-.6-2.5-1.47-1.42-.67-3.8-1.81-4.58-2.45-1.41-1.16-2.31-2.54-2.35-3.04.08-.05.25-.12.59-.18.32-.06.68-.09,1.05-.09,2.46,0,5.38,1.3,8.2,2.55,1.61.71,3.12,1.39,4.59,1.85,14.96,4.74,32.57,5.9,46.24,6.38,1.44.05,2.94.08,4.44.08,8.93,0,17.86-.9,26.49-1.77,5.02-.5,10.22-1.03,15.35-1.36.56-.04,1.05-.22,1.48-.37.33-.12.65-.24.95-.24.66,0,.87.23,1.55,1.28.21.33.43.67.68,1,.31.39.7.55,1.04.65,2.18,3.11,4.04,6.14,5.84,9.07,5.41,8.8,10.51,17.12,22.35,23.35,8.85,4.66,17.94,7.02,27.04,7.02h.01c21.09,0,40.9-12.56,54.36-34.45,21.47-34.91,24.43-92.89,16.31-129.71ZM352.63,83.97c-2.57-17.44-10.78-31.34-23.12-39.14-8.95-5.66-18.66-8.52-28.84-8.52-16.71,0-33.51,8.13-44.94,21.75-11.34,13.52-16.15,30.95-13.18,47.8.4,2.26,3.49,11.79,5.3,13.6.71.71,1.85,1.18,3.17,1.73,1.63.68,3.87,1.6,4.1,2.73.1.48.03.68.01.71-.05.06-.36.23-1.15.23-.43,0-.94-.05-1.5-.15-1.91-.33-4.51-1.77-7.03-3.17-2.52-1.4-4.91-2.72-6.94-3.17-8.36-1.82-16.24-4.34-23.86-6.78-11.61-3.71-23.61-7.55-37.37-8.9-2-.2-4.05-.3-6.25-.3-3.41,0-6.64.23-10.05.47-2.15.15-4.38.31-6.64.4l-.41.02c-1.7.06-4.86.18-7.64.18-3.34,0-4.32-.17-4.56-.24-.32-.15-.7-1.1-.72-1.65,2.55-.98,15.59-2.53,20.38-2.53.27,0,.5.01.66.02l.45.08.43-.26c.4-.17,1.95-.29,2.61-.33,1.28-.09,1.71-.13,2.19-.61.35-.36.42-.63,1.01-2.91.27-1.04.64-2.46.83-2.93,1.16-2.92,2.36-5.58,3.53-8.16,3.89-8.59,7.25-16,6.48-27.57-.93-13.83-5.92-26.76-14.07-36.42-8.45-10.02-19.59-15.54-31.35-15.54-8.68,0-17.45,2.92-26.07,8.66-27.27,18.17-35.86,58.67-18.75,88.43.31.55.71.97,1.06,1.34.32.33.59.62.72.9.48,1,.44,1.06-.06,1.72-.29.4-.69.94-1.01,1.7-3.67,8.88-7,18.47-10.22,27.74l-.6,1.71c-7.45,21.48-16.61,49.87-21.25,79.01l-.04.26.05.26c.22,1.17,1.27,1.85,2.28,2.5,1.49.97,1.95,1.44,1.88,2.03-.58-.06-1.5-.5-2.01-.74-.58-.27-.9-.42-1.33-.42h-.77s-.45.59-.45.59c-.33.43-.35.8-.41,1.91-.03.63-.12,2.31-.28,2.67l-.23.35-.08,2.56c-.19,6.04-.37,11.75-1.13,17.48-.04.32-.32,1-.52,1.5-.44,1.07-.76,1.85-.58,2.61.24,1.03,1.15,1.53,1.81,1.9.21.12.52.29.59.36,1.18,1.27,2.92,4.23,3.44,5.86.12.37.33,1.49.52,2.48.6,3.2.76,3.89,1.43,4.37.45.32.98.39,1.68.39.29,0,.63-.02.97-.03.31-.01.62-.02.89-.02.14,0,.27,0,.36.01.11.02.46.14.7.21.82.28,1.41.46,1.95.46.83,0,1.28-.43,1.47-.69.38-.51.36-1.06.34-1.6,0-.17-.02-.52,0-.76.35.24.92.92,1.21,1.27.66.8,1.19,1.43,1.95,1.64.67.18,1.47.27,2.53.27s2.23-.09,3.37-.18c1.1-.08,2.23-.17,3.21-.17.62,0,1.12.04,1.52.11l2.91.51-1.3-2.65c-.11-.22-.27-.5-.44-.81-.29-.52-1-1.8-1.13-2.46.03,0,.06,0,.1-.01,1.09,0,2.37,2.29,2.98,3.39.67,1.19,1.16,2.05,2.23,2.05h11.92l-2.08-2.47c-.81-.96-1.19-1.63-1.36-2.05.56.2,1.43.68,2.51,1.69.09.09.24.41.32.6.28.59.68,1.48,1.7,1.64.39.06.79.1,1.24.1,1.16,0,2.34-.23,3.49-.44,1.1-.21,2.15-.41,3.13-.41.36,0,.69.03.99.08l.38.07.37-.11c1.28-.42,2.87-.51,4.55-.61,2.78-.15,5.65-.31,7.9-1.97,10.73-7.92,12.77-18.21,14.05-28.96.06-.49.03-1.24.01-2.03,0-.25-.01-.57-.02-.85h.23c1,0,1.91.27,2.26.45.18,1.19.1,4.97-.07,6.92-.2,2.12-.97,5.49-1.3,6.85-1.42,5.96-4.18,10.59-8.98,15.01l-.52.48.04.71c.05.82.66,1.78,2.22,1.78.26,0,.54-.03.77-.05l.17-.02c57.18-5.71,115.52-31.25,152.24-66.64,7.13-6.87,13.69-14.5,20.04-21.87,5.22-6.07,10.62-12.34,16.22-18.05,2.12-2.16,4.56-3.98,7.14-5.9,3.06-2.28,6.23-4.65,8.82-7.64,11.98-13.82,17.71-36.36,14.6-57.42Z" fill="#877061"/>
  <path d="M321.05,406.12c-6.75,30.2-2.06,55.47,1.51,68.93-16.91.83-36.09.78-57.08-.97-17.33-1.45-33.2-3.82-47.42-6.61-4.35-1.82-33.1-14.4-44.26-47.46-10.65-31.56,2.75-57.98,6-63.8,9.67,4.56,19.65,8.44,29.86,11.61-.52-3.58-1.05-7.16-1.57-10.74,4.88-.26,9.76-.53,14.64-.79-1.73-2.15-3.5-4.38-4.33-7.01-.83-2.64-.52-5.83,1.49-7.73,3.09-2.93,8.41-1.6,11.96-3.96-16.63-9.47-33.26-18.95-49.89-28.42-7.83-4.46-15.72-8.96-22.78-14.54-.14-.43-.29-.86-.44-1.29-2-3.75-4.3-8.99-5.8-15.54-1.6-7.05-1.72-13.16-1.47-17.57,18.97-2.41,47.66-8.4,78.82-24.74,25.04-13.13,43.32-28.57,55.52-40.64,4.3,2.41,26.99,15.57,44.85,40.64-5.96,8.64-12.04,17.25-19.34,24.78-6.53,6.75-13.97,12.55-21.51,18.15-14.04,10.44-28.57,20.29-44.01,28.52,3.96,3.56,9.28,5.58,14.6,5.54-3.99,4.07-8.33,8.47-12.32,12.54,7.82,2.65,16.21,3.61,24.44,2.81-2.82,4.51-5.6,9.28-8.42,13.8,19.18.92,37.93-7.08,53.32-18.57,13.04-9.74,24.02-21.89,34.59-34.32,4.74,34.9-7.41,62.4-13.07,73.43-6.12,9.95-13.6,24.78-17.89,43.95Z" fill="#efd5c7"/>
  <path d="M404.33,512.76c.48,4.3.98,8.74-.31,13.76-1.57,6.1-9.67,7.27-15.03,8.04-.44.06-.86.12-1.26.19-5.57.85-10.71,1.27-15.72,1.27-5.08,0-9.87-.42-14.65-1.29-.51-.09-5.13-.91-5.83-1.5-.64-.51-.82-1.86-.51-3.99.36-2.44,4.69-11.84,7.99-12.85.4-.12.89-.18,1.48-.18,1.81,0,4.51.55,7.13,1.07,1.77.36,3.45.7,4.42.77.92.07,1.88.1,2.85.1,6.57,0,14.38-1.6,21.99-4.52.51-.19,1.03-.49,1.58-.8,1.16-.66,2.47-1.41,4.09-1.41.13,0,.25,0,.38.01l1.24.09.14,1.24Z" fill="#e1b495"/>
  <path d="M225.54,357.07c.3-.44.33-1.2.1-2.24-.18-.79-1.67-3.39-2.66-5.11-1.72-3-2.06-3.64-2.06-4.32.03-2,2.44-2.74,9.67-3.95.81-.13,1.57-.26,1.84-.33,1.04-.26,2.8-.89,2.91-2.19.09-1.13-1.11-2.91-3.52-3.96l-37.75-19.49-.1-.07c-3.71-2.74-1.11-10.5-.23-12.81,6.08-15.94,19.99-25.45,37.21-25.45,6.77,0,13.77,1.57,20.26,4.54,2.3,1.06,9.94,4.89,12.11,9.78.33.75.34,1.41.03,1.97-.42.78-1.21.93-1.54.99-2.21,1.33-4.64,2.63-6.98,3.89-3.44,1.84-6.99,3.75-9.95,5.79l-.14.1c-2.68,1.84-2.73,1.88-2.27,5.02.17.36,1.67,1.49,4.32,2.57,2.48,1.02,5.21,1.68,7.49,1.83l3.08.2-2.06,2.3c-1.11,1.23-2.81,2.14-4.45,3.01-3.2,1.7-5.12,2.88-4.79,5.05.11.43,1.23,1.67,2.06,2.16.79.46,6.09,2.18,7,2.26.35,0,1.2-.02,2.27-.05,1.78-.04,4.21-.1,6.06-.1,2.68,0,3.16.1,3.64.47l.5.39.09.68c.1.9-.45,1.57-2.46,4.06-1.44,1.77-4.8,5.92-4.79,7.13.02.29.27,1.42.45,2.11,1.03.33,3.31.91,3.83.95,1.52-.01,3.75-.51,5.91-.99,1.46-.32,2.84-.63,4.06-.8l.1-.02c.31-.05.78-.12,1.26-.12,1.7,0,2.2,1,2.33,1.42l.24.75-.47.62c-.53.69-.92,1.53-1.33,2.42-.46.99-.94,2.02-1.66,2.97-2.06,2.73-7.79,7.97-10.56,9.89-8.67,5.97-22.68,9.98-34.86,9.98-3.81,0-7.26-.4-10.26-1.19-1.39-.38-3.4-.92-4.47-2.1l-.17-.19-4.53-10.67,10.64,2.29.42-.06c1.77-.27,3.59-.54,4.16-1.37Z" fill="#ffd368"/>
  <path d="M468.13,246.09c-4.28,1.54-6.5,2.27-7.54,2.27-.76,0-1.19-.35-1.41-.65-.28-.33-.32-.69-.38-1.28-.03-.28-.08-.81-.14-1.02-.13-.43-.53-1.56-.99-2.87-4.24-12.1-4.15-12.78-3.06-13.68.42-.38.86-.39,1.83-.4.42,0,1.13-.02,1.41-.07.38-.07,1.66-.45,2.79-.78,3.24-.95,4.42-1.26,5.04-1.26h.46l.48.27c1.06.74,1.73,2.59,3.25,7.3.85,2.62,2.01,6.21,2.75,7.06l.08.09.06.1c.16.26,1.21,2.81-.09,3.81-.47.34-.92.34-1.22.34h-.58c-.49,0-.64.03-.67.04-.29.08-1.16.4-2.07.72ZM469.02,271.14c.17.46.5,1.8.74,2.79.48,1.97.56,2.24.83,2.58.22.27.64.6,1.35.6,1.44,0,6.28-1.72,7.24-2.06,6.45-2.33,6.5-2.97,6.56-3.85l.03-.36-9.79-23.05-.21-.21c-.36-.36-.87-.55-1.5-.55-1.18,0-3.19.62-6.38,1.65-1.85.6-4.38,1.41-5.04,1.41l-2.24-.15.73,2.13c1.27,3.71,2.82,7.36,4.32,10.89,1.14,2.67,2.31,5.43,3.34,8.18ZM448.59,204.07l3.14-2.86c.66-.39,3.8-.58,4.99-.65,1.93-.12,2.39-.14,2.88-.6.97-.9.79-2.46-.36-7.4-.15-.66-.28-1.2-.33-1.5-.21-1.22-.42-2.45-.62-3.69-.95-5.66-1.93-11.52-3.21-17.14-.02-.11-.04-.25-.06-.4-.12-.91-.42-3.05-2.34-3.05h-.19s-1.34.19-1.34.19l-.06,1.24c-.09,1.88-.51,3.88-.92,5.81-.32,1.51-.65,3.07-.83,4.6-.61,5.17-1.05,12.63-.67,17.66.05.67.22,1.28.37,1.82.18.65.34,1.21.26,1.71l-.72,4.25ZM449.9,210.12c.33,2.98.66,6.06,1.27,9.04.01.07,1.36,6.9,2.14,7.71.21.22.6.48,1.2.48h0c.75,0,2.17-.46,5.49-1.58,1.65-.56,4.14-1.4,4.68-1.45l1.76-.13-4.96-20.6-.17-.24c-.72-.99-1.6-1.2-2.22-1.2s-1.18.21-1.62.39c-.2.08-.46.18-.56.19-.57.05-1.14.1-1.71.14-1.52.12-3.1.24-4.66.5l-1.44.24.2,1.44c.23,1.67.42,3.4.6,5.07ZM479.18,375.24l-.07-.07c-1.58-1.5-2.97-3.38-4.31-5.21-.98-1.34-2-2.72-3.1-3.97-.03-.03-2.86-3.23-3.81-3.68l-.33-.14h-.32c-1.25,0-1.63,1.14-1.95,2.06-.07.21-.19.56-.23.64-.19.28-.48.56-.79.86-.68.65-1.53,1.46-1.77,2.79-.3,1.73.02,3.15.29,4.4.15.67.29,1.29.31,1.9.18,4.03.09,8.17,0,12.18-.08,3.77-.16,7.67-.02,11.5l.15,4.12,8.22-10.56c.08-.12,8.43-12.09,8.43-14.91,0-.7-.21-1.32-.63-1.84l-.06-.08ZM476.45,299.87l2.33-.68c3.27-.96,6.97-2.05,10.54-2.82.22-.05.79-.07,1.1-.08.67-.02,1.07-.03,1.52-.42.83-.74,1.12-.98-2.07-12.33l-.17-.65c-1.55-5.8-1.99-6.61-2.62-7.07-.52-.39-1.08-.58-1.66-.58-.51,0-.93.15-1.27.27-.09.03-.18.06-.26.09-.86.26-1.71.57-2.53.88-1.11.41-2.16.79-3.24,1.07-.4.11-1.46.27-2.32.4-1.81.28-2.13.33-2.53.61-1.15.84-.92,1.81,1.2,9.11.95,3.27,2.54,8.73,2.4,9.82l-.42,2.38ZM485.44,324.24c-1.45-.21-2.82-.41-3.33-.52-.23-.05-.98-.37-1.38-.54-.92-.4-1.3-.56-1.74-.56h-.74s-.45.56-.45.56c-.46.57-.44,1.14-.35,3.03.03.6.07,1.42.04,1.7-.11,1.09-.32,2.5-.51,3.75l-.14.91c-.37,2.42-1.11,5.19-1.72,7.34l-.37,1.3,1.26.5c3.58,1.42,6.96,4.17,10.23,6.82.57.46,1.12.91,1.68,1.36l.41.33h.53c1.65,0,2.33-1.56,3.48-7.97l.04-.21c.58-3.15.92-6.38,1.25-9.5.18-1.73.37-3.46.59-5.18l.09-.73-.52-.52c-.58-.58-1.48-.84-8.34-1.84ZM494.25,305.24c0-.51-.24-.85-.4-1.08-.06-.08-.18-.26-.2-.33-.02-.18,0-.6,0-.98.06-1.55.17-4.15-2.07-4.73-.16-.04-.33-.06-.52-.06-.88,0-3.02.54-6.44,1.42-1.59.41-3.24.84-3.86.94-.19.03-.35.04-.5.04-.17,0-.32-.01-.44-.02-.16-.01-.3-.02-.42-.02-.8,0-1.26.35-1.51.65-.62.75-.44,1.74-.3,2.52.07.42.27.73.47.97v15.95c0,.47.2,1.56,2.02,1.56.29,0,.65-.01,1.04-.02.38-.01.77-.03,1.1-.03.17,0,.31,0,.42.01.44.05,1.83.35,3.17.63,3.3.7,5.71,1.19,6.69,1.19h0c.22,0,.85,0,1.34-.52.6-.65.86-.92.48-14.6-.04-1.62-.08-2.92-.08-3.5ZM483.83,347.66c-6.41-5.07-6.8-5.25-7.58-5.25-1.59,0-2.17,1.69-3.33,5.5-.18.59-.36,1.2-.45,1.42-.19.48-.84,1.82-1.52,3.24-3.08,6.4-3.15,6.74-3,7.47.16.7.6,1.25,4.62,5.11,1,.96,1.94,1.86,2.27,2.23.45.5,1.01,1.32,1.54,2.11.8,1.17,1.62,2.38,2.46,3.13.81.7,1.56,1.06,2.24,1.06h0c.55,0,1.07-.24,1.41-.65l.18-.21,7.04-20.82-1.04-.62c-.61-.36-2.86-2.14-4.85-3.72ZM46.11,250.48c-.91,0-1.94.11-3.34.36-2.91.51-6.81,3.51-8.5,5.47-3.29,3.81-4.76,8.14-4.03,11.87.61,3.13,2.71,5.7,6.08,7.42,2.81,1.44,5.48,2.18,7.95,2.18h0c5.51,0,9.59-3.61,11.49-10.16,1.57-5.4.75-9.11-3-13.68-2.02-2.45-3.95-3.45-6.64-3.45ZM153.7,32.84c-7-6.4-16.47-7.64-17.55-7.77-15.11-1.79-28.07,7.82-34.22,15.73-11.93,15.35-10.76,40.42,4.18,61.06,7.16.33,14.98.39,23.37,0,8.71-.4,16.76-1.23,24.08-2.28,13.7-27.5,13.43-54.58.13-66.74ZM333.89,81.62c-1.19-3.17-5.66-15.07-17.72-21.11-14.06-7.04-30.8-2.26-40.62,5.38-15.67,12.2-20.69,37.15-10.35,60.33,6.85,1.51,14.68,3.71,23.1,6.97,10.35,4.01,19.03,8.63,25.99,12.93,1.34-1.42,31.12-33.85,19.61-64.5Z" fill="#e1b495"/>
  <path d="M228.23,518.61c-7.76,3.41-16.44,4.93-28.15,4.93-5,0-10.03-.27-14.9-.54-1.3-.07-2.59-.14-3.88-.2-1.67-.08-3.37-.14-5.08-.2-4.71-.15-9.57-.31-14.23-1.04-1.64-.26-3.26-.68-4.83-1.08-.93-.25-1.86-.49-2.79-.7l-2.56-.56,1.78-1.92c4.56-4.9,10.93-7.39,17.1-9.8,2.51-.98,4.89-1.91,7.14-2.99,6.1-2.97,7.23-3.98,7.4-4.15.29-.3.42-.62.4-1.03-.01-.14-.03-.29-.06-.45,10.27-.07,21.37.22,31.23,2.69,5.9,1,11.9,2.28,17.82,2.09,2.21,6.36,1.81,11.35-6.39,14.95Z" fill="#e1b495"/>
  <path d="M233.05,339.02l-15.13,4.7,5.22,12.87-14.96-.7,3.13,15.31c-10.38-5.22-20.76-10.44-31.13-15.65,3.53-2.24,8.62-6.08,13.22-12.18,6.1-8.09,8.32-16.16,9.22-20.7l30.44,16.35Z" fill="#e1b495"/>
  <path d="M274.33,289.21c1.96,6.18,5.7,15.36,13.02,24.71,5.73,7.32,11.79,12.38,16.47,15.69-4.27,3.09-10.92,7.14-19.82,9.86-7.69,2.35-14.47,2.92-19.35,2.95,2.9-5.08,5.8-10.15,8.7-15.23-2.95.31-6.59.43-10.71,0-5.59-.58-10.2-1.99-13.56-3.32l11.56-10.12c-1.19.18-6.01.75-10.38-2.36-2.35-1.67-3.62-3.72-4.25-4.96,9.44-5.74,18.88-11.48,28.31-17.23Z" fill="#e1b495"/>
  <path d="M296.59,55.14c16.08-1.68,34.04,9.15,39.28,24.55,6.15,18.11,2.98,37.64-8.9,52.58-.6.76-3.67,4.01-4.26,4.18-1.42.4-4.8-1.12-3.7-3.13l10.35-16.04c9.68-25.38.79-63.1-33.37-56.75-18.86,3.51-33.98,19.82-32.18,39.67.19,2.09,1.95,7.82,1.51,9.33-.92,3.14-4.74,1.04-5.61-1.03-1.27-3.01-2.16-10.39-1.95-13.67,1.38-21.08,18.03-37.52,38.83-39.69ZM92.38,72.04c.65,4.22,3.37,14.13,6.54,16.83,1.18,1,2.26,1.72,3.91,1.52,3.46-.43.05-4.46-.6-6.03-7.84-18.96-4.86-37.7,11.07-51.26,13.6-11.58,39.12-7,45.44,10.34,4.33,11.89,2.3,23.43-1.96,34.93-.85,2.29-5.58,9.55-1.71,10.7,1.83.54,2.77-.07,3.72-1.5,6.11-9.22,9.47-25.62,7.84-36.44-2.22-14.8-10.32-22.54-24.4-26.55-5.85-1.66-12.18-2.63-18.28-1.82-21.59,2.89-34.66,29.3-31.57,49.27ZM132.63,187.91c-.35,2.62.49,4.58,2.66,6.05,2.33,1.58,6.61,3.6,9.39,2.97,2.98-.67,7.15-7.52,7.59-10.39,1.1-7.2-7.38-10.46-13.36-9.16-2.79.61-5.92,7.8-6.28,10.52ZM100.83,170.47c-.74,1.13-3.86,9.19-3.63,10,.73,2.61,10.03,5.69,12.72,5.08,3.58-.81,6.63-8.96,5.71-12.08-.33-1.11-4.8-4.19-6.07-4.71-1.44-.59-3.92-1.29-5.4-.98-1.28.27-2.61,1.62-3.32,2.69ZM282.49,125.55c.43-2.2,2.25-3.31-.89-4.76-2.81-1.3-3.38.14-4.33,2.54-.63,1.59-1.44,5.26-1.46,6.89,0,.9.75,2.66,1.43,3.32.69.68,3.37,1.71,3.92,1.17.33-.32,1.07-7.81,1.33-9.16ZM266.16,118.17c-5.62,1.8-2.4,13.59,2.21,14.04.25.02,1.92-.43,1.99-.5.4-.4-1.09-3.94-1.21-5.07-.17-1.67.84-7.21.57-7.47-.3-.3-2.94-1.2-3.57-1ZM130.29,90.47c-2.43-.66-2.88-.37-2.46,1.86.32,1.71,2.95,9.17,3.8,10.59,1.12,1.88,4.1,2.97,4.48.34.35-2.39-2.08-9.83-3.78-11.54-.22-.22-1.79-1.18-2.05-1.25ZM293.02,136.69c.71-1.74,3.44-5.49,3.65-6.59.55-2.86-4.11-3.33-5.78-1.84-.68.6-3.07,6.37-3.15,7.39-.2,2.63,4.28,3.92,4.79,3.24.07-.09.19-1.48.49-2.21ZM306.13,133.61c-2.66.29-8.84,5.89-7.3,8.91,2.11,4.14,6.98-2.26,8.69-3.94.81-.8,3.57-1.94,1.7-3.76-.23-.23-2.71-1.25-3.08-1.21ZM97.43,98.74c.86,2.55,5.68,3.53,7.92,4.67,1.56.8,3.85,3.39,5.38,2.67,1.85-.87,1.32-1.8-.09-3.16-2.03-1.96-9.86-6.06-12.56-5.33-.48.13-.87.51-.65,1.15ZM119.3,93.07c-2.41-.98-2.96-.18-2.27,2.27.42,1.48,5.44,8.16,7.05,8.55.32.08,1.76-.28,1.82-.35,1.41-1.45-4.47-9.61-6.6-10.47ZM314.94,149.01c.47-.26,3.57-2.66,3.7-2.9,1.19-2.27-1.02-3.6-3.03-3.59-2.11,0-7.63,4.42-5.57,6.47,1.12,1.11,3.56.77,4.9.02ZM183.56,92.56c10.52-18.79,12.52-36.32,5.15-56.92C179.67,10.38,154.73-2.57,128.59.42c-47.45,5.43-68.97,61.81-47.74,101.73.56,1.06,2.51,3.22,2.52,4.07,0,.61-4.02,9.24-4.67,10.93-11.64,30.39-22.09,61.5-27.71,93.67l-17.98-8.69c-9.5-3.6-19.46-5.68-29.6-3.82-1.07.22-1.47,2.69-.59,2.92,4.67,1.25,9.56.24,14.33.58,8.99.64,20.45,6.22,28.27,10.69.69.39,3.97,2.27,4.11,2.49,1.11,1.65-.26,6.93-.33,9.02-6.94-.84-13.8-2.63-20.72-3.56-7.24-.97-15.99-1.7-23.06.23-1.33.36-4.76,1.47-4.68,3.03.17,3.14,8.63.54,10.43.33,6.98-.81,13.31-.34,20.3.6,5.71.77,11.38,2.29,17.12,2.96.15,3.83.64,3.94-3.25,3.55-10.59-1.05-24.58.52-35.37,1.87-2.32.29-6.1.63-8.14,1.45-1.08.44-2.15.92-1.73,2.33.67,2.24,3.72,2.34,5.66,2.19,9.72-.79,19.59-2.54,29.33-3.03,1.71-.09,12.45-.44,12.91.02.58.58-.38,6.25-.56,7.53-.1.7.06,2.56-.03,2.66-.18.18-4.02-.08-5.06.04-11.3,1.32-19.38,11.83-18.34,23.05.47,5.1,3.07,8.24,7.59,10.4,9.86,4.72,21.53,2.28,28.4-6.21.73-.9,1.27-2.99,2.16-3.26,1.12-.34,2.33.51,3.5.57,2.29.12,4.62-.14,6.9-.01.33,3.33,1.4,6.59,1.77,9.92,1.42,12.66-.16,25.73,1.22,38.38.14,1.32-.85,1.45.34,3.21.81,1.2,2.01,2.24,3.54,1.8,1.62-.47.92-7.43,1.59-9.26-1.18-12.2.04-24.34-1.9-36.51-.2-1.26-2.03-7.27-1.75-7.54.21-.2,4.67.08,5.71.02.93-.06,4.03-1.13,4.46-.6.23.28,1.47,6.02,1.67,7.02,1.11,5.47,1.77,11.2,2.51,16.67.74,5.45.69,11.95,1.97,17.21.39,1.62,2.33,5.17,4.35,4.63,1.85-.49.36-3.94.29-5.07-.58-9.08-1.48-18.51-3.02-27.55-.74-4.35-1.94-8.65-2.95-12.93,1.86.11,8.37-1.38,9.53-.54.61.44,2.58,8.48,2.91,9.97,1.75,7.85,2.8,15.96,4.3,23.87.34,1.77-.32,3.61,1.5,5.09,3.8,3.09,3.51-3.34,3.3-5.69-.64-7.09-2.71-16.8-4.32-23.85-.78-3.41-1.83-6.72-2.83-10.05l25.78-3c-6.27,16.33-5.97,38.14,2.28,53.76,4.47,8.46,11.11,15.6,18.08,22.08.45.42,4.66,3.03,3.61,3.88-.24.19-3.12,1.19-4.01,1.69-33.18,18.77-47,49.84-35.26,87.04,9.14,28.95,30.89,45.56,53.97,62.94.74.55,2.51.77,1.12,1.77-8.39,3.04-17.31,5.81-25,10.31-1.63.95-6.18,3.66-7.03,4.96-2.07,3.16-1.01,4.84,1.53,6.92,8.28,6.79,28.41,6.99,38.98,7.77,15.31,1.14,31.38,2.78,46.57-.75,13.68-3.18,23.8-8.9,17.71-24.57-1.15-2.97-3.07-5.42-4.36-8.23-1.69-3.71-2.6-7.75-4.03-11.55-.48-1.26-4.45-9.65-4.06-10.02.74-.7,17.33,3.77,20.04,3.03,17.18,2.2,34.97,2.5,52.22.6,3.77-.42,7.53-.84,11.3-1.26,6.28,12.87,14.23,25.7,26.53,33.49,1.85,1.17,3.84,2.19,5.78,3.23,1.7.91,2.45.29.68,2.84-2.78,4.01-6.44,7.51-7.91,12.47-1.14,3.83-1.17,5.17,2.27,7.62,6.01,4.28,28.61,6.67,36.26,6.34,3.58-.16,8.26-.76,11.93-1.26,6.83-.93,18.33-2.89,21.03-10.14,1.82-4.91.54-12.39-.45-17.54-.2-1.06-1.58-4.7-1.56-4.96.06-.75,10.41-7.14,12.2-8.67,25.46-21.79,37.29-53.73,40.56-86.51,38.73-35.45,50.06-93.94,30.76-142.47-3.83-9.62-9.02-18.72-13.19-28.17-9.8-22.25-15.24-48.43-20.02-72.29-.91-4.52-1.18-12.76-3.38-16.4-.54-.9-2.06-2.09-3.08-2.31-.75-.16-4.19-.25-4.34-.07-.13.17-.01.84-.2,1.27-12.36,29.01-8.92,65.55,1.49,94.75,5.25,14.73,12.52,28.87,16.37,44.17,4.7,18.66,3.15,42.75-5.11,60.28-.28.58-.32,1.42-1.21,1.49-1.03-8.29-3.35-16.55-5.69-24.59-17.23-59.31-52.82-109.24-100.71-147.44l-27.27-21.88c-.24-1.23.28-.72.77-1.01,2.95-1.76,5.84-2.92,8.78-5.02,28.76-20.58,34.8-70.46,11.74-97.38-23.21-27.09-62.62-32.78-91.13-10.18-17.44,13.83-26.72,38.83-23.04,60.81.21,1.23,1.99,5.53,1.76,5.73-.29.26-2.5-.7-2.99-.9-16.74-6.89-28.79-11.14-47.09-13.44-1.51-.19-5.2.24-6.26-.64-.23-.19,2.74-4.33,3.11-4.98ZM70.48,260.56c-2.11-.03-1.27,2.7-1.51,3.02-.27.36-2.12-.5-2.73-.57-.87-.1-2.88.16-3.22-.08-.36-.25-1.04-4.98-1.4-6.1-.6-1.87-2.44-4.99-3.77-6.42-.56-.6-1.89-.93-2.04-1.58-.13-.56.99-2.51,1.13-3.57.86-6.5.98-13.1,1.21-19.77.54-.84.47-4.3.62-4.48.17-.2,4.1,2.49,4.76.27.91-3.06-3.81-3.97-4.09-5.43,4.29-26.92,12.28-53.08,21.19-78.76,3.35-9.65,6.9-19.97,10.78-29.38.79-1.91,2.28-2,1.05-4.62-.44-.93-1.36-1.5-1.85-2.35-16.18-28.15-9.28-68.07,18.28-86.44,35.07-23.37,66.72,5.64,69.16,42.15.97,14.61-4.89,22.44-9.91,35.08-.43,1.07-1.34,5.16-1.53,5.36-.16.16-3.62.14-4.44.65-2.92-.28-21.47,1.63-22.45,3.03-.65.92.14,3.65,1.54,4.05,1.97.57,10.46.22,13.11.11,7.8-.31,14.77-1.36,22.72-.58,22.55,2.22,39.81,11.02,61.07,15.66,3.82.83,9.92,5.65,14.02,6.35,2.41.42,4.95.25,4.37-2.57-.61-2.96-6.28-3.82-7.67-5.22-1.41-1.41-4.47-10.48-4.88-12.8-8.15-46.24,43.57-85.47,84.67-59.5,29.53,18.66,29.43,69.8,8.2,94.3-4.58,5.29-11.09,8.57-15.9,13.47-12.41,12.65-23.27,27.39-36.23,39.89-38.91,37.51-97.72,60.88-151.35,66.23-.45.05-1.48.22-1.51-.31,4.84-4.46,7.89-9.32,9.42-15.75.48-2.01,1.15-5.09,1.33-7.07.15-1.6.34-6.42-.03-7.69s-4.47-1.76-5.29-.92c-.21.22.03,2.91-.08,3.82-1.37,11.49-3.66,20.69-13.44,27.91-3.17,2.34-8.4,1.17-12.03,2.36-2.89-.53-6.21,1.11-8.89.66-.44-.07-.62-1.28-1.23-1.85-4.2-3.92-7.34-2.32-3.33,2.42h-8.69c-.63,0-2.4-5.66-5.39-5.43-3.05.23-.39,4.03.3,5.43-2.83-.5-8.02.68-10.49,0-.78-.22-2.18-3-3.58-3.02ZM323.93,470.19c-1.03-1.33-1.44-2.9-3.51-2.86-.9.02-1.68.56-2.44.61-15.38,1.01-30.56,3.6-46.14,3.05-14.79-.52-31.6-1.81-45.84-6.31-4.46-1.41-10.06-5.18-14.56-4.36-3.73.68-.87,4.26,1.08,5.86,1.5,1.23,6.61,3.34,6.83,3.65.25.35-.02,2.67.19,3.71,1.81,9.29,9.89,20.57,13.36,29.8,2.61,6.96,1.76,10.81-5.28,13.9-14.51,6.37-30.9,4.83-46.25,4.06-6.29-.31-12.92-.25-19.15-1.23-2.53-.4-5.04-1.21-7.54-1.76,6.1-6.55,15.87-8.66,23.79-12.47,1.74-.83,6.71-3.29,7.83-4.45,2.92-3.05-2.72-8.07-4.95-10.05-19-16.92-38.73-27.9-49.75-52.75-14.65-33.03-5.52-60.94,23.72-80.58,2.14-1.44,8.08-5.43,10.14-6.09.57-.18.6-.23,1.18.03,1.6.72,3.65,2.87,5.21,3.83,11.57,7.11,24.89,12.77,37.2,18.54,3,1.15,5.59-1.72,8.26-1.71,1.67.01,4.12,1.07,5.98,1.25,24.83,2.48,52.42-4.34,63.55-28.79.44-.96,1.33-4.35,1.6-4.69.21-.27,5.28-1.93,6.31-2.38,30.38-13.48,52.61-32.54,71.41-59.86,2.78-4.05,9.83-14.1,10.28-18.52s-5.23-3.64-6.87-1.45c-3.31,4.43-6.19,9.93-9.41,14.57-17.85,25.68-36.19,44.99-64.82,58.66-7.69,3.67-15.85,6.66-24.39,7.67l5.69-9.59c.71-.93.9-4.03.27-4.76-.19-.23-4.64.06-5.68-.01-3.36-.25-6.83-.32-10.19-.6-3.08-.26-4.54-.62-1.78-3.02,2.65-2.3,7.87-4.29,8.62-8.21.27-1.42-1.43-2.89-2.74-3.1-.91-.14-1.56.47-2.28.47-1.61,0-6.18-1.08-7.96-1.57-.67-.18-2.54-.52-2.52-1.37,3.51-1.54,7.04-3.52,10.38-5.5,18.73-11.1,36.68-24.27,52.25-39.46,6.26-6.11,19.9-20.17,21.75-28.6.36-1.66,1.03-4.9-.87-5.47-6.05-1.81-9.69,7.48-12.53,11.25-1.97,2.62-5.19,6.25-7.45,8.73-13.88,15.24-30.06,28.26-47.06,39.85-1.94-3.01-5.18-4.95-8.28-6.7-13.59-7.68-32.81-10.82-47.9-6.31-12.33,3.68-24.33,18.06-26.2,30.74-.12.82.1,3.09-.04,3.26-.63.76-15.23-9.78-16.48-10.79-1.44-1.17-10.14-9.12-10.39-9.99-.23-.81-.05-1.82-.25-2.75-.78-3.61-2.35-12.24-4-15.06-.65-1.1-5.05-1.5-5.77-.41-1.85,2.79,1.74,14.91,2.61,18.44.27,1.11-.06,2.3.23,3.37,1.94,6.99,23.58,20.31,30.27,24.28,4.48,2.67,9.57,5.59,14.17,8.01,9.77,5.13,20.22,9.07,29.78,14.57l-9.01,1.77c-.7.13-3.91,1.96-4.09,2.2-1.67,2.33,5.8,10.9,5.31,11.31-.57.48-5.01-1.09-6.28-1.21-2.18-.2-6.38-.33-8.09.93-3.58,2.66,1.91,9.13,1.18,9.87-.41.41-7.3-3.4-8.61-3.68-25.54-12.54-54.77-30.63-59.08-61.39-1.15-8.22-.53-19.37,1.91-27.39.28-.91,2.6-6.76,2.91-6.98.38-.27,2.3.04,3.2-.1,16.97-2.49,35.49-6.65,51.89-11.64,48.6-14.78,94.33-44.31,124.39-85.45.76,0,1.76.75,2.38,1.22,3.86,2.94,8.25,6.94,11.98,10.19,53.3,46.39,95.95,97.8,111.62,168.9,8.28,37.58,4.44,95.15-16.12,128.6-17.28,28.11-47.92,43.49-79.43,26.89-15.41-8.12-18.81-19.48-27.93-32.33-.14-.2-.67-.15-.81-.33ZM450.79,200.05c.21-1.36-.52-2.57-.62-3.88-.38-5,.07-12.35.66-17.36.4-3.42,1.6-7.03,1.76-10.53.86-.12.87,1.59,1.02,2.27,1.55,6.81,2.65,13.91,3.81,20.76.22,1.29,1.78,6.96,1.16,7.54-.29.27-6.67.16-7.79,1.2ZM454.38,225.82c-.25-.26-1.54-5.93-1.74-6.95-.93-4.61-1.21-9.38-1.86-14.03,2.08-.35,4.16-.44,6.26-.63,1.05-.1,2.15-1.22,3.06.01l4.48,18.6c-1.47.12-9.82,3.38-10.19,3ZM469.8,243.92c-1.28.38-9.02,3.4-9.42,2.88-.06-.07-.1-1.23-.27-1.81-.59-1.95-5.23-14.38-4.52-14.97.1-.08,1.82,0,2.55-.14,1.17-.23,7.33-2.23,7.65-2,1.45,1.02,3.84,11.95,5.71,14.1.27.42.4,1.72.27,1.83-.11.09-1.34-.06-1.97.12ZM484.26,271.09c-.06.82-12.07,5-12.49,4.48-.16-.2-.95-3.93-1.34-4.96-2.41-6.39-5.44-12.55-7.66-19.02,1.85.12,11.15-3.75,11.95-2.96l9.54,22.45ZM51.59,254.89c3.32,4.04,4.18,7.27,2.72,12.31-2.56,8.86-9.12,11.27-17.31,7.07-7.51-3.85-6.48-11.34-1.6-16.99,1.6-1.85,5.2-4.53,7.63-4.96,3.99-.71,6.04-.51,8.56,2.57ZM489,294.9c-3.57.77-7.15,1.82-10.64,2.85.43-2.47-4.95-17.44-4.2-17.98.18-.13,3.38-.51,4.34-.76,1.98-.51,3.9-1.37,5.83-1.97.7-.21,1.14-.54,1.86,0,.54.4,1.87,5.58,2.2,6.79.36,1.32,2.98,10.56,2.56,10.93-.07.06-1.33.02-1.94.15ZM258.93,341.2c0,.46.58,2.99.74,3.2.21.27,4.33,1.34,5,1.34,2.82-.02,7.23-1.38,10.23-1.8.54-.08,1.87-.33,2.06.26-1.25,1.65-1.74,3.75-2.99,5.4-1.96,2.59-7.52,7.69-10.23,9.55-10.86,7.48-31.1,11.95-43.88,8.57-1.14-.3-2.95-.79-3.74-1.66l-3.3-7.78,8.09,1.74c3.61-.57,7.25-.79,6.18-5.53-.42-1.84-4.68-8.36-4.67-9.1.01-1.38,8.93-2.45,10.36-2.81,6.31-1.58,4.52-6.86-.37-8.98l-37.55-19.39c-2.6-1.93-.78-8.3.28-11.07,8.82-23.08,33.75-30.03,55.44-20.08,3.71,1.7,9.68,5.19,11.36,9.02.45,1.03-.42.78-.75.98-5.45,3.29-12.05,6.3-17.17,9.82-2.95,2.03-3.65,2.44-3.05,6.56.22,1.5,3.79,3.15,5.24,3.75,2.42.99,5.36,1.77,7.96,1.94-2.67,2.99-10.39,4.12-9.6,9.29.16,1.05,1.85,2.67,2.78,3.21.99.58,6.83,2.48,7.71,2.48,1.6,0,10.66-.35,11.09,0,.52.42-7.26,8.28-7.24,11.08ZM482.82,320.56c-.77-.1-3.26.12-3.26-.04v-16.48c0-.16-.43-.38-.49-.71-.39-2.11.18-1.14,1.94-1.43s9.45-2.52,10.19-2.33c1.48.38.81,3.31.96,4.47.08.59.59,1.09.59,1.21,0,2.38.58,16.46,0,17.08-.34.37-8.48-1.58-9.93-1.76ZM490.88,341.74c-.21,1.16-1.2,6.96-2.04,6.95-3.77-3.01-7.85-6.64-12.29-8.4.67-2.37,1.39-5.1,1.76-7.52.22-1.46.52-3.32.66-4.73.08-.86-.2-3.7-.02-3.91.1-.12,2.1.9,2.83,1.06,1.72.37,10.35,1.39,10.93,1.96-.63,4.85-.95,9.78-1.83,14.6ZM479.84,371.49c-1.22-1.08-2.68-3.78-3.88-5.11-1.03-1.15-6.4-6-6.54-6.67-.11-.53,3.84-8.34,4.44-9.81.43-1.06,1.65-6,2.4-5.99s10.03,7.78,11.65,8.76l-6.56,19.41c-.3.35-1.12-.24-1.51-.58ZM464.59,374.75c-.08-1.92-1.02-3.66-.62-5.98.23-1.34,1.59-1.96,2.33-3.07.34-.52.66-2.17.97-2.02.45.21,2.75,2.67,3.3,3.29,2.57,2.91,4.65,6.58,7.51,9.29.21.26.29.56.29.89,0,1.9-6.63,11.87-8.16,14.05l-5.65,7.24c-.28-7.87.36-15.83.02-23.69ZM402.56,526.15c-1.44,5.59-10.16,6.37-15.06,7.12-10.01,1.53-19.86,1.8-29.87-.02-.8-.15-4.92-1-5.12-1.17-.15-.12-.08-2.08,0-2.64.36-2.46,4.63-10.92,6.95-11.63,2.08-.63,9.61,1.51,12.48,1.72,8.37.61,17.71-1.54,25.49-4.51,1.8-.69,3.38-2.25,5.39-2.1.52,4.64.92,8.61-.27,13.22ZM331.39,368.66c-11.63,25.46-21.49,57.76-14.11,85.66.48,1.81,1.72,6.17,2.86,7.33,1.55,1.59,4.27,2.55,4.21-.57-1.08-4.2-2.17-8.47-2.88-12.75-2.34-14-.6-26.69,2.41-40.44,3.54-16.17,9.69-31.74,18.31-45.83.9-2.26-1.84-5.62-3.96-3.64l-6.84,10.23ZM167.31,386.8c-2.29,14.78,2.85,34.27,10.26,47.21,4.21,7.36,15.7,22.2,23.07,26.08,1.51.8,3.23,1.81,4.41.4,1.59-1.9-2.41-3.64-3.62-4.79-19.6-18.48-29.7-39.24-28.14-66.53.15-2.64.59-10-3.87-8.67-1.1.33-1.91,5.05-2.11,6.29ZM321.76,221.77c.74-3.11,2.03-8.66-2.07-9.62-4.17-.98-2.34,1.42-2.69,3.62-.62,3.92-2.22,8.19-2.89,12.18-.17,1.61,3.98,3.41,4.76,2.64.33-.33,2.61-7.69,2.88-8.81ZM312.8,211.01c.13-.63.69-4.37.64-4.6-.19-.96-2.93-2.26-3.74-2.1-1.27.25-2.35,3.9-2.64,5.16-.64,2.79-1.45,6.36,2.08,7.25.48.12,1.76.28,1.96.09.22-.21,1.54-5,1.7-5.79ZM347.49,348.56c1.07.09,7.61-2.75,8.8-3.55,4.47-2.99.91-4.76-3.24-3.84-1.08.24-7.15,3.01-7.77,3.61-.31.3-1.31,2.61-1.19,2.7.14.11,3.11,1.05,3.4,1.07ZM359.88,326.06c-1.97-.14-8.54,2.18-9.83,3.72-1.91,2.29,1.69,3.86,3.81,3.22.55-.17,1.12-.85,1.88-1.12,1.55-.54,7.16-1.65,7.47-2.72.12-.43.16-1.87.02-2.01-.13-.12-3.05-1.07-3.36-1.09ZM353.72,318.98c.21.72,2.6,1.54,3.28,1.55,1.11.01,1.58-1.23,2.37-1.8,2.19-1.58,7.77-3.98,3.14-6.13-1.92-.89-4.33.21-6.04,1.32-.08.05-1.32,1.32-1.37,1.4-.78,1.01-1.78,2.33-1.38,3.66ZM302.05,202.27c-.32-1.86-3.72-3.73-4.68-2.79-.77.75-1.94,6.54-1.7,7.95.32,1.85,4.07,3.41,4.66,2.81.28-.29,1.8-7.5,1.72-7.96ZM356.18,303.45c.06,1.12,3.24,2.56,4.7,1.8.72-.37,4.74-4.77,4.71-5.42-.05-1.01-3.04-2.36-4.31-2-1.46.41-5.18,4.17-5.11,5.62Z"/>
</svg>