<?xml version="1.0" encoding="UTF-8"?>
<svg id="Layer_2" data-name="Layer 2" xmlns="http://www.w3.org/2000/svg" viewBox="0 0 4186.29 2377.25">
  <defs>
    <style>
      .cls-1 {
        fill: #fff;
      }

      .cls-2 {
        fill: #bb8d75;
      }

      .cls-3 {
        stroke: #000;
        stroke-miterlimit: 10;
      }

      .cls-4 {
        fill: #a7a2a8;
      }
    </style>
  </defs>
  <g id="_레이어_1" data-name="레이어 1">
    <path d="M3793.21,2083.05c-25.69,42.68-61.9,82.93-107.5,104.18-59.69,27.82-145.72,52.39-209.97,72.27-198.39,61.38-402.94,104.23-611.21,114.55-374.07,18.54-743.97-49.46-1117.56-49.35-135.25.04-274.1,18.97-408.55-.14-63.33-9-129.96-29.4-191.26-47.78-153.03-45.89-332.68-101.69-476.91-168.21-28.52-13.16-80.09-35.91-96.89-60.07-5.06-7.29-11.07-6.47-7.39-20.18,2.59-9.65,26.72-36.41,34.7-46.11,124.2-150.84,329.6-355.44,507.33-437.31,126.07-58.07,123.8,1.94,213.26,59.52,58.41,37.6,137.94,30.56,203.08,14.1,76.96-19.44,85.34-76.02,181.43-55.9,56.53,11.84,122.71,56.4,170.25,88.95,14.51,9.94,95.14,72.86,101.93,73.94,3.41.54,6,.99,8.14-2.37,1.83-2.86,7.98-45.32,10.79-55.44,2.15-7.75,16.53-43.02,15.24-45.45-87.32-61.37-152.25-148.51-209.05-237.69-33.51,2.55-68.24,6.84-102.23,10.14-491.06.2-526.27-655.95-110.8-825.04,199.14-81.05,429.5,11.36,460.79,234.69,82.45-21.54,169.85-23.57,254.53-17.13,28.52-119.6,95.7-223.6,215.53-265.91,184.01-64.96,405.84,22.24,493.39,196.49,125.03,248.86-47.26,630.92-324.1,687.04-31.94,6.47-64.24,7.45-96.22,13.22-23.55,43.89-37,91.02-65.62,133.1-4.59,6.74-30.51,35.93-30.95,38.36-.78,4.31,53.24,51.61,61.76,61.49,16.14,18.71,38.61,49.72,44.42,73.66,2.86,11.78-.5,41.58,14.58,34.4,56.06-52.35,122.51-91.73,167.67-154.9,29.69-41.53,82.06-153.92,123.1-173.54,57.81-27.65,157.62,38.06,205.49,71.2,13.49,9.34,47.68,40.74,59.45,44.23,17.56,5.21,52.42-.14,73.19,1.69,74.82,6.56,134.66,58.24,190.38,103.38,71.47,57.9,144.46,122.88,211.79,185.65,38.29,35.69,164.58,150.09,181.94,189.57,11.67,26.53-11.03,60.55-37.98,56.71Z"/>
    <path class="cls-2" d="M3793.21,2083.05c-25.69,42.68-61.9,82.93-107.5,104.18-59.69,27.82-145.72,52.39-209.97,72.27-198.39,61.38-402.94,104.23-611.21,114.55-374.07,18.54-743.97-49.46-1117.56-49.35-135.25.04-274.1,18.97-408.55-.14-63.33-9-129.96-29.4-191.26-47.78-153.03-45.89-332.68-101.69-476.91-168.21-28.52-13.16-80.09-35.91-96.89-60.07,8.03,3.96,16.43.95,22.84-4.54,24.54-21.08,55.75-67.2,79.36-93.42,108.74-120.69,231.91-243.18,370.36-329.48,32.13-20.03,108.92-66.34,145.11-65.17,27.42.89,97.17,73.8,131.01,90.97,65.62,33.29,191.08,23.06,256.08-9.13,28.55-14.14,47.89-41.43,82.83-43.94,94.94-6.83,228.05,119.71,305.94,167.2-25.99,80.54,77.48,129.03,132.56,75.51,6.51-6.32,13.89-23.43,21.95-24.19,26.73,3.75,53.77,8.91,80.63,11.52,35.95,3.49,73.43,7.22,109.44,8.64,23.64.93,163.62-3.19,171.32,1.48,3.03,1.84,11.96,16.59,18.75,21.57,33.76,24.8,109.9,9.26,121.04-34.45,2.12-8.33-.58-18.45,4.01-24.79,68.18-57.26,144.62-107.34,195.51-181.77,22.59-33.04,70.61-131.12,98.6-149.08,4.67-3,13.39-6.88,18.79-7.12,25.47-1.12,80.78,26.43,103.97,39.62,40.17,22.84,102.61,84.64,143.58,86.88,33.84,1.84,55.24-4.5,91.91,5.95,74.73,21.3,232.1,168.52,295.42,225.86,65.51,59.33,150.97,135.21,207.39,201.57,3.61,4.25,16.43,19.63,16.82,23.61.59,6.18-9.56,9.06-13.59,14.31-8.75,11.4-7.49,24.71,8.22,26.95Z"/>
    <path class="cls-4" d="M2614.71,537.36c188.97-15.48,367.4,104.67,400.06,295.18,36.06,210.32-104.46,485.04-321.69,534.87-33.46,7.68-71.58,5.94-101.47,13.73-39.18,10.21-45.17,57.6-60.25,89.51-76.17,161.19-214.85,202.71-384.98,166.93-154.68-32.54-242.8-163.06-323.07-287.49-34.24-5.67-68.32,5.26-102.29,7.19-470.8,26.7-502.93-605.38-113.69-755.93,159.52-61.69,386.27,3.04,405.99,195.84,1.38,13.54-5.47,42.47,8.75,48.85,11.5,5.16,52.42-11.75,68.46-14.93,63.37-12.56,138.88-10.83,203.75-9.61,15.22.29,34.41,10.28,43.77-10.71,7.13-16,10.66-46.66,17.25-66.27,40.03-119.19,132.4-196.76,259.4-207.16ZM2663.62,638.1c-51.22,6.13-100.02,50.06-127.28,91.6-72.94,111.15-73.03,282.08-34.8,405.83,4.07,13.17,8.46,38.57,27.4,33.41,8.94-2.44,11.42-8.98,11.76-17.52.9-22.6-18.08-74.54-22.48-101.68-14.66-90.34-8.22-200.2,36.11-281.9,24.41-44.98,75.78-99.37,131.45-95.97,11.71.72,54.28,15.2,46.38-14.52-5.66-21.3-51.13-21.34-68.54-19.25ZM1770.64,1177.88c8.4-6.91,33.57-67.54,38.3-81.18,41.72-120.29,20.98-312.28-89.58-391.48-18.21-13.05-77.69-40.95-87.88-7.5-7.33,24.05,22.81,18.64,34.61,20.46,32.36,5,68.75,49.57,84.64,76.64,44.74,76.2,55.47,180.2,33.05,265.21-9.73,36.9-29.66,69.76-41.32,105.87.39,13.89,17.21,21,28.18,11.99ZM2355.04,1059.42c8.69-12.26-3.05-23.82-15.17-26.85-22.16-5.54-113.08,28.94-74.32,53,12.37,7.68,37.42-10.25,50.22-14.5,11.27-3.74,33.13-2.98,39.28-11.65ZM2054.33,1093.58c7.76,8.18,30.66,4.36,42.69,5.61,14.86,1.55,53.58,14.76,55.76-9.4,1.01-11.2-7.5-16.07-16.48-19.75-11.16-4.58-63.08-9.15-73.92-5.32-12.41,4.39-17.8,18.58-8.05,28.86ZM2283.33,1110.31c-64.99,11.08-57.9,116.58,8.21,125.77,102.17,14.2,85.24-141.7-8.21-125.77ZM2119.18,1124.72c-68.77,11.78-66.05,138.85,16.3,137.23,101.95-2.01,90.5-155.52-16.3-137.23ZM2274.47,1310.24c35.07-34.77-24.14-85.36-64.98-46.26-42.45,40.64,31.75,79.22,64.98,46.26ZM2466.97,1616.53c-98.18,73.24-231.84,80.96-347.66,50.98-25.87-6.7-49.78-17.91-75.34-25.33-4.01.85-17.95,53.76-19.13,62.1,26.57,5.93,53.58,13.63,73.92,32.92,7.03,1.26,23.57-35.34,40.05-17.17,16.27,17.94-13.96,38.93-15.98,57.73,116.39,17.49,233.6,22.44,351.33,20.16l-43.88-52.55c-3.68-8.43-4.02-14.84,3.62-20.81,21.81-17.05,38.88,22.25,53.63,32.85,24.49-18.28,50.88-26.09,81.66-22.85-18.71-48.32-59.48-89.81-102.23-118.03ZM1998.95,1782.08c-4.76,57.25,94.16,53.7,86.59-3.01-2.88-21.56-58.54-49.5-74.13-32.08-4.39,4.91-11.87,27.99-12.46,35.09ZM2514.58,1816.59c4.99,26.08,74.94,19.73,75.03-14.31.08-27.76-23.18-36.18-47.52-32.87-4.08.55-22.51,6.88-24.05,9.06-3.22,4.54-4.67,31.83-3.46,38.13Z"/>
    <path class="cls-1" d="M2171.74,1190.25c-26.96-16.53-48.11,9.39-31.65,34.53-28.57,4.14-41.09-20.96-33.28-46.21,8.94-28.91,66.48-21.91,64.93,11.68ZM2326.69,1188.23c13.32-44.9-61.37-66.86-54.1-9.51,6.89.51,9.9-6.88,16.51-8.19,15.71-3.12,26.48,14.01,23.81,28.35,2.52,2.97,12.69-6.96,13.78-10.65Z"/>
    <g>
      <path d="M115.99,1083.85l131.14,132.46-.63,26.65-54.8,54.24-26.87.58-131.14-132.47,1.06-26.65,54.8-54.25,26.45-.57ZM98.64,1128.27l-20.79,20.58-.36,6.14,98.51,99.5,6.14-.29,20.79-20.58.36-6.14-98.51-99.5-6.14.29Z"/>
      <path d="M144.01,1036.48l38.86-27.91,4.43,14.53,42.64,59.37,6.28.91,24.01-17.24,1.14-6.24-42.64-59.37-12.1-9.02,39.36-28.27,4.43,14.53,113.53,158.08,12.18,8.6-39.36,28.26-4.51-14.11-44.01-61.27-6.28-.91-24.01,17.24-1.14,6.24,44.01,61.28,12.18,8.6-38.86,27.91-4.26-14.29-113.53-158.08-12.35-8.84Z"/>
      <path d="M495.29,1080.15l-43.3,20.36-1.58-14.82-82.82-176.12-10.53-10.94,38.88-18.28,108.58,99.13-51.72-109.97-10.53-10.94,43.85-20.62,1.71,15.09,82.82,176.12,10.41,10.68-39.44,18.54-108.46-98.86,51.72,109.97,10.41,10.68Z"/>
      <path d="M640.09,800.17l63.77,175.14-11.71,23.95-72.45,26.38-24.65-10.7-63.78-175.14,12.1-23.77,72.45-26.38,24.27,10.53ZM605.77,833.29l-27.49,10.01-2.89,5.42,47.91,131.57,5.7,2.3,27.49-10.01,2.89-5.43-47.91-131.56-5.7-2.3Z"/>
      <path d="M717.38,772.59l23.68,77.79,13.7,64.87-25.66,7.81-24.78-61.5-23.68-77.79-8.85-12.34,46.06-14.02-.48,15.18ZM757.58,924.51l16.59,8.45,7.52,24.71-9.07,16.26-25.66,7.81-16.59-8.45-7.52-24.71,9.07-16.26,25.66-7.81Z"/>
    </g>
    <g>
      <path d="M2576.79,3.34l111.32-3.34,22.06,19.38,2.4,80.09-21.18,21,22.41,20.02,2.52,83.96-20.85,20.99-111.32,3.34,4.89-15.99-6.42-214.11-5.83-15.34ZM2627.27,97.5l5.17,4.37,32.52-.97,4.89-4.67-1.51-50.38-5.18-4.69-32.52.98-4.89,4.99,1.51,50.38ZM2666.19,141.91l-32.53.98-4.88,4.99,1.6,53.29,5.17,4.69,32.52-.97,4.89-5-1.6-53.29-5.17-4.69Z"/>
      <path d="M2737.21,246.32l7.28-15.05,26.39-212.58-3.41-16.05,126.49,15.7,2.08,45.84-16.71-6.96-64.91-8.06-5.59,4.19-6.25,50.34,4.4,5.43,21.3,2.64,16.95-3.11-6.33,50.98-15.68-7.15-21.3-2.65-5.55,3.87-6.53,52.58,4.4,5.43,64.91,8.05,17.91-2.66-13.35,44.9-126.49-15.7Z"/>
      <path d="M2966.24,264.38l60.09-196.16,26.39-12.87,81.14,24.85,14.34,25.34-12.11,39.54.59,16.4-50.99-15.62,9.99-13.16,4.73-15.45-3.07-6.01-31.75-9.73-6.23,3.16-45.14,147.35,3.39,6.11,31.75,9.73,5.91-3.26,4.64-15.14-.91-16.5,50.99,15.62-9.67,13.26-12.21,39.85-26.17,13.27-81.14-24.86-14.56-25.75Z"/>
      <path d="M3246.8,386.77l-49.44-20.02,7.06-7.6,5.36-38.26-2.84-6.38-38.87-15.74-6.48,2.6-22.77,31.21-.22,10.37-49.44-20.02,13.96-12.12,129.16-179.49.98-14.94,53.79,21.79-9.69,11.41-32.16,218.79,1.59,18.42ZM3191.68,263.71l23.01,9.32,5.07-1.78,14.24-78.94-44.71,66.6,2.4,4.8Z"/>
      <path d="M3473.18,242.77l-92.45,187.85-28.25,8.78-76.44-37.62-9.67-27.45,92.45-187.85,2.17-16.57,47.25,23.26-11.81,11.83-81.32,165.24,2.52,6.28,29.49,14.52,6.51-1.84,81.32-165.24,2.18-16.57,47.85,23.55-11.81,11.84Z"/>
      <path d="M3619.2,358.85l-13.53-12.87-27.72-15.73-6.32,1.62-90.88,160.18-2.99,16.14-46.39-26.32,12.32-10.84,90.88-160.17-2.14-6.42-28.3-16.06-17.4-4.67,29.35-36.1,118.74,67.37-15.64,43.87Z"/>
      <path d="M3577.83,568.65l-44.8-27.68,12.72-10.37,112.6-182.23,3.76-16.29,44.8,27.68-12.89,10.65-112.6,182.23-3.59,16.01Z"/>
      <path d="M3831.88,465.5l-113.61,170.84-28.87,5.25-70.67-46.99-6.61-28.84,113.61-170.84,28.97-4.79,70.67,46.99,6.5,28.38ZM3780.13,456.7l-26.82-17.83-6.69.98-85.34,128.33,1.68,6.55,26.82,17.83,6.7-.98,85.34-128.33-1.69-6.55Z"/>
      <path d="M3971.25,560.45l-122.93,169.47-29.33,3.87-68.97-50.02-4.88-28.69,122.93-169.47,4.95-15.97,42.63,30.92-13.64,9.66-108.13,149.07,1.42,6.62,26.61,19.3,6.73-.71,108.14-149.07,4.95-15.97,43.18,31.31-13.64,9.67Z"/>
      <path d="M4070.94,716.14l-41.96-32.92,13.53-9.09,9.97-12.71-1.17-6.66-25.6-20.08-6.75.45-31.91,40.68.97,6.92,46.45,36.44,4.06,29.06-63.21,80.58-29.19,2.97-66.77-52.38-4.86-29.68,25.53-32.54,5.88-15.1,41.7,32.71-13.8,8.89-9.97,12.71,1.17,6.67,25.6,20.08,6.75-.45,31.91-40.67-.97-6.92-45.92-36.02-4.66-29.93,63.41-80.84,29.78-2.1,66.77,52.38,4.26,28.8-25.92,33.05-5.09,15.72Z"/>
      <path d="M4056.67,848.98l2.27,20.37-18.17,21.87-20.44,1.5-22.7-18.87-2.27-20.37,18.17-21.87,20.44-1.5,22.7,18.86ZM4172.04,720.1l-57.2,68.83-51.36,51.84-22.7-18.87,41.56-59.98,57.2-68.83,5.99-15.61,40.76,33.87-14.25,8.75Z"/>
    </g>
    <g>
      <path d="M205.59,1760.31l-29.33,37.8-8.14-12.49-153.77-119.3-14.35-4.96,29.33-37.81,8.37,12.67,153.77,119.3,14.12,4.78Z"/>
      <path d="M179.36,1525.59l-14.55,8.72-20.49,20.45-.12,5.92,118.2,118.42,13.4,6.53-34.29,34.23-6.5-13.42-118.2-118.42-6.14.32-20.92,20.88-8.31,14.11-24.49-34.45,87.78-87.63,34.62,24.33Z"/>
      <path d="M200.03,1440.24l18.54,1.7,29.73,37.11-2.7,22.47-10.72,25.13-8.81-11,2.82-21.82-3.3-4.12-4.21-.39-9.99,8-18.54-1.7-16.15-20.16,2.39-18.46,20.93-16.77Z"/>
      <path d="M391.74,1408.11l-40.43,26.71-3.95-14.27-8.09-12.25-6.08-.91-24.66,16.3-1.55,5.95,25.89,39.18,6.24,1.15,44.75-29.57,26.21,4.84,51.3,77.63-5.82,26.01-64.33,42.51-26.98-4.34-20.71-31.35-11.33-9.4,40.17-26.55,3.7,14.44,8.09,12.24,6.08.91,24.66-16.3,1.55-5.95-25.89-39.18-6.24-1.15-44.24,29.23-27.14-4.58-51.46-77.88,6.75-26.27,64.33-42.51,26.05,4.6,21.04,31.84,12.09,8.9Z"/>
      <path d="M684.43,1430.56l-43.81,20.71-.73-9.39-22.27-27.14-6.02-2.03-34.44,16.28-2.25,5.93,6.84,34.43,6.79,6.53-43.81,20.71.49-16.79-40.46-196.79-9.38-9.85,47.66-22.54,1.66,13.5,126.42,156.15,13.29,10.28ZM568.27,1391.64l20.39-9.64,1.93-4.48-43.99-58.1,16.99,70.87,4.69,1.36Z"/>
      <path d="M761,1400.52l-.09-14.91-64.8-183.51-9.39-11.94,95.41-33.69,24.45,10.67,33.82,95.77-12.14,24.21,38.97,60.02,10.73,12.09-45.12,15.93-1.43-14.12-37.9-57.9-4.05-2.31-11.78,4.16-2.85,5.67,21.99,62.28,9.29,11.66-45.12,15.93ZM793.53,1260.16l2.94-5.4-18.57-52.59-5.68-2.35-28.16,9.94-2.94,5.4,18.57,52.59,5.68,2.35,28.16-9.94Z"/>
      <path d="M1036.28,1312.27l-46.5,13.61.74-9.39-17.76-30.28-5.62-2.94-36.56,10.7-3.15,5.51,1.38,35.08,5.69,7.51-46.51,13.61,3.11-16.51-9.22-200.7-7.72-11.2,50.6-14.81-.47,13.6,100.47,173.99,11.52,12.23ZM927.62,1255.69l21.64-6.34,2.6-4.13-34.37-64.26,5.71,72.65,4.42,2.07Z"/>
      <path d="M1106.6,1108.3h-16.96s-28.09,7.04-28.09,7.04l-3.14,5.02,40.63,162.3,8.15,12.48-47.01,11.77,1.31-14.85-40.63-162.3-5.43-2.88-28.68,7.18-14.38,7.83-3.33-42.14,120.33-30.12,17.22,38.66Z"/>
      <path d="M1166.55,1067.72l17.25,79.46,8.35,65.77-26.21,5.69-19.67-63.31-17.25-79.46-7.82-13.02,47.06-10.21-1.71,15.09ZM1194.2,1222.42l15.84,9.78,5.48,25.24-10.37,15.47-26.21,5.69-15.84-9.78-5.48-25.24,10.36-15.47,26.21-5.69Z"/>
    </g>
    <path class="cls-3" d="M2252.07,1378.14c-5.24,14.08,9.08,22.23,21.58,22.04,22.84-.36,101.81-57.1,58.16-70.36-13.93-4.23-33.52,19.55-44.79,26.95-9.92,6.52-31.25,11.42-34.95,21.38Z"/>
  </g>
</svg>