<?xml version="1.0" encoding="UTF-8"?>
<svg id="Layer_2" data-name="Layer 2" xmlns="http://www.w3.org/2000/svg" viewBox="0 0 467.97 321.94">
  <g id="Layer_1-2" data-name="Layer 1">
    <g>
      <path d="M287.32,3.7c-10.1,6.2-28.4,16.1-41.4,22.5-30.1,14.6-51,21.7-106.5,35.8-37.4,9.6-70.4,19.7-102,31.3-27.2,10-25.6,8.7-31,24.3-8.8,26-8.6,50.2.9,79.4,1.9,5.8,4,13.3,4.7,16.8,1.6,8.3.6,23.7-2.1,32.7-5.9,20.2-7.3,36.5-4.4,52.9,1.8,10.8,3.5,15.1,6.4,16.6,3,1.6,35.2,3.7,77,5.1,62.7,2.1,184,.1,252-4.1,50.1-3.1,98.2-6.9,106.1-8.6,4.5-.9,6.5-4.3,9.2-15.9,11.9-49.9,15-113.8,8.2-164-2.3-16.7-3.6-23.7-5-26.5-.7-1.4-6.4-7.5-12.7-13.5-36-34.9-65-55-105.2-72.7-16.1-7.1-40.7-15.8-44.5-15.8-2.5,0-5.6,1.2-9.7,3.7ZM304.52,19.4c6.2,2.2,11.2,4.1,27.7,10.7,8.8,3.5,32.1,15.6,42.2,21.9,5.5,3.4,14.5,9.6,20,13.8,16.2,12.2,37.7,31.4,36.4,32.6-1.1,1-70.9,9.7-101.8,12.6-95.5,9-192,8.8-262.2-.5-10.2-1.4-18.9-2.5-19.3-2.5-.3,0-.6-.5-.6-1,0-.6.8-1,1.7-1,1,0,10.1-2.7,20.3-5.9,25.2-8.2,55.7-16.9,93-26.6,9.6-2.6,19.5-5.2,22-6,28.5-8.6,39.6-12.6,58.9-21.3,13-5.8,40.9-20.5,49.5-26,2.8-1.8,5.1-3.2,5.1-3.2.1,0,3.3,1.1,7.1,2.4ZM448.12,133.5c3,25.6,3.2,76.6.5,101-2.1,18.6-4.9,36.2-7.8,49.2l-2.1,9.1-8.2.7c-4.4.3-15.1,1.3-23.6,2-19.9,1.9-75.6,5.2-107,6.5-100.2,4-203.8,3.8-266.8-.6q-11.3-.7-11.9-15.8c-.5-11.5.7-19.5,5.8-37.6,2.6-9.6,3.5-25.8,2-35.6-.7-4.1-2.6-11.5-4.2-16.4-9.2-28.7-10.3-47.6-3.7-68.8,1-3.4,2.3-6.2,2.8-6.2s5.5.9,11.2,2c28.3,5.4,75.1,9.6,123.8,11,79.5,2.3,166.9-3.2,251-15.6,31.4-4.7,34.5-5.1,35.2-4.4.5.3,1.8,9.1,3,19.5Z"/>
      <path d="M267.12,57.4c-8.9,2.9-14.3,9.3-14.4,17-.3,15.3,19.3,23,36.9,14.5,6.4-3.1,8.8-7.1,8.8-14.5,0-5.1-.4-6.6-2.7-9.6-1.5-2-4.7-4.6-7.1-5.7-5.7-2.8-15.8-3.5-21.5-1.7ZM280.72,73.9c1.1.7,1,1-.3,1.5-3.8,1.4-12.1.3-10.9-1.5.7-1.1,9.5-1.2,11.2,0Z"/>
      <path d="M335.42,74.5c-1.6,1.5-2.5,3.6-2.5,5.5s.9,4,2.5,5.5c1.5,1.6,3.6,2.5,5.5,2.5s4-.9,5.5-2.5c1.6-1.5,2.5-3.6,2.5-5.5s-.9-4-2.5-5.5c-1.5-1.6-3.6-2.5-5.5-2.5s-4,.9-5.5,2.5Z"/>
      <path d="M199.92,81.8c-6.2,1.9-8.2,10.3-3.4,14.1,7.8,6.2,17.6-3.4,11.4-11.1-2-2.6-5.3-3.8-8-3Z"/>
      <path d="M414.52,142c-6.8,2.1-10.8,10-8.7,17.2,2.4,7.9,13,11.3,20.2,6.5,4.2-2.8,5.9-6,5.9-11.4s-4.4-10.8-9.8-12.3c-4.2-1.1-3.7-1.1-7.6,0Z"/>
      <path d="M45.92,156.2c-4.5,4.9-3.3,10.9,2.6,13.4,4.2,1.7,8.7.6,10.4-2.7,1.7-3,1.1-8.4-1-10.7-2.9-3-9.2-3-12,0Z"/>
      <path d="M345.42,163.5c-3.8,3.7-3.5,9.5.6,12.9,5.2,4.4,11.3,2.9,13.9-3.3,2.5-6.2-1.3-12.1-8-12.1-3,0-4.7.7-6.5,2.5Z"/>
      <path d="M142.02,166.1c-11,3.2-19.1,13.4-19.1,23.9.1,7.5,6.6,16.2,14.9,19.8,5.7,2.5,17.5,2.2,23.6-.6,17-7.8,20.9-27,7.6-38.3-2.2-2-5.8-4.1-8-4.7-4.5-1.4-14.2-1.4-19-.1ZM158.92,183.5c2.8,2.5,2.5,5.1-.9,8.6-2.5,2.5-3.7,2.9-8.5,2.9-10.3,0-13.8-6.5-6.4-11.8,2.7-1.9,4.3-2.3,8.5-1.9,3.2.2,6.1,1.1,7.3,2.2Z"/>
      <path d="M245.32,210.4c-4.7,2.1-9.7,6.9-12.2,11.9-2.8,5.5-4.3,15.9-3,20.7,4.5,16.5,33.4,18.2,45.3,2.6,3.6-4.7,4.8-11.2,3.3-17.9-.9-4.3-2-6.1-6.9-10.9-3.7-3.6-7.2-6.1-9.6-6.7-5.2-1.5-13.2-1.3-16.9.3ZM261.32,227.9c2.5,2.6,2.6,7.9,0,9.8-1,.7-3.6,1.9-5.7,2.5-8.7,2.6-12.7-4.7-6.6-11.7,2.9-3.3,3.7-3.6,6.8-3.1,1.9.3,4.4,1.4,5.5,2.5Z"/>
      <path d="M406.52,220.1c-2,1.6-2.6,2.9-2.6,5.8,0,5.2,2.9,8.1,8,8.1s8-2.7,8-7.8c0-7.2-7.6-10.7-13.4-6.1Z"/>
      <path d="M119.42,251.5c-1.6,1.5-2.5,3.6-2.5,5.5s.9,4,2.5,5.5c1.5,1.6,3.6,2.5,5.5,2.5s4-.9,5.5-2.5c1.6-1.5,2.5-3.6,2.5-5.5s-.9-4-2.5-5.5c-1.5-1.6-3.6-2.5-5.5-2.5s-4,.9-5.5,2.5Z"/>
      <path d="M317.42,255.2c-3.2,1.7-4.5,3.9-4.5,7.5,0,7,7.8,10.6,13.3,6.3,3.3-2.6,4.1-6.3,2.2-10.1-2.3-4.3-7-5.9-11-3.7Z"/>
      <path d="M68.42,259.8c-9.7,4.5-11.2,16.6-2.9,23.1,5.6,4.4,14.2,3.5,18.8-1.9,9.4-11.2-2.7-27.3-15.9-21.2Z"/>
    </g>
  </g>
</svg>