<?xml version="1.0" encoding="UTF-8"?>
<svg id="Layer_2" data-name="Layer 2" xmlns="http://www.w3.org/2000/svg" viewBox="0 0 3314.54 2543.5">
  <defs>
    <style>
      .cls-1 {
        fill: #d5c4b3;
      }

      .cls-2 {
        fill: #adafae;
      }

      .cls-3 {
        fill: #bb8d75;
      }

      .cls-4 {
        fill: #a7a2a8;
      }
    </style>
  </defs>
  <g id="_레이어_1" data-name="레이어 1">
    <path d="M3285.73,2249.11c-.8-.6.54-4.47-.03-5.69-6.96-1.53-5.97,3.52-8.11,7.58-51.55,97.57-204.22,145.46-306.33,171.9-109.47,28.34-225.69,54.86-336.4,78.32-76.44,16.2-156.38,35.02-234.64,38.96-368.64,18.58-735.58-47.39-1103.28-34.8-84.29,2.89-168.84,15.73-253.2,17.52-173.64,3.68-396.09-53.01-559.62-111.66-81.33-29.17-157.2-67.56-236.91-100.05-64.74-26.39-132.32-45.84-192.87-79.29-4.68-2.59-19.56,1.43-19.87-15.78-.38-20.61,48.49-85.09,63.15-103.66,57.47-72.81,133.09-147.47,201.48-210.36,81.07-74.56,257.97-231.34,372.97-220.24,69.19,6.68,105.59,101.05,198.8,109.35,94.67,8.44,156.88-12.87,240.43-47.48,36.64-15.18,64.33-2.09,100.79,4.34,12.31-98.07,38.24-196.82,71.96-289.51,48.74-133.98,119.41-269.17,252.08-335.44.84-36.63,22.07-138.68,71.63-135.28,11.64.8,25.49,14.14,28.62,13.86,7.13-.64,18.19-11.61,31.55-10.45,11.99,1.04,18.56,11.69,24.36,13.32,10.61,2.98,18.69-5.34,35.23,4.88,27.85,17.21,20.95,58.88,13.69,85.46-2.35,8.61-17.65,41.72-15.24,45.49,31.93,18.55,67.73,39.23,104.62,45.33,92.33,15.27,161.94-55.73,251.46-63.89,5.23-34.09,29.78-97.12,73.04-90.81,6.96,1.02,11.58,6.94,20.15,5.71,8.26-1.18,16.93-12.23,31.24-10.94,23.17,2.08,28.31,22.65,36.65,26.74,7.39,3.63,18.97,1.34,29.82,7.62,35.49,20.55,26.96,72.35,12.07,103.36-3.15,6.56-15.02,19.88-15.47,24.83-.23,2.5,20.6,35.77,23.95,44.23,16.55,41.86,20.51,97.82,18.89,142.63-.49,13.43-6.69,27.91-1.58,41.62,79.11-52.93,133.87-133.06,203.02-197.3,102.14-94.89,251.94-202.7,367.77-283.11,35.93-24.94,74.14-49.95,118.27-57.41,24.7-4.18,81.7-2.3,105.15,5.73,35.08,12.01-11.73,65.61-25.19,79.99-43.24,46.16-107.52,63.06-161.8,91.64-88.55,46.61-149.33,118.33-222.67,183.41-129.14,114.58-264.96,221.6-383.02,348.5-3.67,6.71-19.9,8.21-22.42,10.69-6.06,5.95-8.23,83.24-12.17,97.24,29.87-31.6,68.9-101.98,118.74-100.04,41.72,1.63,113.93,70.7,154.77,92.89,108.39,58.89,182.04-13.33,293.86,83.43,87.89,76.06,162.05,166.22,253.7,238.78,64.32,50.92,152.32,96.71,194.98,167.9,4.23,7.06,20.14,36.88,20.72,42.93,1.13,11.81-20.91,32.87-28.77,27ZM2058.33,879.26c13.49-19.18,26.62-61.95,38.33-85.51,92.54-186.19,236.54-331.92,370.75-487.53,8.67-9.35-4.5-27.35-15.03-26.35-7.05.67-41.94,37.56-49.45,45.44-124.32,130.56-267.82,301.54-344.63,464.65-7.42,15.75-37.14,77.63-31.99,90.37,7.37,18.2,22.79,12.04,32.01-1.06ZM2402.98,530.03c-10.22-.02-18.26,14.38-23.95,21.92-38.08,50.51-88.6,129.01-117.23,185.17-11.09,21.74-34.01,65.99,12.22,51.07,22.64-36.63,42.93-74.75,65.85-111.24,11.44-18.21,82.17-119.92,81.22-130.83-.61-6.95-11.13-16.07-18.11-16.08ZM2446.43,674.06c-37.15,46.56-68.97,98.09-104.91,145.63-4.6,5.92-4.83,21.16.23,26.23,12.61,12.63,27.6-4.99,35.08-13.95,40.08-48.03,74.48-107.62,113.54-157.16,10.19-14.87-1.78-34.92-18.88-27.68-7.41,3.13-19.44,19.88-25.06,26.93Z"/>
    <path class="cls-3" d="M3285.7,2243.42c-6.96-1.53-5.97,3.52-8.11,7.58-51.55,97.57-204.22,145.46-306.33,171.9-109.47,28.34-225.69,54.86-336.4,78.32-76.44,16.2-156.38,35.02-234.64,38.96-368.64,18.58-735.58-47.39-1103.28-34.8-84.29,2.89-168.84,15.73-253.2,17.52-173.64,3.68-396.09-53.01-559.62-111.66-81.33-29.17-157.2-67.56-236.91-100.05-64.74-26.39-132.32-45.84-192.87-79.29,4.1-1.79,8.57-3.65,11.57-7.13,12.89-14.9,28.15-48.55,41.95-67.51,25.45-34.93,56.64-69.45,86.11-101.09,89.96-96.57,313.84-315.74,441.97-335.63,73.69-11.44,94.02,47.74,150.85,79.84,78.1,44.11,200.22,29.85,282.84,2.49,40.66-13.47,53.9-35.7,99.4-27.61,63.9,11.35,148,51.4,197.06,93.82,57.27,49.53,51.69,65.74,135.46,77.66,78.82,11.22,154.9,36.89,233.66,45.7,96.35,10.77,280.26-1.89,368.73-42.29,118.65-54.17,163.34-195.63,245.82-286.98,27.01-29.91,37.99-39.8,75.67-18.23,64.88,37.13,113.65,98.56,196.45,105.95,107.8,9.61,124.99-18.6,214.55,61.93,79,71.03,147.85,152.61,231.88,220.28,91.11,73.37,164.61,97.17,217.36,210.32Z"/>
    <path class="cls-4" d="M2047.32,1932.37c8.49-127.35,20.14-264.33-50.66-377.03-43.87-69.83-118.91-122.21-199.82-140.02-241.01-53.07-398.52,190.72-460.92,387.46l-88.85-40.7c9.8-96.59,35.7-195,68.66-286.23,40.12-111.05,102.29-242.98,208.36-304.28,145.71-84.21,189.78,41.09,317.67,51.96,124.79,10.61,220.51-117.39,355.36-47.2,20.44,10.64,19.44,16.4,31.7,28.78,3.14,3.17,8.77,3.56,13.93,9.11,35.06,37.72,34.35,132.39,32.22,181.17-4.54,103.89-27.84,207.26-34.67,310.93-.79,11.99,3.3,40.64,1.61,47.6-1.76,7.29-44.41,67.21-52.29,77.41-37,47.9-81.68,86.88-142.3,101.03Z"/>
    <path class="cls-2" d="M2009.38,1940.51c-2.08,3.23-66.48,10.94-75.86,12-31.71,3.57-69.08,7.63-100.65,8.79-119.45,4.39-231.19-39.39-348.24-52.32-38.7-4.27-51.1-26.38-76.64-50.08-6.65-6.17-38.6-30.11-39.93-35.16-6.95-26.38,65.73-160.4,83.69-188.83,95.98-151.9,252.82-258.44,428.28-147.24,155.36,98.46,147.6,290.4,129.36,452.85Z"/>
    <path class="cls-1" d="M1664.23,1030.93c1.44,1.3-1.26,18.06,16.3,19.38,10.72.81,18.54-12.24,29.69-10.66,8.26,27.45-6.49,57.07-17.06,82.27-17.48-2.07-32.92-10.81-50.53-13.2-23.52-3.18-47.08.66-70.52,2.83,3.14-21.79,7.68-45.14,16.76-65.29,19.91-44.21,22.09-5.28,42.43-3.89,9.96.68,28.88-15.09,32.93-11.45ZM2172.37,1082.75c-12.93.84-17.14-12.41-23.4-14.07-14.54-3.86-31.34,41.92-29.67,54.4,46.48-2.57,87.39,18.18,126.48,40.17,9.51-18.3,23.52-43.73,14.84-64.84-6.16-14.97-14.89-7.76-26.91-10.52-19.49-4.48-21.44-22.5-25.55-24.9-9.94-5.8-23.82,18.98-35.78,19.75ZM2559.9,1225.3c-6.26,5.11-44.31,39.97-45.45,43.83-3.19,10.74.68,46.75,2.15,60.03.36,3.21.91,9.18,4.5,9.93,4.56.96,57.46-48.69,66.29-54.77l-10.19-69.05c-2.02-2.46-14.74,7.93-17.3,10.03ZM2888.31,974.83c-9.27,11.25,2.79,41.63-.03,56.1l71.98-31.67v-69.12c-17.36,8.15-60.78,31.12-71.95,44.69ZM2745.06,1082.13c-6.44,4.39-46.78,32.67-48.35,35.22-4.77,7.77,7.33,53.34,4.36,66.21,4.99,1.3,5.76-2.07,8.64-4.29,20.26-15.54,41.08-42.72,62-59.17l-7.32-48.83c-1.81-2.12-16.41,8.86-19.35,10.86ZM2609.44,1185.56c-2.41,7.85,4.83,70.43,8.13,72.9l54.4-45.14-8.37-67.17c-3.01-3.06-52.92,35.36-54.16,39.42ZM2994.82,979.1c31.91-8.66,61.15-34.97,77.75-63.33-3.9-5.29-66.91-3.41-77.75-.03v63.36ZM2304.26,1462.14l-12.13,95.84c7.79-8.26,49.69-43.97,51.35-50.97,2.35-9.87-14.18-47.38-11.08-61.34-1.08-1.25-26.7,12.58-28.15,16.46ZM2402.94,1385.14c-3.5,2.41-37.5,34.04-38.29,36.57-3.51,11.24,3.79,44.39,9.57,55.61,3.39.75,49.2-44.72,50.06-48.08,1.66-6.45-5.95-9.79-8.29-16.76-3.02-9-4.94-20.64-5.83-30.17-4.38-1.19-4.78,1.15-7.22,2.83ZM2796.74,1043.07c-4.95,8.61,2.99,37.78,5.16,48.34,8.57-8.61,52.78-33.66,56.29-40.36,3.64-6.93-8.78-35.38-4.5-46.02-2.3-2.56-55.23,35.05-56.95,38.03ZM2473.52,1311.72c-5.37,4.12-36.01,36.8-36.79,40.68-1.74,8.71,12.76,40.81,10.9,52.92,4.11,4.31,33.42-31.96,40.36-33.7l-5.83-64.19c-4.99-1.3-5.76,2.07-8.64,4.29Z"/>
    <text/>
    <g>
      <path d="M299.09,1438.13l-28.09,58.12-14.25-14.19-236.41-114.24-20.33-2.52,25.22-52.2,198.01,11.66-147.62-71.34-20.33-2.52,28.45-58.86,14.61,14.36,236.41,114.24,19.98,2.35-25.58,52.94-197.66-11.48,147.63,71.33,19.98,2.35Z"/>
      <path d="M232.72,1016.26l205.69,144.66,5.5,35.54-59.84,85.09-35.54,7.17-205.69-144.66-4.94-35.65,59.84-85.09,34.98-7.07ZM220.28,1079.39l-22.71,32.29.99,8.23,154.51,108.67,8.08-1.86,22.71-32.29-.99-8.23-154.51-108.67-8.08,1.85Z"/>
      <path d="M538.3,1082.15l-8.84-18.07-186.17-185.15-18.4-9.02,96.25-96.79,35.97-1.34,97.15,96.63-.59,36.53,82.5,50.15,20.12,8.41-45.52,45.77-10.01-16.33-79.96-48.21-6.27-.44-11.89,11.95-.14,8.56,63.18,62.83,18.12,8.74-45.52,45.77ZM495.7,892.49l.42-8.28-53.35-53.06-8.28.46-28.41,28.57-.42,8.28,53.35,53.06,8.28-.46,28.41-28.57Z"/>
      <path d="M824.29,820.65l-50.01,42.11-4.19-12-38.4-27.72-8.54-.57-39.31,33.11-.89,8.52,20.79,42.55,11.11,6.18-50.01,42.11-5.15-22.07-120.59-242.76-15.63-9.62,54.41-45.82,6.82,17.04,218.71,160.12,20.87,8.83ZM659.36,809.92l23.27-19.6.97-6.51-77.4-60.63,46.58,86.59,6.58.15Z"/>
      <path d="M805.26,531.4l-21.12,8.81-31.33,23.32-1.31,7.88,134.79,181.08,16.63,11.32-52.44,39.03-6.07-19.18-134.79-181.08-8.26-.76-31.99,23.81-13.84,17.21-25.99-50.76,134.24-99.92,41.49,39.22Z"/>
      <path d="M887.04,408.75l54.81-34.1,4.66,19.95,52.1,83.73,8.37,1.78,33.86-21.07,2.1-8.3-52.1-83.73-15.49-13.22,55.51-34.54,4.67,19.95,138.71,222.93,15.63,12.66-55.51,34.54-4.81-19.4-53.77-86.42-8.38-1.79-33.86,21.07-2.1,8.3,53.77,86.42,15.63,12.66-54.81,34.1-4.46-19.61-138.71-222.93-15.84-13Z"/>
      <path d="M1214.95,560.27l-3.77-20.14-128.6-228.93-15.05-13.35,136.22-76.51,35.4,43.71-21.55,5.29-69.9,39.26-2.47,8.2,30.45,54.21,8.29,2.16,22.94-12.89,14.46-15.39,30.84,54.9-20.67,4.34-22.94,12.89-2.66,7.85,31.81,56.63,8.29,2.16,69.9-39.27,15.73-15.65,19.49,54.01-136.22,76.51Z"/>
      <path d="M1376.28,470.27l-2.79-19.92-119.47-233.81-14.69-14.29,121.55-62.11,34.6,9.89,62.35,122.02-11.9,34.54,62.84,73.29,16.51,14.24-57.48,29.37-4.44-18.63-61.03-70.66-5.82-2.36-15.01,7.67-2.79,8.1,40.55,79.35,14.51,13.93-57.48,29.37ZM1394.67,276.75l2.97-7.74-34.24-67-8.01-2.13-35.88,18.33-2.97,7.74,34.24,67,8.01,2.13,35.88-18.33Z"/>
      <path d="M1550.83,381.82l-2.23-20.37-110.91-237.99-13.99-14.45,141.61-66,31.99,46.26-21.89,3.65-72.67,33.87-3.08,7.99,26.26,56.36,8.1,2.78,23.85-11.12,15.58-14.25,26.6,57.07-20.94,2.77-23.85,11.12-3.25,7.63,27.43,58.87,8.1,2.78,72.67-33.87,16.87-14.42,15.35,55.33-141.61,66Z"/>
      <path d="M1666.32,20.42l43.63,100.65,28.27,84.86-33.2,14.39-42.6-78.65-43.63-100.65-13.75-15.19,59.61-25.83,1.68,20.42ZM1743.41,217.93l23.53,8.79,13.86,31.98-9.67,23.18-33.2,14.39-23.53-8.79-13.86-31.98,9.67-23.18,33.2-14.39Z"/>
    </g>
  </g>
</svg>